<svg xmlns="http://www.w3.org/2000/svg" width="178" height="13" viewBox="0 0 178 13" fill="none"><path d="M176.577 3.76469C176.65 3.11624 176.521 2.65548 176.152 2.23529C175.71 1.73215 174.914 1.5166 173.893 1.5166H170.931C170.83 1.51665 170.733 1.55264 170.656 1.61811C170.579 1.68358 170.528 1.77425 170.512 1.87383L169.279 9.69582C169.273 9.73215 169.275 9.7693 169.285 9.80471C169.295 9.84012 169.312 9.87294 169.336 9.90092C169.36 9.92889 169.39 9.95135 169.423 9.96674C169.457 9.98214 169.493 9.9901 169.53 9.99008H171.198L171.076 10.7651C171.068 10.8193 171.071 10.8748 171.086 10.9277C171.101 10.9806 171.127 11.0296 171.163 11.0713C171.198 11.1131 171.243 11.1467 171.292 11.1697C171.342 11.1927 171.397 11.2046 171.452 11.2046H172.993C173.253 11.2046 173.473 11.0169 173.515 10.762L173.53 10.6833L173.821 8.84091L173.839 8.74161L173.84 8.73737C173.847 8.68716 173.873 8.64141 173.912 8.60842C173.95 8.57542 173.999 8.55738 174.05 8.55755H174.28C175.047 8.55755 175.749 8.40255 176.306 8.00658C176.535 7.8431 176.737 7.64148 176.907 7.39808C177.189 7.00473 177.372 6.54868 177.44 6.06909C177.586 5.31468 177.518 4.64262 177.095 4.15945C176.964 4.01366 176.808 3.89265 176.634 3.80223L176.577 3.7653V3.76469ZM172.026 6.8568C172.086 6.82546 172.153 6.80905 172.221 6.80897H173.09C174.797 6.80897 176.134 6.11632 176.524 4.11102L176.526 4.10133C176.657 4.17641 176.768 4.26481 176.858 4.36652C177.188 4.74373 177.269 5.29591 177.13 6.00733C176.966 6.85317 176.606 7.40414 176.123 7.74744C175.638 8.09255 175.008 8.24089 174.281 8.24089H174.051C173.925 8.24073 173.803 8.28538 173.708 8.36683C173.612 8.44828 173.548 8.56119 173.528 8.6853L173.51 8.7846L173.22 10.627L173.205 10.7057L173.204 10.7082C173.196 10.7582 173.171 10.8037 173.132 10.8366C173.093 10.8694 173.044 10.8874 172.994 10.8874H171.452C171.443 10.8874 171.434 10.8854 171.425 10.8815C171.417 10.8776 171.409 10.872 171.403 10.8649C171.397 10.8578 171.393 10.8495 171.39 10.8405C171.388 10.8315 171.387 10.8221 171.389 10.8129L171.515 10.0137L172.026 6.8568Z" fill="#0A2C07"></path><path fill-rule="evenodd" clip-rule="evenodd" d="M129.417 2.21094H131.387H145.172C144.85 3.80188 144.534 5.3574 144.219 6.90679C144.153 7.23459 144.086 7.56211 144.02 7.88964C144.005 7.96339 143.99 8.03749 143.975 8.11167C143.892 8.52139 143.808 8.93377 143.722 9.30452C143.502 10.247 142.688 10.498 141.503 10.498H126.17C126.353 9.61908 126.531 8.72099 126.709 7.81737C126.927 6.71533 127.146 5.60505 127.38 4.51131C127.409 4.37572 127.435 4.23735 127.461 4.0987C127.511 3.837 127.56 3.5743 127.63 3.32742C127.836 2.6033 128.547 2.25217 129.417 2.21094ZM138.547 6.93109C138.486 7.42961 139.083 7.37038 139.296 7.16181V7.16185C139.453 7.00774 139.497 6.73274 139.532 6.50972C139.534 6.5027 139.535 6.49573 139.536 6.48882C139.048 6.42903 138.598 6.51701 138.547 6.93109ZM138.575 5.7599C138.593 5.69035 138.611 5.62079 138.624 5.54666V5.5467C138.712 5.54416 138.812 5.53606 138.917 5.52753C139.399 5.48855 139.991 5.44063 140.016 5.87354C140.025 6.03388 139.987 6.2078 139.948 6.38673C139.931 6.46491 139.914 6.54405 139.9 6.62343C139.898 6.63607 139.896 6.64865 139.894 6.66119C139.844 6.95282 139.798 7.21977 139.795 7.5464H139.44C139.434 7.42857 139.451 7.33319 139.469 7.23875C139.299 7.51153 138.807 7.71009 138.403 7.53681C138.194 7.44675 138.084 7.12422 138.183 6.79648C138.33 6.30718 138.889 6.19303 139.574 6.2581L139.575 6.25589C139.605 6.17155 139.646 6.0577 139.622 5.95044C139.549 5.62486 138.791 5.81238 138.547 5.87351C138.556 5.83516 138.566 5.79753 138.575 5.7599ZM141.762 6.87342C141.768 7.15899 141.906 7.33118 142.184 7.32524C142.688 7.31439 142.771 6.7675 142.848 6.26051C142.87 6.11394 142.892 5.97071 142.923 5.84473C142.771 5.79282 142.622 5.74459 142.415 5.76779C141.97 5.81762 141.751 6.37329 141.762 6.87342ZM142.962 5.57548C143.023 5.29084 143.07 4.99207 143.105 4.68143L143.105 4.6814H143.518C143.472 4.94182 143.422 5.19785 143.372 5.45388C143.241 6.12498 143.11 6.79608 143.058 7.5464H142.683C142.685 7.46592 142.697 7.39597 142.709 7.32603C142.713 7.30029 142.718 7.27456 142.722 7.2483C142.717 7.23154 142.696 7.26461 142.675 7.29857C142.665 7.31577 142.654 7.3332 142.645 7.3445C142.609 7.38912 142.555 7.45337 142.501 7.48869C142.224 7.67119 141.675 7.61928 141.484 7.40213C141.373 7.27619 141.342 7.09957 141.34 6.92146C141.329 6.0006 141.949 5.25455 142.962 5.57548ZM131.734 7.00798C131.777 7.40209 132.32 7.4057 132.54 7.17144C132.723 6.97746 132.875 6.49793 132.819 6.1139C132.754 5.67156 132.115 5.70365 131.897 5.96966C131.879 6.06137 131.864 6.15804 131.848 6.25822C131.836 6.33025 131.824 6.4041 131.811 6.47923C131.802 6.52943 131.791 6.57983 131.779 6.63017C131.75 6.75776 131.721 6.88501 131.734 7.00798ZM131.907 5.72139C132.092 5.57213 132.517 5.41526 132.867 5.54666C133.585 5.81714 133.172 7.19848 132.636 7.48869C132.377 7.62936 131.761 7.69889 131.667 7.33487C131.61 7.57139 131.574 7.82832 131.537 8.08526C131.521 8.20433 131.504 8.3234 131.485 8.44045H131.072C131.257 7.49152 131.433 6.53289 131.581 5.54666H131.936C131.934 5.57875 131.928 5.60596 131.921 5.63318C131.915 5.66041 131.909 5.68764 131.907 5.71975L131.907 5.72139ZM131.897 5.72935L131.907 5.72139C131.908 5.72793 131.903 5.72883 131.897 5.72935ZM133.855 6.23887H134.824C134.912 5.86752 134.699 5.74679 134.402 5.7582C134.086 5.77029 133.886 6.01566 133.855 6.23887ZM133.701 5.80624C133.881 5.61716 134.133 5.53123 134.431 5.50821C134.771 5.482 135.105 5.55261 135.198 5.8255C135.252 5.98067 135.219 6.14796 135.188 6.31027C135.177 6.36413 135.167 6.41745 135.16 6.4696C134.714 6.45815 134.252 6.45543 133.807 6.4696C133.738 6.76484 133.739 7.10459 133.951 7.23875C134.231 7.41641 134.705 7.2737 134.978 7.17144C134.971 7.21264 134.963 7.25242 134.955 7.2922C134.941 7.35869 134.927 7.42517 134.92 7.49829C134.258 7.65978 133.43 7.68365 133.356 7.01761C133.304 6.55077 133.482 6.03812 133.701 5.80624ZM130.794 5.57548C130.793 5.56191 130.792 5.5483 130.804 5.54666H131.216C131.074 6.18923 130.96 6.86055 130.861 7.5464H130.448C130.58 6.9058 130.703 6.25672 130.794 5.57548ZM140.783 5.86391C140.902 5.68011 141.205 5.37361 141.57 5.55626C141.554 5.60857 141.544 5.66735 141.535 5.72613C141.528 5.76635 141.521 5.80658 141.513 5.84473C140.867 5.66171 140.737 6.27033 140.649 6.82534C140.638 6.89418 140.626 6.95853 140.615 7.02088C140.584 7.19398 140.555 7.35154 140.553 7.5464H140.131C140.269 6.8997 140.388 6.23333 140.486 5.54666H140.85C140.835 5.59322 140.827 5.64662 140.819 5.70001C140.81 5.75752 140.801 5.81501 140.783 5.86391ZM136.897 6.69073C136.887 6.81426 136.897 6.97686 136.935 7.07529C137.066 7.41403 137.629 7.33434 137.924 7.18104C137.915 7.22441 137.907 7.26935 137.9 7.31427C137.89 7.37364 137.88 7.43299 137.866 7.48869C137.327 7.67521 136.662 7.64873 136.513 7.16181C136.386 6.74569 136.566 6.08438 136.839 5.79661C137.119 5.50271 137.646 5.44615 138.202 5.53707C138.196 5.58162 138.189 5.62481 138.182 5.668C138.171 5.73183 138.16 5.79567 138.154 5.86391C137.815 5.74526 137.39 5.71031 137.175 5.92162C137.019 6.07471 136.918 6.41289 136.897 6.69073ZM135.918 5.88318C136.052 5.64881 136.339 5.39863 136.705 5.54666C136.7 5.59232 136.691 5.63408 136.683 5.67585C136.671 5.7294 136.66 5.78296 136.657 5.84473C136.27 5.70622 136.001 5.96011 135.899 6.2581C135.807 6.52452 135.768 6.86882 135.733 7.18591C135.718 7.31266 135.704 7.43506 135.688 7.5464H135.275C135.292 7.45932 135.308 7.37234 135.325 7.28537C135.434 6.71642 135.543 6.14748 135.621 5.54666H135.985C135.975 5.591 135.968 5.63728 135.96 5.68355C135.948 5.75222 135.936 5.82088 135.918 5.88318ZM129.863 5.87354C129.93 5.49803 129.996 5.12228 130.055 4.73911L130.055 4.73914H130.535C130.346 5.65249 130.187 6.59539 130.036 7.54644H129.566C129.608 7.27825 129.657 7.01722 129.706 6.7562C129.744 6.55916 129.781 6.36213 129.815 6.16202C129.465 6.12866 129.037 6.13978 128.661 6.14954C128.623 6.15053 128.585 6.15151 128.548 6.15242C128.465 6.53453 128.403 6.93728 128.341 7.34007C128.33 7.4089 128.319 7.47772 128.309 7.54644H127.838C127.966 6.90785 128.078 6.25273 128.19 5.59756C128.238 5.31095 128.287 5.02432 128.337 4.73907H128.798C128.76 4.92079 128.727 5.10775 128.694 5.29471C128.66 5.48633 128.626 5.67794 128.587 5.86388C128.915 5.88844 129.259 5.88285 129.602 5.87729C129.689 5.87588 129.776 5.87446 129.863 5.87354ZM131.293 4.73911C131.414 4.84675 131.308 5.10537 131.226 5.16211C131.173 5.19818 130.997 5.23971 130.919 5.16211C130.838 5.08242 130.886 4.86791 130.938 4.79678C130.97 4.75253 131.018 4.72431 131.101 4.71029C131.19 4.69512 131.255 4.70501 131.293 4.73911Z" fill="#0A2C07"></path><path d="M119.594 11.7471H106.298C106.027 11.7471 105.767 11.6394 105.575 11.4476C105.383 11.2558 105.275 10.9956 105.275 10.7244V6.42203H106.012L106.178 6.01974H106.55L106.716 6.42032H108.166V6.11563L108.295 6.42245H109.048L109.178 6.11051V6.4216H112.78V5.76363H112.848C112.897 5.76534 112.911 5.7696 112.911 5.85057V6.42245H114.774V6.26947C114.965 6.3662 115.189 6.42288 115.427 6.42288L115.468 6.42245H115.466H116.25L116.418 6.02188H116.79L116.954 6.42245H118.465V6.04148L118.693 6.42245H119.902V3.90649H118.706V4.20352L118.538 3.90649H117.308V4.20352L117.155 3.90649H115.494C115.242 3.89378 114.992 3.94556 114.766 4.05692L114.775 4.05309V3.90649H113.629V4.05309C113.49 3.9438 113.315 3.89153 113.139 3.90692H113.142H108.956L108.675 4.55679L108.387 3.90692H107.068V4.20394L106.923 3.90692H105.798L105.277 5.10012V2.54326C105.277 2.27201 105.384 2.01187 105.576 1.82006C105.768 1.62826 106.028 1.52051 106.299 1.52051H119.595C119.866 1.52051 120.127 1.62826 120.318 1.82006C120.51 2.01187 120.618 2.27201 120.618 2.54326V7.00925H119.82C119.807 7.0084 119.792 7.0084 119.777 7.0084C119.592 7.0084 119.42 7.0638 119.277 7.15883L119.28 7.1567V7.00925H118.1C117.915 6.99906 117.733 7.05147 117.582 7.15798L117.585 7.15627V7.00883H115.477V7.15627C115.304 7.05897 115.109 7.00816 114.911 7.00883H114.895H114.896H113.505V7.15627C113.323 7.0399 113.108 6.98811 112.893 7.00925L112.897 7.00883H111.341L110.985 7.39406L110.652 7.00883H108.327V9.52649H110.608L110.975 9.13529L111.321 9.52649H112.727V8.93713H112.923C113.111 8.9445 113.299 8.91302 113.475 8.84466L113.465 8.84807V9.52734H114.625V8.87151H114.68C114.751 8.87151 114.758 8.87406 114.758 8.94565V9.52777H118.281L118.324 9.52862C118.526 9.52862 118.714 9.46811 118.871 9.36456L118.867 9.36669V9.52777H119.985L120.038 9.52862C120.247 9.52862 120.446 9.48558 120.627 9.4076L120.617 9.41143V10.7248C120.617 10.9961 120.509 11.2562 120.317 11.448C120.126 11.6398 119.866 11.7476 119.594 11.7476L119.594 11.7471ZM114.269 9.17364H113.835V7.36892H114.831C115.011 7.35225 115.192 7.3825 115.356 7.45671L115.349 7.45415C115.483 7.52744 115.572 7.66722 115.572 7.82745L115.571 7.856V7.85472L115.571 7.87092C115.571 8.07802 115.447 8.25615 115.268 8.33371L115.264 8.33499C115.35 8.36567 115.421 8.41809 115.475 8.48584L115.476 8.4867C115.536 8.58629 115.561 8.70312 115.547 8.81866L115.548 8.81611V9.17322H115.115V8.94736C115.135 8.82439 115.11 8.69816 115.045 8.59195L115.046 8.59409C115.001 8.55994 114.95 8.53527 114.895 8.52158C114.84 8.50788 114.783 8.50544 114.728 8.5144L114.73 8.51397H114.269V9.17322V9.17364ZM114.269 7.7418V8.14706H114.793C114.867 8.1539 114.942 8.14065 115.009 8.10871L115.006 8.10999C115.034 8.09228 115.056 8.06799 115.072 8.03933C115.088 8.01067 115.096 7.97856 115.096 7.94592L115.095 7.93612V7.93654C115.098 7.90397 115.09 7.87147 115.075 7.84281C115.059 7.81415 115.036 7.7905 115.007 7.77461L115.006 7.77418C114.942 7.74526 114.871 7.73352 114.8 7.74009H114.802L114.269 7.7418ZM110.423 9.17322H108.716V7.36892H110.45L110.981 7.96041L111.529 7.36892H112.907C113.396 7.36892 113.634 7.56367 113.634 7.96339C113.634 8.37036 113.388 8.56809 112.884 8.56809H112.345V9.17279H111.506L110.976 8.57661L110.424 9.17322H110.423ZM111.915 7.56239L111.253 8.27405L111.915 9.00872V7.56239ZM109.146 8.43812V8.79693H110.206L110.696 8.26766L110.225 7.7418H109.145V8.06993H110.092V8.43769L109.146 8.43812ZM112.345 7.74222V8.20161H112.902C113.072 8.20161 113.17 8.11467 113.17 7.96297C113.17 7.81808 113.079 7.7418 112.906 7.7418L112.345 7.74222ZM120.032 9.17407H119.199V8.78628H120.028C120.09 8.79483 120.153 8.7786 120.203 8.7411L120.203 8.74153C120.219 8.72668 120.232 8.70868 120.24 8.68866C120.249 8.66864 120.254 8.64703 120.254 8.62519V8.62392V8.61838C120.254 8.59681 120.249 8.57549 120.24 8.55591C120.231 8.53633 120.218 8.51897 120.201 8.50502C120.157 8.47315 120.103 8.45887 120.049 8.46496H120.049L119.97 8.46241C119.58 8.45218 119.139 8.44025 119.139 7.90629C119.139 7.64634 119.302 7.36892 119.758 7.36892H120.617V7.7533H119.831C119.77 7.7465 119.709 7.75871 119.655 7.78825L119.657 7.78739C119.636 7.80124 119.619 7.8205 119.608 7.84315C119.597 7.86579 119.592 7.89099 119.594 7.91609V7.91566V7.92035C119.594 7.94907 119.603 7.97705 119.62 8.00031C119.637 8.02357 119.661 8.04093 119.688 8.0499L119.689 8.05032C119.743 8.06698 119.799 8.07391 119.856 8.07078H119.855L120.089 8.07675C120.265 8.05915 120.441 8.11165 120.579 8.22291L120.578 8.22206C120.591 8.23229 120.602 8.24337 120.612 8.25573L120.612 8.25615L120.617 8.9431C120.545 9.02684 120.454 9.09167 120.352 9.13187C120.249 9.17208 120.138 9.18642 120.029 9.17364L120.032 9.17407ZM118.349 9.17407H117.508V8.78628H118.344C118.407 8.79447 118.47 8.77829 118.521 8.7411L118.52 8.74153C118.536 8.72663 118.549 8.7086 118.558 8.68859C118.566 8.66858 118.571 8.647 118.571 8.62519V8.62392V8.62093C118.571 8.599 118.566 8.57732 118.557 8.55734C118.548 8.53735 118.535 8.51952 118.518 8.50502C118.473 8.47312 118.418 8.45886 118.364 8.46496H118.364L118.285 8.46241C117.897 8.45218 117.456 8.44025 117.456 7.90629C117.456 7.64634 117.618 7.36892 118.073 7.36892H118.937V7.7533H118.146C118.086 7.74658 118.025 7.75879 117.972 7.78825L117.974 7.78739C117.951 7.8028 117.933 7.82396 117.922 7.84865C117.911 7.87334 117.906 7.90064 117.909 7.92766C117.912 7.95468 117.922 7.98042 117.938 8.00216C117.955 8.0239 117.977 8.04084 118.002 8.05118L118.003 8.0516C118.057 8.06839 118.115 8.07532 118.172 8.07206H118.171L118.403 8.07802C118.58 8.06094 118.757 8.11352 118.896 8.22462L118.895 8.22334C118.942 8.27497 118.977 8.33574 119 8.40183C119.022 8.46791 119.03 8.53788 119.024 8.6073V8.60517C119.025 8.98145 118.797 9.17322 118.347 9.17322L118.349 9.17407ZM117.25 9.17407H115.81V7.36849H117.249V7.74137H116.24V8.0695H117.225V8.43726H116.24V8.79608L117.25 8.79778V9.17279V9.17407ZM118.09 6.06918H117.211L117.043 5.6669H116.148L115.985 6.06918H115.48C115.254 6.08112 115.031 6.00973 114.853 5.86846L114.855 5.86974C114.771 5.77664 114.707 5.66697 114.667 5.54774C114.628 5.42851 114.613 5.30234 114.625 5.17726L114.625 5.18067C114.614 5.05328 114.629 4.925 114.669 4.80361C114.709 4.68222 114.773 4.57027 114.858 4.47454L114.857 4.4754C114.947 4.39715 115.051 4.33816 115.165 4.30209C115.278 4.26602 115.397 4.25364 115.516 4.26573L115.512 4.26531H115.93V4.65012H115.521C115.461 4.6424 115.4 4.64799 115.343 4.66648C115.285 4.68497 115.233 4.7159 115.188 4.75708L115.189 4.75665C115.098 4.87333 115.053 5.01985 115.065 5.16746V5.16532C115.051 5.31698 115.094 5.46833 115.185 5.59062L115.183 5.58891C115.268 5.65815 115.376 5.69149 115.485 5.68181H115.484H115.677L116.287 4.26275H116.935L117.665 5.96733V4.26275H118.321L119.079 5.51902V4.26275H119.522V6.06619H118.907L118.089 4.71191V6.06619L118.09 6.06918ZM116.598 4.57L116.301 5.28933H116.897L116.598 4.57ZM112.423 6.06833H111.991V4.26403H112.984C113.165 4.24524 113.347 4.27602 113.512 4.35309L113.506 4.35054C113.572 4.38721 113.628 4.44098 113.666 4.50625C113.705 4.57152 113.725 4.64592 113.725 4.72171L113.724 4.75154V4.75026V4.76347C113.724 4.86189 113.696 4.95823 113.642 5.04092C113.589 5.12362 113.513 5.18916 113.423 5.22967L113.42 5.23095C113.506 5.26334 113.578 5.31533 113.633 5.38181L113.633 5.38266C113.694 5.48262 113.719 5.60026 113.705 5.71633L113.705 5.71377V6.0679H113.27L113.268 5.84034V5.80625C113.284 5.69498 113.259 5.58183 113.199 5.48706L113.2 5.48919C113.155 5.45604 113.104 5.43215 113.049 5.41891C112.995 5.40567 112.938 5.40334 112.883 5.41206L112.885 5.41164H112.423V6.0679L112.423 6.06833ZM112.423 4.63946V5.04004H112.946C113.02 5.04806 113.095 5.03475 113.161 5.00168L113.159 5.00254C113.186 4.98594 113.209 4.96261 113.225 4.93477C113.24 4.90693 113.249 4.87553 113.249 4.84359L113.248 4.83165V4.83208C113.25 4.7997 113.243 4.76739 113.227 4.73915C113.211 4.7109 113.187 4.68795 113.158 4.67313L113.157 4.6727C113.093 4.64488 113.022 4.63318 112.952 4.63861H112.953L112.423 4.63946ZM107.856 6.06833H106.98L106.814 5.66604H105.916L105.749 6.06833H105.28L106.053 4.26403H106.693L107.427 5.97159V4.26403H108.13L108.694 5.48749L109.213 4.26403H109.931V6.06747H109.488L109.487 4.65608L108.862 6.0679H108.483L107.857 4.65395V6.0679L107.856 6.06833ZM106.363 4.57L106.069 5.28933H106.658L106.363 4.57ZM114.412 6.0679H113.972V4.26403H114.412V6.06747L114.412 6.0679ZM111.691 6.0679H110.253V4.26403H111.693V4.63904H110.684V4.96418H111.669V5.3345H110.683V5.69502H111.692V6.06747L111.691 6.0679Z" fill="#0A2C07"></path><path d="M150.715 1.51953H151.645V11.7464H150.715V1.51953Z" fill="#0A2C07"></path><path d="M155.363 1.51953H156.293V10.8167H155.363V1.51953Z" fill="#0A2C07"></path><path d="M152.574 1.51953H154.434V10.8167H152.574V1.51953Z" fill="#0A2C07"></path><path d="M157.221 1.51953H159.08V10.8167H157.221V1.51953Z" fill="#0A2C07"></path><path d="M160.01 1.51953H161.869V10.8167H160.01V1.51953Z" fill="#0A2C07"></path><path d="M162.799 1.51953H163.729V11.7464H162.799V1.51953Z" fill="#0A2C07"></path><path opacity="0.5" d="M95.399 10.8787C94.5418 10.8789 93.7039 10.6248 92.9911 10.1487C92.2783 9.6726 91.7227 8.99582 91.3946 8.20395C91.0665 7.41208 90.9805 6.54069 91.1476 5.69997C91.3147 4.85925 91.7274 4.08696 92.3334 3.48077C92.9394 2.87457 93.7116 2.46169 94.5522 2.29434C95.3929 2.12699 96.2643 2.21269 97.0563 2.54059C97.8483 2.8685 98.5252 3.42388 99.0015 4.13652C99.4778 4.84916 99.7321 5.68703 99.7323 6.5442V6.54484C99.7311 7.69379 99.2742 8.79534 98.4618 9.60783C97.6494 10.4203 96.548 10.8774 95.399 10.8787Z" fill="#0A2C07"></path><path d="M91.1816 10.8787C90.3244 10.8787 89.4865 10.6246 88.7738 10.1484C88.0611 9.67214 87.5056 8.99527 87.1776 8.20336C86.8495 7.41144 86.7637 6.54004 86.9309 5.69934C87.0982 4.85865 87.5109 4.08642 88.117 3.48031C88.7231 2.8742 89.4954 2.46144 90.3361 2.29421C91.1768 2.12699 92.0482 2.21282 92.8401 2.54084C93.632 2.86886 94.3089 3.42435 94.7851 4.13706C95.2613 4.84976 95.5155 5.68768 95.5155 6.54484C95.5143 7.6939 95.0573 8.79555 94.2448 9.60806C93.4323 10.4206 92.3306 10.8776 91.1816 10.8787Z" fill="#0A2C07"></path><path d="M11.0489 10.4585V5.05254C11.0486 5.04597 11.0498 5.03942 11.0522 5.0333C11.0546 5.02719 11.0582 5.02163 11.0629 5.01698C11.0675 5.01233 11.0731 5.00869 11.0792 5.00628C11.0853 5.00386 11.0919 5.00273 11.0984 5.00296H12.1365C12.1496 5.00296 12.1622 5.00818 12.1715 5.01748C12.1808 5.02678 12.186 5.03939 12.186 5.05254V7.00062H12.202C12.3416 6.83419 12.5177 6.70216 12.7166 6.61479C12.9155 6.52742 13.1318 6.48704 13.3488 6.4968C14.1661 6.4968 14.4284 7.03101 14.4284 7.73954V10.4585C14.4284 10.465 14.4271 10.4715 14.4246 10.4775C14.4221 10.4835 14.4185 10.489 14.4139 10.4936C14.4093 10.4982 14.4038 10.5019 14.3978 10.5043C14.3918 10.5068 14.3853 10.5081 14.3788 10.5081H13.3408C13.3343 10.5081 13.3278 10.5068 13.3218 10.5043C13.3158 10.5019 13.3104 10.4982 13.3057 10.4936C13.3011 10.489 13.2975 10.4835 13.295 10.4775C13.2925 10.4715 13.2912 10.465 13.2912 10.4585V7.84031C13.2912 7.53322 12.9713 7.43885 12.7666 7.43885C12.5619 7.43885 12.186 7.5732 12.186 7.95706V10.4585C12.186 10.4717 12.1808 10.4843 12.1715 10.4936C12.1622 10.5029 12.1496 10.5081 12.1365 10.5081H11.0984C11.0853 10.5081 11.0727 10.5029 11.0634 10.4936C11.0541 10.4843 11.0489 10.4717 11.0489 10.4585Z" fill="#0A2C07"></path><path d="M19.336 9.39335V7.53004H18.8562C18.8431 7.53004 18.8305 7.52482 18.8212 7.51552C18.8119 7.50622 18.8066 7.49361 18.8066 7.48046V6.81191C18.8068 6.80165 18.81 6.79169 18.8161 6.78338C18.8221 6.77507 18.8305 6.76884 18.8402 6.76553L19.48 6.5784L19.8207 5.51159C19.824 5.50463 19.8289 5.49855 19.835 5.49383C19.8411 5.48911 19.8483 5.48588 19.8559 5.4844H20.4156C20.4222 5.48418 20.4288 5.48531 20.4349 5.48772C20.441 5.49013 20.4466 5.49378 20.4512 5.49843C20.4559 5.50308 20.4595 5.50863 20.4619 5.51475C20.4643 5.52087 20.4654 5.52741 20.4652 5.53398V6.58639H21.3049C21.3181 6.58639 21.3307 6.59162 21.34 6.60092C21.3493 6.61021 21.3545 6.62283 21.3545 6.63598V7.49006C21.3545 7.4965 21.3532 7.50287 21.3507 7.5088C21.3482 7.51473 21.3445 7.52009 21.3399 7.52457C21.3353 7.52904 21.3298 7.53254 21.3238 7.53486C21.3178 7.53717 21.3114 7.53825 21.3049 7.53804H20.4652V9.27499C20.4652 9.45573 20.5676 9.56609 20.8187 9.56609H21.2985C21.3117 9.56609 21.3243 9.57131 21.3336 9.58061C21.3429 9.58991 21.3481 9.60252 21.3481 9.61567C21.3481 9.62846 21.3481 10.217 21.3481 10.3658C21.3479 10.3758 21.3447 10.3855 21.3391 10.3938C21.3334 10.402 21.3254 10.4084 21.3161 10.4122C21.0653 10.5277 20.7925 10.5877 20.5164 10.5881C19.6799 10.5881 19.336 10.0923 19.336 9.39335Z" fill="#0A2C07"></path><path d="M35.5939 9.39389V7.53058H35.114C35.1009 7.53058 35.0883 7.52536 35.079 7.51606C35.0697 7.50676 35.0645 7.49415 35.0645 7.481V6.81245C35.0646 6.80219 35.0679 6.79222 35.0739 6.78392C35.0799 6.77561 35.0883 6.76937 35.098 6.76607L35.7378 6.57893L36.0785 5.51213C36.0818 5.50242 36.088 5.49398 36.0963 5.48796C36.1046 5.48195 36.1146 5.47866 36.1249 5.47854H36.6847C36.6912 5.47832 36.6978 5.47945 36.7039 5.48186C36.71 5.48428 36.7156 5.48792 36.7202 5.49257C36.7249 5.49722 36.7285 5.50277 36.7309 5.50889C36.7333 5.51501 36.7345 5.52155 36.7342 5.52812V6.58053H37.5739C37.5871 6.58053 37.5997 6.58576 37.609 6.59506C37.6183 6.60435 37.6235 6.61697 37.6235 6.63012V7.4842C37.6235 7.49064 37.6222 7.49701 37.6197 7.50294C37.6172 7.50887 37.6135 7.51423 37.6089 7.51871C37.6043 7.52318 37.5988 7.52668 37.5928 7.529C37.5868 7.53131 37.5804 7.5324 37.5739 7.53218H36.7342V9.27553C36.7342 9.45627 36.8366 9.56663 37.0877 9.56663H37.5675C37.5807 9.56663 37.5933 9.57185 37.6026 9.58115C37.6119 9.59045 37.6171 9.60306 37.6171 9.61621C37.6171 9.629 37.6171 10.2176 37.6171 10.3663C37.6169 10.3763 37.6138 10.3861 37.6081 10.3943C37.6024 10.4026 37.5944 10.409 37.5851 10.4127C37.3343 10.5282 37.0615 10.5882 36.7854 10.5886C35.9377 10.5886 35.5939 10.0928 35.5939 9.39389Z" fill="#0A2C07"></path><path d="M22.0449 10.46V6.62147C22.0449 6.61496 22.0462 6.60851 22.0487 6.6025C22.0512 6.59648 22.0548 6.59102 22.0594 6.58641C22.064 6.58181 22.0695 6.57816 22.0755 6.57566C22.0815 6.57317 22.088 6.57189 22.0945 6.57189H23.0318C23.042 6.572 23.052 6.57529 23.0603 6.58131C23.0686 6.58733 23.0748 6.59577 23.0781 6.60548L23.1869 6.99573H23.2029C23.3412 6.82943 23.5161 6.6974 23.714 6.61C23.9118 6.52259 24.1272 6.48218 24.3433 6.49192C24.9015 6.49192 25.1702 6.74303 25.3205 7.13168H25.3525C25.483 6.92543 25.6659 6.75753 25.8826 6.64513C26.0993 6.53273 26.3419 6.47986 26.5856 6.49192C27.4029 6.49192 27.6652 7.02612 27.6652 7.73466V10.4536C27.6652 10.4668 27.66 10.4794 27.6507 10.4887C27.6414 10.498 27.6288 10.5032 27.6157 10.5032H26.5744C26.5613 10.5032 26.5487 10.498 26.5394 10.4887C26.5301 10.4794 26.5249 10.4668 26.5249 10.4536V7.85941C26.5249 7.55233 26.2354 7.43397 26.0306 7.43397C25.7939 7.43397 25.4421 7.58431 25.4261 7.92979V10.46C25.4263 10.4666 25.4252 10.4732 25.4228 10.4793C25.4203 10.4854 25.4167 10.491 25.412 10.4956C25.4074 10.5003 25.4018 10.5039 25.3957 10.5063C25.3896 10.5087 25.3831 10.5099 25.3765 10.5096H24.3321C24.3192 10.5092 24.307 10.5038 24.298 10.4946C24.2891 10.4853 24.2841 10.4729 24.2841 10.46V7.85941C24.2841 7.55233 23.977 7.43397 23.7531 7.43397C23.6063 7.43304 23.465 7.48929 23.359 7.5908C23.253 7.69231 23.1907 7.83111 23.1853 7.97777V10.46C23.1853 10.4729 23.1803 10.4853 23.1713 10.4946C23.1624 10.5038 23.1502 10.5092 23.1373 10.5096H22.0961C22.0895 10.5098 22.0828 10.5087 22.0766 10.5063C22.0704 10.5039 22.0648 10.5003 22.06 10.4957C22.0552 10.4911 22.0514 10.4855 22.0488 10.4794C22.0463 10.4733 22.0449 10.4667 22.0449 10.46Z" fill="#0A2C07"></path><path d="M28.3521 7.44205V6.72872C28.3526 6.71743 28.3567 6.7066 28.364 6.69792C28.3712 6.68924 28.3811 6.6832 28.3921 6.68073C28.8917 6.57222 29.4005 6.5117 29.9116 6.5C30.9176 6.5 31.511 6.74311 31.511 7.82911V10.4617C31.511 10.4749 31.5057 10.4875 31.4964 10.4968C31.4871 10.5061 31.4745 10.5113 31.4614 10.5113H30.4681C30.4574 10.5113 30.447 10.5076 30.4386 10.5009C30.4302 10.4943 30.4243 10.485 30.4218 10.4745L30.3146 10.0859H30.3594C30.0763 10.4793 29.7004 10.5897 29.2398 10.5897C28.5009 10.5897 28.1074 10.0155 28.1074 9.33895C28.1074 8.31693 28.8543 8.1122 29.4125 8.1122H30.3722V7.8531C30.3722 7.53322 30.1323 7.46124 29.2206 7.46124C28.8352 7.46124 28.4209 7.49163 28.4033 7.49163C28.39 7.49164 28.3772 7.48647 28.3677 7.47721C28.3581 7.46796 28.3525 7.45535 28.3521 7.44205ZM30.3706 8.81114H29.7468C29.4157 8.81114 29.2014 8.9375 29.2014 9.29097C29.2014 9.67162 29.4749 9.75799 29.7372 9.75799C29.8224 9.76261 29.9077 9.74922 29.9874 9.7187C30.0671 9.68818 30.1395 9.64122 30.1999 9.58087C30.2602 9.52051 30.3072 9.44812 30.3377 9.36841C30.3682 9.2887 30.3816 9.20346 30.377 9.11823V8.79835L30.3706 8.81114Z" fill="#0A2C07"></path><path d="M32.1719 10.459V6.62044C32.1719 6.60756 32.1769 6.59519 32.1858 6.58593C32.1948 6.57668 32.207 6.57127 32.2199 6.57086H33.1475C33.159 6.5707 33.1701 6.57464 33.1789 6.58198C33.1877 6.58931 33.1936 6.59955 33.1955 6.61084L33.3059 7.20742H33.3219C33.4379 6.98732 33.6129 6.80386 33.8273 6.67759C34.0417 6.55132 34.287 6.48723 34.5358 6.49249C34.549 6.49249 34.5616 6.49771 34.5709 6.50701C34.5802 6.51631 34.5854 6.52892 34.5854 6.54207V7.61047C34.5854 7.62362 34.5802 7.63623 34.5709 7.64553C34.5616 7.65483 34.549 7.66005 34.5358 7.66005H34.2703C33.5554 7.66005 33.3107 7.94635 33.3107 8.29982V10.4526C33.3107 10.4655 33.3057 10.4779 33.2967 10.4871C33.2877 10.4964 33.2755 10.5018 33.2627 10.5022H32.2247C32.212 10.5031 32.1995 10.4992 32.1897 10.4911C32.1798 10.4831 32.1735 10.4716 32.1719 10.459Z" fill="#0A2C07"></path><path d="M14.9102 8.54404C14.9102 7.29331 15.398 6.5 16.7815 6.5C18.1649 6.5 18.6608 7.2997 18.6608 8.54404C18.6608 9.78838 18.1729 10.5881 16.7815 10.5881C15.39 10.5881 14.9102 9.80278 14.9102 8.54404ZM16.1385 8.54404C16.1385 9.22059 16.2377 9.63484 16.7783 9.63484C17.3189 9.63484 17.4292 9.22059 17.4292 8.54404C17.4292 7.86749 17.3285 7.45964 16.7783 7.45964C16.2281 7.45964 16.1385 7.86749 16.1385 8.54404Z" fill="#0A2C07"></path><path d="M8.91398 8.15426C8.96836 7.08426 8.59409 5.33451 7.70482 3.90304C7.68083 3.86625 7.64085 3.88065 7.64884 3.91903C7.70802 4.13655 7.72242 4.53161 7.37694 4.50761C6.76277 4.46603 7.39774 3.15132 6.04944 2.23966C6.04442 2.23491 6.03787 2.23213 6.03097 2.23182C6.02408 2.2315 6.0173 2.23367 6.01187 2.23794C6.00644 2.2422 6.00273 2.24827 6.0014 2.25505C6.00008 2.26182 6.00123 2.26885 6.00465 2.27484C6.09742 2.45078 6.1518 2.99937 5.93908 3.1865C5.76794 3.33685 5.45925 3.29686 5.15057 2.80265C4.94527 2.46174 4.83934 2.07024 4.84471 1.67233C4.85008 1.27442 4.96654 0.885925 5.18096 0.550681C5.20655 0.509096 5.17136 0.493103 5.14257 0.502699C3.28726 1.11527 2.91619 3.30326 2.52114 4.09977C2.45556 4.23412 2.39799 4.30289 2.28443 4.29649C1.94695 4.2741 2.19006 3.55277 2.30682 3.30166C2.30937 3.29557 2.30975 3.28878 2.30789 3.28244C2.30603 3.27611 2.30204 3.2706 2.29661 3.26685C2.29117 3.2631 2.28461 3.26133 2.27802 3.26185C2.27143 3.26236 2.26523 3.26513 2.26044 3.26967C1.17754 4.45973 0.484891 5.95276 0.275571 7.54809C0.275571 7.5113 0.259577 7.67924 0.24998 7.80239C0.24998 7.85038 0.246781 7.89889 0.240384 7.94794C0.240384 8.00552 0.240384 8.0631 0.240384 8.12227C0.230839 9.27374 0.679103 10.3818 1.48656 11.2028C2.29402 12.0237 3.39453 12.4903 4.54599 12.4999C5.69745 12.5094 6.80555 12.0611 7.6265 11.2537C8.44746 10.4462 8.91403 9.34571 8.92357 8.19425C8.91558 8.17985 8.91398 8.16706 8.91398 8.15426ZM4.55719 10.1711C4.15866 10.1689 3.76976 10.0484 3.43973 9.82505C3.10969 9.60166 2.85337 9.28536 2.70321 8.9162C2.55305 8.54704 2.51581 8.14162 2.5962 7.75129C2.67659 7.36095 2.87101 7.00324 3.15482 6.72347C3.43864 6.44369 3.79909 6.25442 4.19054 6.17962C4.58199 6.10483 4.98683 6.14787 5.3538 6.3033C5.72077 6.45873 6.03337 6.71955 6.25201 7.05275C6.47066 7.38595 6.58551 7.77654 6.58204 8.17505C6.57739 8.708 6.36165 9.21736 5.9821 9.59152C5.60255 9.96567 5.09014 10.1741 4.55719 10.1711Z" fill="#0A2C07"></path><path d="M50.3379 8.57034L48.7324 6.96488C48.6737 6.90621 48.6044 6.89555 48.5671 6.89555C48.5297 6.89555 48.4604 6.90621 48.4017 6.96488L46.7909 8.57568C46.6096 8.75702 46.3269 9.05038 45.3828 9.05038L47.3616 11.0239C47.6617 11.3235 48.0684 11.4918 48.4924 11.4918C48.9164 11.4918 49.3231 11.3235 49.6231 11.0239L51.6073 9.04504C51.1219 9.04504 50.7166 8.94904 50.3379 8.57034ZM46.7909 3.7433L48.4017 5.35409C48.4444 5.39676 48.5084 5.42343 48.5671 5.42343C48.6257 5.42343 48.6897 5.39676 48.7324 5.35409L50.3272 3.7593C50.7059 3.3646 51.1379 3.27393 51.6233 3.27393L49.6391 1.29511C49.3391 0.995459 48.9324 0.827148 48.5084 0.827148C48.0844 0.827148 47.6777 0.995459 47.3776 1.29511L45.3988 3.2686C46.3376 3.2686 46.6256 3.57795 46.7909 3.7433Z" fill="#0A2C07"></path><path d="M53.3574 5.01297L52.1573 3.80754H51.4853C51.1972 3.80754 50.9092 3.92488 50.7119 4.1329L49.1117 5.73302C48.9624 5.88237 48.765 5.95704 48.5677 5.95704C48.3645 5.95418 48.17 5.87409 48.0237 5.73302L46.4129 4.1169C46.2102 3.91422 45.9328 3.79688 45.6395 3.79688H44.8554L43.634 5.02364C43.3343 5.32366 43.166 5.73036 43.166 6.15439C43.166 6.57842 43.3343 6.98512 43.634 7.28514L44.8554 8.51191H45.6448C45.9328 8.51191 46.2102 8.39456 46.4182 8.19188L48.029 6.58109C48.1783 6.43174 48.3757 6.35707 48.573 6.35707C48.7704 6.35707 48.9677 6.43174 49.1171 6.58109L50.7225 8.18655C50.9252 8.38923 51.2026 8.50657 51.4959 8.50657H52.168L53.3681 7.30115C53.669 6.99572 53.8368 6.58361 53.8348 6.15486C53.8328 5.72611 53.6612 5.31557 53.3574 5.01297Z" fill="#0A2C07"></path><path d="M79.68 9.8912L79.4745 8.86344H77.1778L76.8124 9.88389L74.9715 9.88754C75.8479 7.78009 76.7261 5.67342 77.6063 3.56754C77.7561 3.21034 78.0219 3.02854 78.4138 3.03037C78.7135 3.03311 79.2022 3.03311 79.881 3.03128L81.3043 9.88846L79.68 9.8912ZM77.6949 7.45565H79.1748L78.6221 4.87941L77.6949 7.45565ZM65.8286 3.02945L67.6795 3.03128L64.8182 9.89211L62.9445 9.89028C62.4734 8.07807 62.0081 6.26434 61.5486 4.44913C61.4573 4.08736 61.2764 3.8343 60.9283 3.71462C60.4142 3.54235 59.8977 3.37728 59.3789 3.21948L59.3789 3.0322H62.3361C62.8477 3.0322 63.1464 3.27977 63.2424 3.78771C63.3392 4.29656 63.5822 5.59199 63.9732 7.67399L65.8286 3.02945ZM70.2229 3.03128L68.7593 9.89028L66.998 9.88846L68.4597 3.02945L70.2229 3.03128ZM73.7949 2.9043C74.322 2.9043 74.9862 3.06874 75.368 3.21948L75.0592 4.64189C74.7139 4.50303 74.1457 4.31575 73.6679 4.32214C72.9736 4.33402 72.5442 4.62544 72.5442 4.90499C72.5442 5.35994 73.2897 5.58925 74.0571 6.08622C74.9332 6.65263 75.0483 7.16148 75.0373 7.71419C75.0254 8.86162 74.0571 9.99352 72.0144 9.99352C71.0825 9.97981 70.7463 9.90125 69.9863 9.63175L70.3078 8.14721C71.0816 8.47153 71.4096 8.57476 72.071 8.57476C72.6767 8.57476 73.1965 8.32992 73.2011 7.90329C73.2047 7.59999 73.0184 7.44925 72.3387 7.07469C71.659 6.69922 70.7052 6.17941 70.718 5.13612C70.7335 3.8005 71.9988 2.9043 73.7958 2.9043H73.7949Z" fill="#0A2C07"></path></svg>