<svg xmlns="http://www.w3.org/2000/svg" width="379" height="26" viewBox="0 0 379 26" fill="none"><rect x="0.5" y="0.5" width="72" height="25" rx="12.5" fill="#1D2C34" fill-opacity="0.2"></rect><rect x="0.5" y="0.5" width="72" height="25" rx="12.5" stroke="#F5BC95"></rect><circle cx="13" cy="13" r="3" fill="#F5E7A2"></circle><path d="M22.792 17V8.72H26.008C28.636 8.72 29.8 10.124 29.8 12.86C29.8 15.596 28.636 17 26.008 17H22.792ZM24.592 15.56H25.924C27.328 15.56 27.916 14.624 27.916 12.86C27.916 11.084 27.328 10.16 25.924 10.16H24.592V15.56ZM33.7635 17.12C31.8435 17.12 30.8115 15.968 30.8115 13.988C30.8115 11.96 31.9515 10.772 33.8595 10.772C35.7075 10.772 36.6795 11.864 36.6795 13.856V14.228H32.5395C32.5995 15.356 33.0315 15.884 33.8475 15.884C34.5315 15.884 34.9035 15.548 35.0355 15.008H36.6555C36.4755 16.268 35.4795 17.12 33.7635 17.12ZM32.5755 13.244H34.9995C34.8915 12.356 34.5075 11.924 33.8115 11.924C33.1155 11.924 32.7075 12.344 32.5755 13.244ZM40.3083 17.12C38.5683 17.12 37.6683 16.496 37.5363 15.2H39.1323C39.2403 15.728 39.6483 16.052 40.3803 16.052C41.0283 16.052 41.4603 15.8 41.4603 15.332C41.4603 14.948 41.1723 14.732 40.4883 14.6L39.3363 14.396C38.2083 14.168 37.6203 13.556 37.6203 12.728C37.6203 11.552 38.6043 10.772 40.3323 10.772C41.9883 10.772 42.9003 11.456 42.9963 12.656H41.4003C41.3283 12.152 40.9443 11.852 40.2243 11.852C39.5763 11.852 39.1923 12.116 39.1923 12.488C39.1923 12.836 39.5163 13.028 40.1763 13.16L41.2923 13.352C42.6003 13.616 43.1523 14.252 43.1523 15.068C43.1403 16.352 42.0123 17.12 40.3083 17.12ZM44.2468 17V10.904H45.9508V17H44.2468ZM44.1988 9.992V8.36H45.9748V9.992H44.1988ZM50.0528 19.328C48.2528 19.328 47.2568 18.536 47.1488 17.144H48.8408C48.9128 17.756 49.3208 18.152 50.0648 18.152C50.8928 18.152 51.3248 17.672 51.3608 16.724L51.7208 16.136L51.8528 15.62H51.7088C51.3968 16.244 50.7128 16.808 49.5848 16.808C47.9768 16.808 47.0888 15.668 47.0888 13.772C47.0888 11.924 47.9768 10.772 49.5848 10.772C50.7128 10.772 51.3848 11.324 51.6968 11.936H51.8528L51.7208 11.372V10.904H53.1368V16.604C53.1368 18.296 52.1648 19.328 50.0528 19.328ZM48.8288 13.784C48.8288 14.936 49.2848 15.608 50.1128 15.608C50.9288 15.608 51.3848 14.972 51.3848 13.784C51.3848 12.632 50.9288 11.972 50.1128 11.972C49.2608 11.972 48.8288 12.68 48.8288 13.784ZM54.3701 17V10.904H55.6901V11.372L55.5701 11.948H55.7141C56.0261 11.336 56.7101 10.772 57.9101 10.772C59.3021 10.772 60.0581 11.54 60.0581 12.86V17H58.3661V13.22C58.3661 12.488 58.0181 12.104 57.3461 12.104C56.5781 12.104 56.0621 12.596 56.0621 13.448V17H54.3701Z" fill="#F5F8FA"></path><rect x="81.5" y="0.5" width="105" height="25" rx="12.5" fill="#1D2C34" fill-opacity="0.2"></rect><rect x="81.5" y="0.5" width="105" height="25" rx="12.5" stroke="#82CDF0"></rect><circle cx="94" cy="13" r="3" fill="#82CDF0"></circle><path d="M103.792 17V8.72H106.564L108.124 14.216L108.22 14.864H108.46L108.544 14.216L110.116 8.72H112.792V17H111.184L111.28 11.36V10.664H111.04L110.932 11.288L109.228 17H107.392L105.688 11.288L105.592 10.664H105.34V11.36L105.436 17H103.792ZM116.066 17.12C114.698 17.12 113.966 16.448 113.966 15.428C113.966 14.396 114.59 13.748 116.234 13.556L117.986 13.352V13.04C117.986 12.32 117.59 11.936 116.858 11.936C116.126 11.936 115.742 12.308 115.73 12.98H114.086C114.098 11.54 115.13 10.772 116.894 10.772C118.778 10.772 119.678 11.588 119.678 13.112V17H118.358V16.52L118.49 15.944H118.31C118.01 16.544 117.326 17.12 116.066 17.12ZM115.634 15.248C115.634 15.716 115.958 15.968 116.522 15.968C117.362 15.968 117.986 15.452 117.986 14.66V14.336L116.558 14.492C115.886 14.576 115.634 14.84 115.634 15.248ZM120.897 17V10.904H122.217V11.372L122.097 11.948H122.241C122.553 11.336 123.237 10.772 124.437 10.772C125.829 10.772 126.585 11.54 126.585 12.86V17H124.893V13.22C124.893 12.488 124.545 12.104 123.873 12.104C123.105 12.104 122.589 12.596 122.589 13.448V17H120.897ZM127.884 17V10.904H129.588V17H127.884ZM127.836 9.992V8.36H129.612V9.992H127.836ZM130.894 19.208V10.904H132.226V11.396L132.094 11.972H132.25C132.562 11.348 133.234 10.784 134.362 10.784C135.994 10.784 136.87 11.948 136.87 13.952C136.87 15.968 135.982 17.132 134.35 17.132C133.234 17.132 132.562 16.568 132.25 15.932H132.094L132.226 16.436L132.598 16.916V19.208H130.894ZM132.562 13.964C132.562 15.212 133.03 15.848 133.846 15.848C134.698 15.848 135.142 15.164 135.142 13.964C135.142 12.752 134.686 12.068 133.846 12.068C133.03 12.068 132.562 12.728 132.562 13.964ZM140.06 17.12C138.692 17.12 137.96 16.352 137.96 15.02V10.904H139.652V14.684C139.652 15.404 139.988 15.8 140.636 15.8C141.356 15.8 141.86 15.308 141.86 14.456V10.904H143.564V17H142.232V16.532L142.352 15.956H142.208C141.908 16.556 141.224 17.12 140.06 17.12ZM144.9 17V8.36H146.592V17H144.9ZM149.816 17.12C148.448 17.12 147.716 16.448 147.716 15.428C147.716 14.396 148.34 13.748 149.984 13.556L151.736 13.352V13.04C151.736 12.32 151.34 11.936 150.608 11.936C149.876 11.936 149.492 12.308 149.48 12.98H147.836C147.848 11.54 148.88 10.772 150.644 10.772C152.528 10.772 153.428 11.588 153.428 13.112V17H152.108V16.52L152.24 15.944H152.06C151.76 16.544 151.076 17.12 149.816 17.12ZM149.384 15.248C149.384 15.716 149.708 15.968 150.272 15.968C151.112 15.968 151.736 15.452 151.736 14.66V14.336L150.308 14.492C149.636 14.576 149.384 14.84 149.384 15.248ZM157.335 19.796C156.867 19.796 156.423 19.724 156.147 19.64V18.932C156.435 19.04 156.891 19.112 157.263 19.112C157.827 19.112 158.091 18.944 158.091 18.668C158.091 18.44 157.887 18.32 157.419 18.32H156.423V18.116L157.131 17.108C155.427 16.952 154.479 15.8 154.479 13.952C154.479 11.948 155.595 10.784 157.575 10.784C159.279 10.784 160.395 11.648 160.503 13.16H158.775C158.643 12.416 158.235 12.02 157.551 12.02C156.663 12.02 156.207 12.68 156.207 13.952C156.207 15.212 156.663 15.872 157.551 15.872C158.223 15.872 158.631 15.476 158.775 14.744H160.503C160.407 16.124 159.471 17 157.947 17.12L157.527 17.684H157.719C158.631 17.684 159.075 18.056 159.075 18.644C159.075 19.376 158.403 19.796 157.335 19.796ZM163.351 17.12C161.983 17.12 161.251 16.448 161.251 15.428C161.251 14.396 161.875 13.748 163.519 13.556L165.271 13.352V13.04C165.271 12.32 164.875 11.936 164.143 11.936C163.411 11.936 163.027 12.308 163.015 12.98H161.371C161.383 11.54 162.415 10.772 164.179 10.772C166.063 10.772 166.963 11.588 166.963 13.112V17H165.643V16.52L165.775 15.944H165.595C165.295 16.544 164.611 17.12 163.351 17.12ZM162.211 10.244C162.115 9.464 162.487 8.732 163.399 8.732C164.143 8.732 164.419 9.308 164.851 9.308C165.127 9.308 165.235 9.08 165.199 8.78H166.039C166.135 9.584 165.799 10.292 164.935 10.292C164.131 10.292 163.819 9.716 163.387 9.716C163.087 9.716 162.979 9.956 163.003 10.244H162.211ZM162.919 15.248C162.919 15.716 163.243 15.968 163.807 15.968C164.647 15.968 165.271 15.452 165.271 14.66V14.336L163.843 14.492C163.171 14.576 162.919 14.84 162.919 15.248ZM171.063 17.12C169.119 17.12 168.015 15.944 168.015 13.952C168.015 11.948 169.119 10.772 171.063 10.772C173.007 10.772 174.099 11.948 174.099 13.952C174.099 15.944 173.019 17.12 171.063 17.12ZM169.707 13.952C169.707 15.164 170.187 15.848 171.063 15.848C171.963 15.848 172.407 15.152 172.407 13.952C172.407 12.728 171.963 12.044 171.063 12.044C170.175 12.044 169.707 12.716 169.707 13.952Z" fill="#F5F8FA"></path><rect x="195.5" y="0.5" width="86" height="25" rx="12.5" fill="#1D2C34" fill-opacity="0.2"></rect><rect x="195.5" y="0.5" width="86" height="25" rx="12.5" stroke="#AAADF0"></rect><circle cx="208" cy="13" r="3" fill="#AAADF0"></circle><path d="M217.792 17V8.72H219.592L222.736 13.532L223 14.288H223.264L223.156 13.472L223.108 8.72H224.716V17H222.928L219.808 12.176L219.532 11.432H219.28L219.376 12.248L219.412 17H217.792ZM228.916 17.12C226.996 17.12 225.964 15.968 225.964 13.988C225.964 11.96 227.104 10.772 229.012 10.772C230.86 10.772 231.832 11.864 231.832 13.856V14.228H227.692C227.752 15.356 228.184 15.884 229 15.884C229.684 15.884 230.056 15.548 230.188 15.008H231.808C231.628 16.268 230.632 17.12 228.916 17.12ZM227.728 13.244H230.152C230.044 12.356 229.66 11.924 228.964 11.924C228.268 11.924 227.86 12.344 227.728 13.244ZM235.725 19.328C233.925 19.328 232.929 18.536 232.821 17.144H234.513C234.585 17.756 234.993 18.152 235.737 18.152C236.565 18.152 236.997 17.672 237.033 16.724L237.393 16.136L237.525 15.62H237.381C237.069 16.244 236.385 16.808 235.257 16.808C233.649 16.808 232.761 15.668 232.761 13.772C232.761 11.924 233.649 10.772 235.257 10.772C236.385 10.772 237.057 11.324 237.369 11.936H237.525L237.393 11.372V10.904H238.809V16.604C238.809 18.296 237.837 19.328 235.725 19.328ZM234.501 13.784C234.501 14.936 234.957 15.608 235.785 15.608C236.601 15.608 237.057 14.972 237.057 13.784C237.057 12.632 236.601 11.972 235.785 11.972C234.933 11.972 234.501 12.68 234.501 13.784ZM242.922 17.12C240.978 17.12 239.874 15.944 239.874 13.952C239.874 11.948 240.978 10.772 242.922 10.772C244.866 10.772 245.958 11.948 245.958 13.952C245.958 15.944 244.878 17.12 242.922 17.12ZM241.566 13.952C241.566 15.164 242.046 15.848 242.922 15.848C243.822 15.848 244.266 15.152 244.266 13.952C244.266 12.728 243.822 12.044 242.922 12.044C242.034 12.044 241.566 12.716 241.566 13.952ZM241.842 10.256V10.016L243.186 8.36H244.686V8.588L242.958 10.256H241.842ZM249.954 17.132C247.974 17.132 246.87 15.956 246.87 13.952C246.87 11.948 247.986 10.784 249.966 10.784C251.67 10.784 252.786 11.648 252.894 13.16H251.166C251.034 12.416 250.626 12.02 249.942 12.02C249.054 12.02 248.598 12.68 248.598 13.952C248.598 15.212 249.054 15.872 249.942 15.872C250.614 15.872 251.022 15.476 251.166 14.744H252.894C252.786 16.232 251.706 17.132 249.954 17.132ZM253.954 17V10.904H255.658V17H253.954ZM253.906 9.992V8.36H255.682V9.992H253.906ZM259.844 17.12C257.9 17.12 256.796 15.944 256.796 13.952C256.796 11.948 257.9 10.772 259.844 10.772C261.788 10.772 262.88 11.948 262.88 13.952C262.88 15.944 261.8 17.12 259.844 17.12ZM258.488 13.952C258.488 15.164 258.968 15.848 259.844 15.848C260.744 15.848 261.188 15.152 261.188 13.952C261.188 12.728 260.744 12.044 259.844 12.044C258.956 12.044 258.488 12.716 258.488 13.952ZM266.492 17.12C264.752 17.12 263.852 16.496 263.72 15.2H265.316C265.424 15.728 265.832 16.052 266.564 16.052C267.212 16.052 267.644 15.8 267.644 15.332C267.644 14.948 267.356 14.732 266.672 14.6L265.52 14.396C264.392 14.168 263.804 13.556 263.804 12.728C263.804 11.552 264.788 10.772 266.516 10.772C268.172 10.772 269.084 11.456 269.18 12.656H267.584C267.512 12.152 267.128 11.852 266.408 11.852C265.76 11.852 265.376 12.116 265.376 12.488C265.376 12.836 265.7 13.028 266.36 13.16L267.476 13.352C268.784 13.616 269.336 14.252 269.336 15.068C269.324 16.352 268.196 17.12 266.492 17.12Z" fill="#F5F8FA"></path><rect x="290.5" y="0.5" width="80" height="25" rx="12.5" fill="#1D2C34" fill-opacity="0.2"></rect><rect x="290.5" y="0.5" width="80" height="25" rx="12.5" stroke="#B5F5A2"></rect><circle cx="303" cy="13" r="3" fill="#B5F5A2"></circle><path d="M316.308 17.132C313.884 17.132 312.552 15.596 312.552 12.872C312.552 10.124 313.896 8.588 316.308 8.588C318.384 8.588 319.668 9.716 319.812 11.756H317.916C317.76 10.688 317.196 10.112 316.284 10.112C315.108 10.112 314.448 11.048 314.448 12.872C314.448 14.684 315.108 15.608 316.284 15.608C317.196 15.608 317.772 15.02 317.928 13.964H319.812C319.656 15.992 318.42 17.132 316.308 17.132ZM322.804 17.12C321.436 17.12 320.704 16.448 320.704 15.428C320.704 14.396 321.328 13.748 322.972 13.556L324.724 13.352V13.04C324.724 12.32 324.328 11.936 323.596 11.936C322.864 11.936 322.48 12.308 322.468 12.98H320.824C320.836 11.54 321.868 10.772 323.632 10.772C325.516 10.772 326.416 11.588 326.416 13.112V17H325.096V16.52L325.228 15.944H325.048C324.748 16.544 324.064 17.12 322.804 17.12ZM322.372 15.248C322.372 15.716 322.696 15.968 323.26 15.968C324.1 15.968 324.724 15.452 324.724 14.66V14.336L323.296 14.492C322.624 14.576 322.372 14.84 322.372 15.248ZM327.636 17V10.904H328.968V11.36L328.836 12.104H328.992C329.22 11.36 329.844 10.772 330.852 10.772C331.152 10.772 331.452 10.82 331.668 10.916V12.5C331.428 12.428 331.152 12.368 330.864 12.368C329.916 12.368 329.328 13.004 329.328 14.084V17H327.636ZM332.511 17V10.904H333.843V11.36L333.711 12.104H333.867C334.095 11.36 334.719 10.772 335.727 10.772C336.027 10.772 336.327 10.82 336.543 10.916V12.5C336.303 12.428 336.027 12.368 335.739 12.368C334.791 12.368 334.203 13.004 334.203 14.084V17H332.511ZM340.076 17.12C338.156 17.12 337.124 15.968 337.124 13.988C337.124 11.96 338.264 10.772 340.172 10.772C342.02 10.772 342.992 11.864 342.992 13.856V14.228H338.852C338.912 15.356 339.344 15.884 340.16 15.884C340.844 15.884 341.216 15.548 341.348 15.008H342.968C342.788 16.268 341.792 17.12 340.076 17.12ZM338.888 13.244H341.312C341.204 12.356 340.82 11.924 340.124 11.924C339.428 11.924 339.02 12.344 338.888 13.244ZM344.161 17V10.904H345.865V17H344.161ZM344.113 9.992V8.36H345.889V9.992H344.113ZM347.171 17V10.904H348.503V11.36L348.371 12.104H348.527C348.755 11.36 349.379 10.772 350.387 10.772C350.687 10.772 350.987 10.82 351.203 10.916V12.5C350.963 12.428 350.687 12.368 350.399 12.368C349.451 12.368 348.863 13.004 348.863 14.084V17H347.171ZM353.871 17.12C352.503 17.12 351.771 16.448 351.771 15.428C351.771 14.396 352.395 13.748 354.039 13.556L355.791 13.352V13.04C355.791 12.32 355.395 11.936 354.663 11.936C353.931 11.936 353.547 12.308 353.535 12.98H351.891C351.903 11.54 352.935 10.772 354.699 10.772C356.583 10.772 357.483 11.588 357.483 13.112V17H356.163V16.52L356.295 15.944H356.115C355.815 16.544 355.131 17.12 353.871 17.12ZM353.439 15.248C353.439 15.716 353.763 15.968 354.327 15.968C355.167 15.968 355.791 15.452 355.791 14.66V14.336L354.363 14.492C353.691 14.576 353.439 14.84 353.439 15.248Z" fill="#F5F8FA"></path></svg>