<svg xmlns="http://www.w3.org/2000/svg" width="234" height="105" viewBox="0 0 234 105" fill="none"><path d="M23.3236 42.4614C10.4861 42.4614 2.22935 34.0916 2.22935 21.8196C2.22935 9.83037 10.7688 0.951558 23.4367 0.951558C33.3335 0.951558 40.4591 6.15443 42.7212 13.6194L32.4852 17.1257C31.0713 12.3752 28.2437 9.49105 23.267 9.49105C17.2724 9.49105 13.5965 13.9587 13.5965 21.763C13.5965 29.3411 17.2724 33.8654 23.267 33.8654C28.1306 33.8654 31.0713 30.9812 32.6548 26.2307L42.7778 29.9067C40.0633 37.4847 33.2769 42.4614 23.3236 42.4614ZM78.6584 41.5H48.0067V1.91296H78.6584V10.3393H58.469V17.3519H74.0776V25.2128H58.469V33.0736H78.6584V41.5ZM95.8054 41.5H85.23V1.91296H106.098C114.92 1.91296 119.954 5.98477 119.954 12.2056C119.954 20.4623 112.319 21.2541 106.946 21.3672V24.7603C114.298 24.8169 117.918 26.2873 119.331 32.8474L121.028 41.5H109.717L108.191 32.395C107.568 28.3797 105.928 26.9093 101.857 26.9093H95.8054V41.5ZM95.8054 10.2262V19.2747H103.666C106.777 19.2747 109.039 17.6912 109.039 14.6939C109.039 11.6966 106.833 10.2262 103.666 10.2262H95.8054ZM146.23 41.5H135.485V10.0566H122.704V1.91296H159.067V10.0566H146.23V41.5ZM174.453 41.5H163.708V1.91296H174.453V41.5ZM14.8972 103.5H4.32181V63.913H35.3694V72.4524H14.8972V81.2747H31.4672V89.5314H14.8972V103.5ZM51.6274 103.5H40.8824V63.913H51.6274V103.5ZM78.772 104.461C65.9344 104.461 57.6777 96.0916 57.6777 83.8196C57.6777 71.8304 66.2172 62.9516 78.8851 62.9516C88.7818 62.9516 95.9075 68.1544 98.1696 75.6194L87.9335 79.1257C86.5197 74.3752 83.6921 71.491 78.7154 71.491C72.7208 71.491 69.0449 75.9587 69.0449 83.763C69.0449 91.3411 72.7208 95.8654 78.7154 95.8654C83.579 95.8654 86.5197 92.9812 88.1032 88.2307L98.2262 91.9067C95.5116 99.4847 88.7253 104.461 78.772 104.461ZM141.752 103.5H130.159L127.501 95.2433H112.684L109.913 103.5H98.998L113.306 63.913H127.444L141.752 103.5ZM117.321 81.2181L115.342 87.0997H124.899L123.033 81.2181C122.015 77.9381 121.959 73.9228 122.015 69.342H118.452C118.509 73.9228 118.339 77.9381 117.321 81.2181ZM162.214 103.5H145.87V63.913H161.931C174.033 63.913 183.195 71.1517 183.195 83.4803C183.195 95.9219 173.977 103.5 162.214 103.5ZM156.502 72.3393V95.0171H161.478C168.548 95.0171 172.11 91.0018 172.11 83.5934C172.11 76.8636 168.548 72.3393 161.705 72.3393H156.502ZM208.959 104.461C194.481 104.461 187.243 95.3564 187.243 83.8761C187.243 72.3959 194.595 62.9516 208.959 62.9516C223.38 62.9516 230.732 72.3959 230.732 83.8761C230.732 95.3564 223.493 104.461 208.959 104.461ZM209.016 95.9219C215.745 95.9219 219.421 90.9453 219.421 83.8196C219.421 76.6374 215.745 71.491 209.016 71.491C202.286 71.491 198.553 76.6374 198.553 83.8196C198.553 90.9453 202.286 95.9219 209.016 95.9219Z" fill="#052E2B"></path><path d="M202.09 16.4399H218.01V50.5316C218.01 51.3979 217.065 51.9329 216.323 51.4873L210.623 48.0678C210.271 47.8561 209.83 47.8561 209.477 48.0678L203.778 51.4873C203.035 51.9329 202.09 51.3979 202.09 50.5316V16.4399Z" fill="#10917E"></path><path d="M208.597 0.844931C209.196 -0.281644 210.81 -0.281644 211.409 0.844931L211.906 1.7796C212.403 2.71443 213.656 2.91303 214.418 2.17747L215.179 1.44204C216.097 0.55561 217.632 1.05446 217.853 2.31091L218.037 3.35332C218.22 4.39592 219.351 4.97226 220.303 4.50798L221.254 4.04378C222.401 3.48427 223.707 4.43314 223.529 5.69647L223.381 6.74459C223.234 7.7929 224.131 8.69057 225.18 8.54301L226.228 8.39548C227.491 8.21765 228.44 9.52366 227.881 10.6702L227.416 11.6214C226.952 12.5728 227.528 13.704 228.571 13.8876L229.613 14.0712C230.87 14.2924 231.369 15.8277 230.482 16.7453L229.747 17.5065C229.011 18.2679 229.21 19.5217 230.145 20.0185L231.079 20.5152C232.206 21.1139 232.206 22.7283 231.079 23.327L230.145 23.8237C229.21 24.3205 229.011 25.5744 229.747 26.3357L230.482 27.097C231.369 28.0145 230.87 29.5498 229.613 29.7711L228.571 29.9546C227.528 30.1382 226.952 31.2694 227.416 32.2208L227.881 33.172C228.44 34.3186 227.491 35.6246 226.228 35.4467L225.18 35.2992C224.131 35.1516 223.234 36.0493 223.381 37.0976L223.529 38.1457C223.707 39.4091 222.401 40.3579 221.254 39.7984L220.303 39.3342C219.351 38.8699 218.22 39.4463 218.037 40.4889L217.853 41.5313C217.632 42.7878 216.097 43.2866 215.179 42.4002L214.418 41.6647C213.656 40.9292 212.403 41.1278 211.906 42.0626L211.409 42.9973C210.81 44.1239 209.196 44.1239 208.597 42.9973L208.101 42.0626C207.604 41.1278 206.35 40.9292 205.589 41.6647L204.827 42.4002C203.91 43.2866 202.374 42.7878 202.153 41.5313L201.97 40.4889C201.786 39.4463 200.655 38.8699 199.704 39.3342L198.752 39.7984C197.606 40.3579 196.3 39.4091 196.478 38.1457L196.625 37.0976C196.773 36.0493 195.875 35.1516 194.827 35.2992L193.779 35.4467C192.515 35.6246 191.566 34.3186 192.126 33.172L192.59 32.2208C193.054 31.2694 192.478 30.1382 191.435 29.9546L190.393 29.7711C189.136 29.5498 188.638 28.0145 189.524 27.097L190.26 26.3357C190.995 25.5744 190.796 24.3205 189.862 23.8237L188.927 23.327C187.8 22.7283 187.8 21.1139 188.927 20.5152L189.862 20.0185C190.796 19.5217 190.995 18.2679 190.26 17.5065L189.524 16.7453C188.638 15.8277 189.136 14.2924 190.393 14.0712L191.435 13.8876C192.478 13.704 193.054 12.5728 192.59 11.6214L192.126 10.6702C191.566 9.52366 192.515 8.21765 193.779 8.39548L194.827 8.54301C195.875 8.69057 196.773 7.7929 196.625 6.74459L196.478 5.69647C196.3 4.43314 197.606 3.48427 198.752 4.04378L199.704 4.50798C200.655 4.97226 201.786 4.39592 201.97 3.35332L202.153 2.31091C202.374 1.05446 203.91 0.55561 204.827 1.44204L205.589 2.17747C206.35 2.91303 207.604 2.71443 208.101 1.7796L208.597 0.844931Z" fill="#61E7CA"></path><path d="M222.225 20.4395C222.275 20.863 222.303 21.293 222.309 21.7284L221.672 21.7366C221.673 21.7879 221.673 21.8392 221.673 21.8907C221.673 21.9421 221.673 21.9934 221.672 22.0447L222.309 22.0529C222.303 22.4883 222.275 22.9183 222.225 23.3418L221.593 23.2677C221.581 23.3693 221.568 23.4705 221.553 23.5713L222.184 23.6619C222.122 24.0918 222.038 24.5144 221.933 24.9288L221.316 24.7725C221.29 24.8717 221.264 24.9704 221.236 25.0686L221.849 25.2412C221.732 25.6582 221.593 26.0663 221.434 26.4642L220.843 26.228C220.805 26.3229 220.766 26.4171 220.726 26.5108L221.311 26.7624C221.14 27.1596 220.949 27.5461 220.738 27.9205L220.183 27.6088C220.133 27.6979 220.082 27.7863 220.03 27.8739L220.577 28.2001C220.356 28.5708 220.116 28.929 219.858 29.2733L219.348 28.8919C219.287 28.9738 219.225 29.0548 219.161 29.135L219.661 29.5295C219.394 29.8679 219.11 30.1919 218.809 30.5003L218.353 30.0559C218.282 30.129 218.21 30.2013 218.136 30.2726L218.581 30.7287C218.273 31.0291 217.948 31.3136 217.61 31.5807L217.216 31.0808C217.135 31.1441 217.054 31.2064 216.973 31.2676L217.354 31.7776C217.01 32.0351 216.651 32.275 216.281 32.4961L215.955 31.9491C215.867 32.0013 215.779 32.0525 215.689 32.1025L216.001 32.6578C215.627 32.8679 215.24 33.0591 214.843 33.23L214.591 32.645C214.498 32.6853 214.403 32.7244 214.309 32.7622L214.545 33.3537C214.147 33.5125 213.739 33.6513 213.322 33.7687L213.149 33.1557C213.051 33.1834 212.952 33.2098 212.853 33.2349L213.009 33.8522C212.595 33.9571 212.172 34.0411 211.743 34.1029L211.652 33.4725C211.551 33.487 211.45 33.5002 211.348 33.5121L211.422 34.1446C210.999 34.1942 210.569 34.2224 210.133 34.228L210.125 33.5913C210.074 33.5919 210.023 33.5922 209.971 33.5922C209.92 33.5922 209.868 33.5919 209.817 33.5913L209.809 34.228C209.374 34.2224 208.944 34.1942 208.52 34.1446L208.594 33.5121C208.493 33.5002 208.391 33.487 208.291 33.4725L208.2 34.1029C207.77 34.0411 207.347 33.9571 206.933 33.8522L207.089 33.2349C206.99 33.2098 206.891 33.1834 206.793 33.1557L206.621 33.7687C206.204 33.6513 205.796 33.5125 205.398 33.3537L205.634 32.7622C205.539 32.7244 205.445 32.6853 205.351 32.645L205.099 33.23C204.702 33.0591 204.316 32.8679 203.941 32.6578L204.253 32.1025C204.164 32.0525 204.076 32.0013 203.988 31.9491L203.662 32.4961C203.291 32.275 202.933 32.0351 202.589 31.7776L202.97 31.2676C202.888 31.2064 202.807 31.1441 202.727 31.0808L202.332 31.5807C201.994 31.3136 201.67 31.0291 201.362 30.7287L201.806 30.2726C201.733 30.2013 201.661 30.129 201.589 30.0559L201.133 30.5003C200.833 30.1919 200.548 29.8679 200.281 29.5295L200.781 29.135C200.718 29.0548 200.656 28.9738 200.594 28.8919L200.084 29.2733C199.827 28.929 199.587 28.5708 199.366 28.2001L199.913 27.8739C199.861 27.7863 199.809 27.6979 199.759 27.6088L199.204 27.9205C198.994 27.5461 198.803 27.1596 198.632 26.7624L199.217 26.5108C199.177 26.4171 199.138 26.3229 199.1 26.228L198.508 26.4642C198.349 26.0663 198.211 25.6582 198.093 25.2412L198.706 25.0686C198.679 24.9704 198.652 24.8717 198.627 24.7725L198.01 24.9288C197.905 24.5144 197.821 24.0918 197.759 23.6619L198.389 23.5713C198.375 23.4705 198.362 23.3693 198.35 23.2677L197.717 23.3418C197.668 22.9183 197.639 22.4883 197.634 22.0529L198.271 22.0447C198.27 21.9934 198.27 21.9421 198.27 21.8907C198.27 21.8392 198.27 21.7879 198.271 21.7367L197.634 21.7284C197.639 21.293 197.668 20.863 197.717 20.4395L198.35 20.5136C198.362 20.412 198.375 20.3108 198.389 20.21L197.759 20.1194C197.821 19.6896 197.905 19.2669 198.01 18.8525L198.627 19.0089C198.652 18.9096 198.679 18.8109 198.706 18.7127L198.093 18.5401C198.211 18.1231 198.349 17.715 198.508 17.3171L199.1 17.5533C199.138 17.4584 199.177 17.3642 199.217 17.2706L198.632 17.0189C198.803 16.6217 198.994 16.2352 199.204 15.8608L199.759 16.1725C199.809 16.0834 199.861 15.995 199.913 15.9074L199.366 15.5813C199.587 15.2105 199.827 14.8523 200.084 14.508L200.594 14.8894C200.656 14.8076 200.718 14.7265 200.781 14.6464L200.281 14.2518C200.548 13.9134 200.833 13.5894 201.133 13.281L201.589 13.7254C201.661 13.6523 201.733 13.58 201.806 13.5087L201.362 13.0526C201.67 12.7522 201.994 12.4677 202.332 12.2006L202.727 12.7005C202.807 12.6372 202.888 12.5749 202.97 12.5137L202.589 12.0037C202.933 11.7462 203.291 11.5063 203.662 11.2852L203.988 11.8322C204.076 11.78 204.164 11.7288 204.253 11.6788L203.941 11.1235C204.316 10.9134 204.702 10.7222 205.099 10.5513L205.351 11.1363C205.445 11.096 205.539 11.057 205.634 11.0191L205.398 10.4277C205.796 10.2688 206.204 10.13 206.621 10.0126L206.793 10.6256C206.891 10.598 206.99 10.5716 207.089 10.5464L206.933 9.92909C207.347 9.82418 207.77 9.74023 208.2 9.67843L208.291 10.3088C208.391 10.2943 208.493 10.2811 208.594 10.2692L208.52 9.63668C208.944 9.58707 209.374 9.5589 209.809 9.55329L209.817 10.1901C209.868 10.1894 209.92 10.1891 209.971 10.1891C210.023 10.1891 210.074 10.1894 210.125 10.1901L210.133 9.55329C210.569 9.5589 210.999 9.58707 211.422 9.63668L211.348 10.2692C211.45 10.2811 211.551 10.2943 211.652 10.3088L211.743 9.67843C212.172 9.74023 212.595 9.82418 213.009 9.92909L212.853 10.5464C212.952 10.5716 213.051 10.598 213.149 10.6256L213.322 10.0126C213.739 10.13 214.147 10.2688 214.545 10.4277L214.309 11.0191C214.403 11.0569 214.498 11.096 214.591 11.1363L214.843 10.5513C215.24 10.7222 215.627 10.9134 216.001 11.1235L215.689 11.6788C215.779 11.7288 215.867 11.78 215.955 11.8322L216.281 11.2852C216.651 11.5063 217.01 11.7462 217.354 12.0037L216.973 12.5137C217.054 12.5749 217.135 12.6372 217.216 12.7005L217.61 12.2006C217.948 12.4677 218.273 12.7522 218.581 13.0526L218.136 13.5087C218.21 13.58 218.282 13.6523 218.353 13.7254L218.809 13.281C219.11 13.5894 219.394 13.9134 219.661 14.2518L219.161 14.6464C219.225 14.7265 219.287 14.8076 219.348 14.8894L219.858 14.508C220.116 14.8523 220.356 15.2105 220.577 15.5812L220.03 15.9074C220.082 15.995 220.133 16.0834 220.183 16.1725L220.738 15.8608C220.949 16.2352 221.14 16.6217 221.311 17.0189L220.726 17.2706C220.766 17.3642 220.805 17.4584 220.843 17.5533L221.434 17.3171C221.593 17.715 221.732 18.1231 221.849 18.5401L221.236 18.7127C221.264 18.8109 221.29 18.9096 221.316 19.0089L221.933 18.8525C222.038 19.2669 222.122 19.6896 222.184 20.1194L221.553 20.21C221.568 20.3108 221.581 20.412 221.593 20.5136L222.225 20.4395Z" stroke="#052E2B" stroke-width="1.27364" stroke-dasharray="0.32 1.27"></path><path d="M226.48 21.9216C226.48 31.022 219.102 38.3994 210.002 38.3994C200.901 38.3994 193.524 31.022 193.524 21.9216C193.524 12.8212 200.901 5.44389 210.002 5.44389C219.102 5.44389 226.48 12.8212 226.48 21.9216Z" stroke="#052E2B" stroke-width="0.477616"></path><path d="M209.973 17.0347C211.753 17.0347 213.2 18.4618 213.242 20.2378H206.704C206.746 18.4618 208.193 17.0347 209.973 17.0347Z" fill="#052E2B"></path><path d="M205.436 26.9054H207.393L209.2 20.8339H209.05L205.436 26.9054Z" fill="#052E2B"></path><path d="M208.994 26.9054L209.898 20.8339H210.048L210.952 26.9054H208.994Z" fill="#052E2B"></path><path d="M212.553 26.9054H214.51L210.897 20.8339H210.746L212.553 26.9054Z" fill="#052E2B"></path></svg>