<svg xmlns="http://www.w3.org/2000/svg" width="267" height="390" viewBox="0 0 267 390" fill="none"><rect width="266.25" height="390" fill="#052E2B"></rect><path d="M166.861 197.898L157.293 209.727H176.43L166.861 197.898Z" fill="#F0FDF9"></path><path d="M234.535 196.52V235.2H196.75C201.26 231.81 204.547 226.79 206.384 220.298C207.359 216.859 210.019 214.175 213.496 213.121C219.353 211.343 224.497 208.266 228.787 203.976C231.027 201.737 232.953 199.232 234.535 196.52Z" fill="#F0FDF9"></path><path d="M234.534 208.607V235.197H207.018C208.992 232.472 210.525 229.222 211.583 225.494C212.555 222.052 215.215 219.368 218.695 218.314C224.549 216.536 229.697 213.459 233.983 209.172C234.169 208.986 234.355 208.797 234.534 208.607Z" fill="#A2F5E0"></path><path d="M234.342 174.544C234.173 173.025 233.901 171.536 233.525 170.089C233.301 169.221 233.036 168.363 232.736 167.522C232.202 166.006 231.558 164.542 230.81 163.146C226.097 154.325 217.331 147.999 206.998 146.652C206.905 146.642 206.808 146.628 206.715 146.621C205.454 146.466 204.169 146.383 202.86 146.383H166.863V235.314H180.001C194.087 235.314 199.503 226.273 201.585 218.937C203.028 213.841 206.977 209.882 212.045 208.342C216.091 207.115 220.904 204.8 225.256 200.445C227.471 198.229 229.367 195.679 230.848 192.882C231.582 191.507 232.216 190.067 232.74 188.575C233.043 187.713 233.315 186.831 233.543 185.939C233.915 184.492 234.184 183.003 234.349 181.484C234.473 180.353 234.535 179.209 234.535 178.048C234.535 176.887 234.469 175.692 234.342 174.541V174.544Z" fill="#A2F5E0"></path><path d="M166.867 197.899C173.453 197.899 178.792 192.56 178.792 185.974C178.792 179.387 173.453 174.048 166.867 174.048C160.281 174.048 154.941 179.387 154.941 185.974C154.941 192.56 160.281 197.899 166.867 197.899Z" fill="#F0FDF9"></path><path d="M166.867 191.669C170.013 191.669 172.563 189.119 172.563 185.973C172.563 182.828 170.013 180.278 166.867 180.278C163.722 180.278 161.172 182.828 161.172 185.973C161.172 189.119 163.722 191.669 166.867 191.669Z" fill="black"></path><path d="M213.727 160.996C213.727 157.742 211.089 155.104 207.835 155.104C204.581 155.104 201.943 157.742 201.943 160.996V195.111C201.943 198.365 204.581 201.003 207.835 201.003C211.089 201.003 213.727 198.365 213.727 195.111V160.996Z" fill="black"></path><path d="M234.534 178.052C234.534 179.213 234.472 180.357 234.348 181.487H201.945V174.544H234.341C234.468 175.695 234.534 176.863 234.534 178.052Z" fill="#30D1B3"></path><path d="M233.524 170.089H201.945V163.146H230.813C231.557 164.542 232.201 166.01 232.739 167.522C233.038 168.363 233.3 169.218 233.528 170.089H233.524Z" fill="#F0FDF9"></path><path d="M233.543 185.942C233.316 186.838 233.043 187.716 232.74 188.578C232.216 190.066 231.582 191.507 230.849 192.885H201.943V185.942H233.543Z" fill="#F0FDF9"></path><path d="M111.441 335.013H30.7539C30.7539 321.962 36.956 310.358 46.5686 302.987C53.3687 308.199 61.8688 311.296 71.0956 311.296C80.3223 311.296 88.8224 308.195 95.6225 302.987C105.235 310.358 111.437 321.962 111.437 335.013H111.441Z" fill="#30D1B3"></path><path d="M95.6225 302.986C105.239 295.612 111.437 284.008 111.437 270.957H30.7539C30.7539 284.008 36.956 295.612 46.5686 302.986C53.3653 297.775 61.8688 294.674 71.0956 294.674C80.3223 294.674 88.8259 297.775 95.6225 302.986Z" fill="#30D1B3"></path><path d="M95.6222 302.987C88.8256 297.775 80.322 294.674 71.0953 294.674C61.8686 294.674 53.365 297.775 46.5684 302.987C53.365 308.198 61.8686 311.299 71.0953 311.299C80.322 311.299 88.8256 308.198 95.6222 302.987Z" fill="#A2F5E0"></path><path d="M71.0954 309.577C74.7358 309.577 77.6869 306.626 77.6869 302.986C77.6869 299.346 74.7358 296.395 71.0954 296.395C67.455 296.395 64.5039 299.346 64.5039 302.986C64.5039 306.626 67.455 309.577 71.0954 309.577Z" fill="black"></path><path d="M94.8131 335.013H47.3828C47.3828 321.917 57.9967 311.296 71.0997 311.296C84.2027 311.296 94.8166 321.913 94.8166 335.013H94.8131Z" fill="#F0FDF9"></path><path d="M47.3843 270.957H94.8146C94.8146 284.053 84.2008 294.674 71.0977 294.674C58.0017 294.674 47.3809 284.057 47.3809 270.957H47.3843Z" fill="#F0FDF9"></path><path d="M105.208 344.851H37.5931C33.419 344.851 30.0352 348.234 30.0352 352.409C30.0352 356.583 33.419 359.966 37.5931 359.966H105.208C109.382 359.966 112.766 356.583 112.766 352.409C112.766 348.234 109.382 344.851 105.208 344.851Z" fill="#F0FDF9"></path><path d="M46.5684 359.966C46.5684 346.252 57.6863 335.137 71.3977 335.137C85.1126 335.137 96.2271 346.255 96.2271 359.966" fill="#CDFAED"></path><path d="M194.902 30C217.362 30 235.567 48.205 235.567 70.6642C235.567 93.1235 217.362 111.328 194.902 111.328" fill="#30D1B3"></path><path d="M154.238 30C176.698 30 194.903 48.205 194.903 70.6642C194.903 93.1235 176.698 111.328 154.238 111.328" fill="#30D1B3"></path><path d="M194.902 93.4219C182.332 93.4219 172.145 83.2348 172.145 70.6648C172.145 58.0948 182.332 47.9077 194.902 47.9077" fill="#F0FDF9"></path><path d="M194.902 47.9077C207.472 47.9077 217.66 58.0948 217.66 70.6648C217.66 83.2348 207.472 93.4219 194.902 93.4219" fill="#CDFAED"></path><path d="M194.902 80.6299C200.406 80.6299 204.868 76.1678 204.868 70.6636C204.868 65.1593 200.406 60.6973 194.902 60.6973C189.398 60.6973 184.936 65.1593 184.936 70.6636C184.936 76.1678 189.398 80.6299 194.902 80.6299Z" fill="black"></path><path d="M59.8586 101.692H34.9214C32.2821 101.692 30.1426 103.832 30.1426 106.471C30.1426 109.11 32.2821 111.25 34.9214 111.25H59.8586C62.4979 111.25 64.6374 109.11 64.6374 106.471C64.6374 103.832 62.4979 101.692 59.8586 101.692Z" fill="#30D1B3"></path><path d="M111.277 45.7578C111.277 61.309 98.6703 73.9159 83.1191 73.9159C67.5679 73.9159 54.9609 61.309 54.9609 45.7578" fill="#30D1B3"></path><path d="M99.1249 45.7578C99.1249 54.4611 92.0705 61.5155 83.3672 61.5155C74.6638 61.5155 67.6094 54.4611 67.6094 45.7578" fill="#A2F5E0"></path><path d="M67.3574 45.7577C67.3574 37.0544 74.4153 30 83.1187 30C91.8221 30 98.8765 37.0544 98.8765 45.7577" fill="#F0FDF9"></path><path d="M83.1191 52.6571C86.9301 52.6571 90.0195 49.5677 90.0195 45.7568C90.0195 41.9458 86.9301 38.8564 83.1191 38.8564C79.3082 38.8564 76.2188 41.9458 76.2188 45.7568C76.2188 49.5677 79.3082 52.6571 83.1191 52.6571Z" fill="black"></path><path d="M54.9614 45.7578H39.3262V111.25H54.9614V45.7578Z" fill="#F0FDF9"></path><path d="M79.0469 110.97V83.6344H99.2053C106.75 83.6344 112.873 89.7575 112.873 97.3021C112.873 104.847 106.75 110.97 99.2053 110.97H79.0469Z" fill="#A2F5E0"></path><path d="M79.0469 97.3064L95.9635 110.974V83.6353L79.0469 97.3064Z" fill="#F0FDF9"></path><path d="M209.136 360H141.523L167.86 334.203H235.472L209.136 360Z" fill="#A2F5E0"></path><path d="M175.521 353.23C180.332 353.23 184.233 349.329 184.233 344.518C184.233 339.706 180.332 335.806 175.521 335.806C170.709 335.806 166.809 339.706 166.809 344.518C166.809 349.329 170.709 353.23 175.521 353.23Z" fill="black"></path><path d="M209.136 338.37H141.523L167.86 312.568H235.472L209.136 338.37Z" fill="#F0FDF9"></path><path d="M201.63 328.489C206.442 328.489 210.342 324.589 210.342 319.777C210.342 314.966 206.442 311.065 201.63 311.065C196.819 311.065 192.918 314.966 192.918 319.777C192.918 324.589 196.819 328.489 201.63 328.489Z" fill="black"></path><path d="M209.136 316.735H141.523L167.86 290.937H235.472L209.136 316.735Z" fill="#30D1B3"></path><path d="M176.423 310.538C181.235 310.538 185.135 306.638 185.135 301.826C185.135 297.014 181.235 293.114 176.423 293.114C171.612 293.114 167.711 297.014 167.711 301.826C167.711 306.638 171.612 310.538 176.423 310.538Z" fill="black"></path><path d="M67.0428 231.55H74.2168L74.2168 150.59H67.0428L67.0428 231.55Z" fill="#F0FDF9"></path><path d="M41.8657 219.775L47.3613 224.387L99.4017 162.368L93.9061 157.756L41.8657 219.775Z" fill="#F0FDF9"></path><path d="M30.1429 194.571L31.3887 201.636L111.119 187.577L109.873 180.512L30.1429 194.571Z" fill="#F0FDF9"></path><path d="M37.3663 167.728L33.7793 173.941L103.893 214.421L107.48 208.208L37.3663 167.728Z" fill="#F0FDF9"></path><path d="M60.1554 151.805L53.4141 154.259L81.1042 230.336L87.8455 227.883L60.1554 151.805Z" fill="#F0FDF9"></path><path d="M87.8468 154.263L81.1055 151.809L53.4154 227.887L60.1567 230.34L87.8468 154.263Z" fill="#F0FDF9"></path><path d="M107.482 173.938L103.895 167.725L33.7807 208.205L37.3677 214.418L107.482 173.938Z" fill="#F0FDF9"></path><path d="M109.873 201.633L111.119 194.568L31.3887 180.51L30.1429 187.575L109.873 201.633Z" fill="#F0FDF9"></path><path d="M93.9028 224.389L99.3984 219.778L47.3581 157.759L41.8625 162.37L93.9028 224.389Z" fill="#F0FDF9"></path><path d="M70.6333 213.339C82.9306 213.339 92.8995 203.37 92.8995 191.073C92.8995 178.776 82.9306 168.807 70.6333 168.807C58.3361 168.807 48.3672 178.776 48.3672 191.073C48.3672 203.37 58.3361 213.339 70.6333 213.339Z" fill="#A2F5E0"></path><path d="M70.6332 202.189C76.7722 202.189 81.7488 197.212 81.7488 191.073C81.7488 184.934 76.7722 179.958 70.6332 179.958C64.4942 179.958 59.5176 184.934 59.5176 191.073C59.5176 197.212 64.4942 202.189 70.6332 202.189Z" fill="black"></path></svg>