<svg xmlns="http://www.w3.org/2000/svg" width="67" height="80" viewBox="0 0 67 80" fill="none"><path d="M21.3457 25.0508H45.6059V76.9996C45.6059 78.3196 44.1659 79.1349 43.034 78.4558L34.3495 73.2452C33.8117 72.9226 33.1399 72.9226 32.6021 73.2452L23.9176 78.4558C22.7857 79.1349 21.3457 78.3196 21.3457 76.9996V25.0508Z" fill="#0A2C07"></path><path d="M31.2617 1.28653C32.174 -0.430144 34.634 -0.430144 35.5463 1.28653L36.3032 2.71077C37.0603 4.13527 38.9709 4.43789 40.1311 3.31704L41.2911 2.1964C42.6893 0.845661 45.0288 1.60581 45.366 3.52038L45.6457 5.10881C45.9255 6.69752 47.6492 7.57574 49.0989 6.86827L50.5485 6.16092C52.2956 5.30834 54.2857 6.75423 54.0148 8.67928L53.79 10.2764C53.5651 11.8738 54.933 13.2417 56.5304 13.0168L58.1276 12.792C60.0527 12.5211 61.4986 14.5112 60.646 16.2583L59.9386 17.7077C59.2312 19.1575 60.1094 20.8811 61.6981 21.1609L63.2866 21.4406C65.2012 21.7778 65.9614 24.1173 64.6106 25.5154L63.49 26.6754C62.3691 27.8355 62.6717 29.7462 64.0962 30.5032L65.5205 31.2601C67.2372 32.1724 67.2372 34.6323 65.5205 35.5446L64.0962 36.3015C62.6717 37.0585 62.3691 38.9692 63.49 40.1293L64.6106 41.2893C65.9614 42.6874 65.2012 45.0269 63.2866 45.3641L61.6981 45.6438C60.1094 45.9236 59.2312 47.6472 59.9386 49.0969L60.646 50.5464C61.4986 52.2935 60.0527 54.2836 58.1276 54.0127L56.5304 53.7878C54.933 53.563 53.5651 54.9309 53.79 56.5283L54.0148 58.1254C54.2857 60.0505 52.2956 61.4963 50.5485 60.6438L49.0989 59.9364C47.6492 59.2289 45.9255 60.1072 45.6457 61.6959L45.366 63.2843C45.0288 65.1989 42.6893 65.959 41.2911 64.6083L40.1311 63.4876C38.9709 62.3668 37.0603 62.6694 36.3032 64.0939L35.5463 65.5182C34.634 67.2348 32.174 67.2348 31.2617 65.5182L30.5048 64.0939C29.7478 62.6694 27.8371 62.3668 26.6769 63.4876L25.5169 64.6083C24.1188 65.959 21.7792 65.1989 21.442 63.2843L21.1623 61.6959C20.8825 60.1072 19.1589 59.2289 17.7091 59.9364L16.2596 60.6438C14.5124 61.4963 12.5223 60.0505 12.7933 58.1254L13.0181 56.5283C13.2429 54.9309 11.875 53.563 10.2776 53.7878L8.68044 54.0127C6.75535 54.2836 5.30943 52.2935 6.16203 50.5464L6.86939 49.0969C7.57688 47.6472 6.69863 45.9236 5.10989 45.6438L3.52143 45.3641C1.60682 45.0269 0.846655 42.6874 2.19742 41.2893L3.31809 40.1293C4.43895 38.9692 4.13633 37.0585 2.71181 36.3015L1.28753 35.5446C-0.429177 34.6323 -0.429177 32.1724 1.28753 31.2601L2.71181 30.5032C4.13633 29.7462 4.43895 27.8355 3.31809 26.6754L2.19742 25.5154C0.846655 24.1173 1.60682 21.7778 3.52143 21.4406L5.10989 21.1609C6.69863 20.8811 7.57688 19.1575 6.86939 17.7077L6.16203 16.2583C5.30943 14.5112 6.75535 12.5211 8.68044 12.792L10.2776 13.0168C11.875 13.2417 13.2429 11.8738 13.0181 10.2764L12.7933 8.67928C12.5223 6.75423 14.5124 5.30834 16.2596 6.16092L17.7091 6.86827C19.1589 7.57575 20.8825 6.69752 21.1623 5.10881L21.442 3.52038C21.7792 1.60581 24.1188 0.845661 25.5169 2.1964L26.6769 3.31704C27.8371 4.43789 29.7478 4.13527 30.5048 2.71077L31.2617 1.28653Z" fill="#B5F5A2"></path><path d="M52.0293 31.1457C52.1049 31.7909 52.1478 32.4462 52.1563 33.1097L51.186 33.1222C51.187 33.2003 51.1875 33.2785 51.1875 33.3569C51.1875 33.4352 51.187 33.5135 51.186 33.5916L52.1563 33.6041C52.1478 34.2676 52.1049 34.9229 52.0293 35.5681L51.0655 35.4552C51.0473 35.6101 51.0272 35.7643 51.0051 35.9179L51.9656 36.056C51.8715 36.711 51.7436 37.3551 51.5837 37.9864L50.643 37.7482C50.6047 37.8994 50.5645 38.0499 50.5223 38.1995L51.4564 38.4625C51.2775 39.0979 51.0661 39.7198 50.8239 40.3261L49.9227 39.9662C49.865 40.1108 49.8054 40.2544 49.7441 40.397L50.6355 40.7805C50.3751 41.3858 50.0838 41.9747 49.7636 42.5452L48.9174 42.0703C48.8412 42.206 48.7632 42.3407 48.6836 42.4743L49.5171 42.9712C49.1803 43.5362 48.8146 44.082 48.4222 44.6066L47.6451 44.0254C47.5519 44.1502 47.457 44.2736 47.3605 44.3958L48.1222 44.9971C47.7152 45.5126 47.2817 46.0064 46.8239 46.4763L46.1289 45.7991C46.0202 45.9106 45.9102 46.0207 45.7987 46.1293L46.4758 46.8243C46.0059 47.2822 45.5122 47.7156 44.9966 48.1226L44.3953 47.3609C44.2731 47.4573 44.1497 47.5522 44.025 47.6455L44.6061 48.4226C44.0815 48.815 43.5357 49.1806 42.9707 49.5174L42.4738 48.6839C42.3402 48.7636 42.2055 48.8415 42.0697 48.9177L42.5447 49.7639C41.9742 50.0841 41.3853 50.3754 40.78 50.6358L40.3965 49.7443C40.2538 49.8057 40.1102 49.8653 39.9657 49.923L40.3255 50.8242C39.7192 51.0663 39.0974 51.2778 38.4619 51.4567L38.1989 50.5226C38.0493 50.5647 37.8989 50.6049 37.7477 50.6432L37.9858 51.5839C37.3545 51.7438 36.7104 51.8717 36.0554 51.9658L35.9173 51.0053C35.7637 51.0274 35.6095 51.0475 35.4546 51.0657L35.5675 52.0295C34.9223 52.1051 34.267 52.148 33.6035 52.1565L33.591 51.1862C33.5129 51.1872 33.4347 51.1877 33.3563 51.1877C33.278 51.1877 33.1997 51.1872 33.1216 51.1862L33.1091 52.1565C32.4456 52.148 31.7903 52.1051 31.1451 52.0295L31.258 51.0657C31.1031 51.0475 30.9489 51.0274 30.7953 51.0053L30.6572 51.9658C30.0022 51.8717 29.3581 51.7438 28.7268 51.5839L28.965 50.6432C28.8138 50.6049 28.6633 50.5647 28.5137 50.5226L28.2507 51.4567C27.6153 51.2778 26.9934 51.0663 26.3871 50.8242L26.747 49.923C26.6024 49.8653 26.4588 49.8057 26.3161 49.7443L25.9326 50.6357C25.3273 50.3754 24.7385 50.0841 24.168 49.7639L24.6429 48.9177C24.5071 48.8415 24.3724 48.7636 24.2389 48.6839L23.7419 49.5174C23.177 49.1806 22.6311 48.815 22.1065 48.4226L22.6877 47.6455C22.5629 47.5522 22.4395 47.4573 22.3173 47.3609L21.7161 48.1226C21.2005 47.7156 20.7067 47.2822 20.2368 46.8243L20.914 46.1293C20.8025 46.0207 20.6924 45.9106 20.5838 45.7991L19.8887 46.4763C19.4309 46.0064 18.9975 45.5126 18.5904 44.9971L19.3521 44.3958C19.2557 44.2736 19.1608 44.1502 19.0675 44.0254L18.2904 44.6066C17.898 44.082 17.5324 43.5362 17.1955 42.9712L18.029 42.4743C17.9494 42.3407 17.8715 42.206 17.7953 42.0703L16.949 42.5452C16.6288 41.9747 16.3376 41.3858 16.0772 40.7805L16.9686 40.397C16.9072 40.2544 16.8476 40.1108 16.7899 39.9662L15.8887 40.3261C15.6466 39.7198 15.4351 39.0979 15.2562 38.4625L16.1903 38.1995C16.1482 38.0499 16.1079 37.8994 16.0697 37.7482L15.1289 37.9864C14.9691 37.3551 14.8411 36.711 14.747 36.056L15.7075 35.9179C15.6854 35.7643 15.6653 35.6101 15.6472 35.4552L14.6834 35.5681C14.6078 34.9229 14.5648 34.2676 14.5563 33.6041L15.5266 33.5916C15.5256 33.5135 15.5251 33.4352 15.5251 33.3569C15.5251 33.2785 15.5256 33.2003 15.5266 33.1222L14.5563 33.1097C14.5648 32.4462 14.6078 31.7909 14.6834 31.1457L15.6472 31.2586C15.6653 31.1037 15.6854 30.9495 15.7075 30.7959L14.747 30.6578C14.8411 30.0028 14.9691 29.3587 15.1289 28.7274L16.0697 28.9656C16.1079 28.8144 16.1482 28.6639 16.1903 28.5143L15.2562 28.2513C15.4351 27.6158 15.6466 26.994 15.8887 26.3877L16.7899 26.7476C16.8476 26.603 16.9072 26.4594 16.9686 26.3168L16.0772 25.9333C16.3376 25.328 16.6288 24.7391 16.949 24.1686L17.7953 24.6435C17.8715 24.5078 17.9494 24.3731 18.029 24.2395L17.1955 23.7426C17.5324 23.1776 17.898 22.6318 18.2904 22.1072L19.0675 22.6884C19.1608 22.5636 19.2557 22.4402 19.3521 22.318L18.5904 21.7167C18.9975 21.2011 19.4309 20.7074 19.8887 20.2375L20.5838 20.9147C20.6924 20.8032 20.8025 20.6931 20.914 20.5845L20.2368 19.8895C20.7067 19.4316 21.2005 18.9982 21.716 18.5912L22.3173 19.3529C22.4395 19.2565 22.5629 19.1616 22.6877 19.0683L22.1065 18.2912C22.6311 17.8988 23.177 17.5332 23.7419 17.1964L24.2389 18.0299C24.3724 17.9502 24.5071 17.8723 24.6429 17.7961L24.168 16.9499C24.7385 16.6297 25.3273 16.3384 25.9326 16.078L26.3161 16.9695C26.4588 16.9081 26.6024 16.8485 26.747 16.7908L26.3871 15.8896C26.9934 15.6475 27.6153 15.436 28.2507 15.2571L28.5137 16.1912C28.6633 16.1491 28.8138 16.1089 28.965 16.0706L28.7268 15.1299C29.3581 14.97 30.0022 14.8421 30.6572 14.7479L30.7953 15.7085C30.9489 15.6864 31.1031 15.6663 31.258 15.6481L31.1451 14.6843C31.7903 14.6087 32.4456 14.5658 33.1091 14.5573L33.1216 15.5276C33.1997 15.5266 33.278 15.5261 33.3563 15.5261C33.4347 15.5261 33.5129 15.5266 33.591 15.5276L33.6035 14.5573C34.267 14.5658 34.9223 14.6087 35.5675 14.6843L35.4546 15.6481C35.6095 15.6663 35.7637 15.6864 35.9173 15.7085L36.0554 14.7479C36.7104 14.8421 37.3545 14.97 37.9858 15.1299L37.7477 16.0706C37.8989 16.1089 38.0493 16.1491 38.1989 16.1912L38.4619 15.2571C39.0974 15.436 39.7192 15.6475 40.3255 15.8896L39.9657 16.7908C40.1102 16.8485 40.2538 16.9081 40.3965 16.9695L40.78 16.078C41.3853 16.3384 41.9742 16.6297 42.5447 16.9499L42.0697 17.7961C42.2055 17.8723 42.3402 17.9502 42.4738 18.0299L42.9707 17.1964C43.5357 17.5332 44.0815 17.8988 44.6061 18.2912L44.025 19.0683C44.1497 19.1616 44.2731 19.2565 44.3953 19.3529L44.9966 18.5912C45.5122 18.9982 46.0059 19.4316 46.4758 19.8895L45.7987 20.5845C45.9102 20.6931 46.0202 20.8032 46.1289 20.9147L46.8239 20.2375C47.2817 20.7074 47.7152 21.2011 48.1222 21.7167L47.3605 22.318C47.457 22.4402 47.5519 22.5636 47.6451 22.6884L48.4222 22.1072C48.8146 22.6318 49.1803 23.1776 49.5171 23.7426L48.6836 24.2395C48.7632 24.3731 48.8412 24.5078 48.9174 24.6435L49.7636 24.1686C50.0838 24.7391 50.3751 25.328 50.6355 25.9333L49.7441 26.3168C49.8054 26.4594 49.865 26.603 49.9227 26.7476L50.8239 26.3877C51.0661 26.994 51.2775 27.6158 51.4564 28.2513L50.5223 28.5143C50.5645 28.6639 50.6047 28.8144 50.643 28.9656L51.5837 28.7274C51.7436 29.3587 51.8715 30.0028 51.9656 30.6578L51.0051 30.7959C51.0272 30.9495 51.0473 31.1037 51.0655 31.2586L52.0293 31.1457Z" stroke="#0A2C07" stroke-width="1.94079" stroke-dasharray="0.49 1.94"></path><path d="M58.5121 33.4033C58.5121 47.2705 47.2703 58.512 33.4029 58.512C19.5354 58.512 8.29359 47.2705 8.29359 33.4033C8.29359 19.5361 19.5354 8.29456 33.4029 8.29456C47.2703 8.29456 58.5121 19.5361 58.5121 33.4033Z" stroke="#0A2C07" stroke-width="0.727797"></path><path d="M33.3595 25.957C36.0721 25.957 38.2763 28.1316 38.3406 30.838H28.3784C28.4427 28.1316 30.6468 25.957 33.3595 25.957Z" fill="#0A2C07"></path><path d="M26.4453 40.998H29.4275L32.1816 31.7463H31.9533L26.4453 40.998Z" fill="#0A2C07"></path><path d="M31.8676 40.998L33.2446 31.7463H33.4744L34.8514 40.998H31.8676Z" fill="#0A2C07"></path><path d="M37.2914 40.998H40.2736L34.7671 31.7463H34.5374L37.2914 40.998Z" fill="#0A2C07"></path></svg>