<svg xmlns="http://www.w3.org/2000/svg" width="31" height="31" viewBox="0 0 31 31" fill="none"><path fill-rule="evenodd" clip-rule="evenodd" d="M2.9519 8.32842C2.78437 9.58209 2.26351 10.8347 1.49277 11.8376C1.30806 12.0779 1.14122 12.3327 0.99404 12.6C0.505949 13.4866 0.25 14.4821 0.25 15.4941C0.25 16.5061 0.505949 17.5017 0.99404 18.3882C1.14122 18.6555 1.30806 18.9103 1.49277 19.1506C2.26351 20.1535 2.78437 21.4062 2.9519 22.6598C2.99183 22.9586 3.05436 23.255 3.13939 23.5463C3.42247 24.5161 3.94584 25.3988 4.66099 26.1125C5.37613 26.8261 6.25989 27.3476 7.23032 27.6287C7.52199 27.7132 7.81865 27.7751 8.11773 27.8144C9.3715 27.9791 10.625 28.4971 11.6294 29.2654C11.8684 29.4483 12.1217 29.6135 12.3873 29.7593C13.2723 30.2453 14.2656 30.5 15.2752 30.5C16.2848 30.5 17.2781 30.2453 18.1631 29.7593C18.4301 29.6128 18.6846 29.4466 18.9248 29.2626C19.9267 28.4949 21.177 27.9767 22.4282 27.8106C22.7288 27.7707 23.0269 27.708 23.3199 27.6224C24.2897 27.3394 25.1724 26.816 25.886 26.1008C26.5997 25.3857 27.1212 24.5019 27.4023 23.5315C27.4872 23.2382 27.5494 22.9398 27.5886 22.6389C27.752 21.3876 28.2672 20.1365 29.0325 19.133C29.2147 18.8941 29.3793 18.6412 29.5245 18.3759C30.0083 17.4924 30.2618 16.5014 30.2618 15.4941C30.2618 14.4869 30.0083 13.4958 29.5245 12.6123C29.3795 12.3475 29.2152 12.0949 29.0334 11.8563C28.2679 10.8522 27.7527 9.60012 27.5897 8.34802C27.5504 8.04601 27.488 7.74642 27.4027 7.45193C27.1209 6.47995 26.598 5.59501 25.8824 4.87943C25.1668 4.16385 24.2819 3.64087 23.3099 3.35914C23.0154 3.27378 22.7158 3.21141 22.4138 3.1721C21.1617 3.00915 19.9097 2.49394 18.9055 1.72846C18.667 1.54661 18.4144 1.38232 18.1495 1.23731C17.266 0.753563 16.275 0.5 15.2677 0.5C14.2604 0.5 13.2694 0.753563 12.3859 1.23731C12.1206 1.38254 11.8677 1.54711 11.6288 1.72927C10.6254 2.49458 9.37426 3.00985 8.12289 3.17319C7.82206 3.21245 7.52367 3.2746 7.23032 3.35956C6.25989 3.64061 5.37613 4.16214 4.66099 4.87578C3.94584 5.58943 3.42247 6.47209 3.13939 7.44193C3.05436 7.73325 2.99183 8.02961 2.9519 8.32842ZM20.81 13.5623C21.3958 12.9765 21.3958 12.0268 20.81 11.441C20.2242 10.8552 19.2744 10.8552 18.6887 11.441L13.7488 16.3808L11.8092 14.4412C11.2234 13.8555 10.2737 13.8555 9.68787 14.4412C9.10209 15.027 9.10209 15.9768 9.68787 16.5626L12.6881 19.5628C13.2739 20.1486 14.2237 20.1486 14.8095 19.5628L20.81 13.5623Z" fill="#A2F5E0"></path></svg>