<svg xmlns="http://www.w3.org/2000/svg" width="79" height="72" viewBox="0 0 79 72" fill="none"><path d="M23.1632 72H10.9551L33.4954 34.4348H34.4333L23.1632 72Z" fill="#052E2B"></path><path d="M45.3889 72H32.8672L38.6455 34.4348H39.6075L45.3889 72Z" fill="#052E2B"></path><path d="M67.3025 72H55.096L43.8242 34.4348H44.762L67.3025 72Z" fill="#052E2B"></path><rect y="10.9565" width="78.2609" height="17.2174" rx="8.6087" fill="#052E2B"></rect><path d="M52.4337 4.69556C60.6407 4.69556 67.3049 11.3721 67.3049 19.5945V28.1738H37.5657V19.5945C37.5657 11.3721 44.2298 4.69556 52.4368 4.69556H52.4337Z" fill="#10917E"></path><path d="M25.825 4.69556C34.032 4.69556 40.6962 11.3721 40.6962 19.5945V28.1738H10.957V19.5945C10.957 11.3721 17.6211 4.69556 25.8281 4.69556H25.825Z" fill="#10917E"></path><path d="M39.1299 28.1739C46.9099 28.1739 53.2169 21.867 53.2169 14.087C53.2169 6.30694 46.9099 0 39.1299 0C31.3499 0 25.043 6.30694 25.043 14.087C25.043 21.867 31.3499 28.1739 39.1299 28.1739Z" fill="#A2F5E0"></path><path d="M39.13 20.3479C42.5878 20.3479 45.3909 17.5448 45.3909 14.087C45.3909 10.6293 42.5878 7.82617 39.13 7.82617C35.6722 7.82617 32.8691 10.6293 32.8691 14.087C32.8691 17.5448 35.6722 20.3479 39.13 20.3479Z" fill="#052E2B"></path></svg>