<svg xmlns="http://www.w3.org/2000/svg" width="16" height="16" viewBox="0 0 16 16" fill="none"><path d="M6.87764 14.9076C8.22149 15.1282 9.60057 14.9518 10.8454 14.3999C12.0902 13.848 13.1466 12.9447 13.8846 11.8011C14.6227 10.6575 15.0103 9.3233 14.9998 7.96255C14.9893 6.60181 14.5812 5.27377 13.8256 4.14165M9.04422 1.08004C7.70587 0.87582 6.33697 1.0644 5.10385 1.62287C3.87074 2.18134 2.82649 3.08565 2.09801 4.22592C1.36953 5.36618 0.988175 6.69332 1.00028 8.04606C1.01238 9.3988 1.41743 10.7189 2.1662 11.846M10.0927 7.9938C10.0927 9.15089 9.15398 10.0889 7.99598 10.0889C6.83798 10.0889 5.89923 9.15089 5.89923 7.9938C5.89923 6.83672 6.83798 5.89872 7.99598 5.89872C9.15398 5.89872 10.0927 6.83672 10.0927 7.9938ZM14.2862 3.10527C14.2862 3.87666 13.6604 4.502 12.8884 4.502C12.1164 4.502 11.4906 3.87666 11.4906 3.10527C11.4906 2.33388 12.1164 1.70855 12.8884 1.70855C13.6604 1.70855 14.2862 2.33388 14.2862 3.10527ZM4.5014 12.8823C4.5014 13.6537 3.87557 14.2791 3.10357 14.2791C2.33157 14.2791 1.70574 13.6537 1.70574 12.8823C1.70574 12.1109 2.33157 11.4856 3.10357 11.4856C3.87557 11.4856 4.5014 12.1109 4.5014 12.8823Z" stroke="white" stroke-width="1.4" stroke-linecap="round" stroke-linejoin="round"></path></svg>