<svg xmlns="http://www.w3.org/2000/svg" width="27" height="26" viewBox="0 0 27 26" fill="none"><path d="M16.0273 9.30758C16.0273 9.99393 15.7546 10.6522 15.2693 11.1375C14.784 11.6228 14.1257 11.8955 13.4394 11.8955H5.67576L0.5 17.0712V2.83788C0.5 1.41455 1.66455 0.25 3.08788 0.25H13.4394C14.1257 0.25 14.784 0.522651 15.2693 1.00797C15.7546 1.49329 16.0273 2.15153 16.0273 2.83788V9.30758Z" fill="#AAADF0"></path><path fill-rule="evenodd" clip-rule="evenodd" d="M18.6152 6.72021H22.497C23.5265 6.72021 24.5139 7.12919 25.2419 7.85717C25.9699 8.58516 26.3788 9.57251 26.3788 10.602V24.8354L24.1699 25.7503L19.3732 20.9536H12.1455C11.116 20.9536 10.1286 20.5446 9.40063 19.8166C8.67265 19.0886 8.26367 18.1013 8.26367 17.0717V14.4839H10.8516V17.0717C10.8516 17.4149 10.9879 17.744 11.2305 17.9867C11.4732 18.2293 11.8023 18.3657 12.1455 18.3657H20.4451L23.7909 21.7115V10.602C23.7909 10.2589 23.6546 9.92974 23.412 9.68708C23.1693 9.44442 22.8402 9.30809 22.497 9.30809H18.6152V6.72021Z" fill="#AAADF0"></path></svg>