<svg xmlns="http://www.w3.org/2000/svg" width="30" height="32" viewBox="0 0 30 32" fill="none"><path d="M15 3C12.9268 3 10.5489 3.84451 9.1967 5.1967C7.79018 6.60322 7 8.51088 7 10.5V22.5C7 23.0523 6.54972 23.5075 6.00297 23.4295C2.60923 22.9456 0 20.0275 0 16.5C0 13.7056 1.63742 11.2936 4.00514 10.1712C4.08857 7.50573 5.18388 4.96688 7.07538 3.07538C9.09885 1.05191 12.2993 0 15 0C17.7007 0 20.9012 1.05191 22.9246 3.07538C24.8161 4.96688 25.9114 7.50573 25.9949 10.1712C28.3626 11.2936 30 13.7056 30 16.5C30 19.3716 28.2709 21.8393 25.7971 22.9188C25.3941 24.9384 24.4023 26.8112 22.9246 28.2889C21.8789 29.3346 20.6353 30.137 19.2819 30.6595C18.0868 31.121 16.8059 31.3643 15.5 31.3643C14.6716 31.3643 14 30.6927 14 29.8643V27.8643C14 27.3596 14.2538 26.8887 14.6753 26.6113C15.0969 26.3338 15.6297 26.287 16.0933 26.4866L18.7422 27.6273C19.4998 27.2641 20.1979 26.7729 20.8033 26.1676C22.2098 24.761 23 22.8534 23 20.8643V10.5C23 8.51088 22.2098 6.60322 20.8033 5.1967C19.4511 3.84451 17.0732 3 15 3Z" fill="#B5F5A2"></path></svg>