<svg xmlns="http://www.w3.org/2000/svg" width="29" height="29" viewBox="0 0 29 29" fill="none"><rect x="0.25" y="0.5" width="28.5" height="28.5" rx="14.25" fill="#0A2C07"></rect><path d="M13.4191 21.4109C14.7139 21.6236 16.0427 21.4535 17.2421 20.9213C18.4415 20.3891 19.4594 19.5181 20.1705 18.4153C20.8816 17.3126 21.2551 16.026 21.245 14.7139C21.2349 13.4017 20.8416 12.1211 20.1136 11.0294M15.5066 8.07718C14.2171 7.88025 12.8981 8.0621 11.71 8.60063C10.5219 9.13915 9.51573 10.0112 8.81382 11.1107C8.11191 12.2102 7.74447 13.49 7.75613 14.7944C7.76779 16.0988 8.15806 17.3718 8.87952 18.4586M16.5169 14.744C16.5169 15.8598 15.6124 16.7643 14.4966 16.7643C13.3809 16.7643 12.4764 15.8598 12.4764 14.744C12.4764 13.6283 13.3809 12.7238 14.4966 12.7238C15.6124 12.7238 16.5169 13.6283 16.5169 14.744ZM20.5574 10.0301C20.5574 10.7739 19.9544 11.3769 19.2106 11.3769C18.4667 11.3769 17.8637 10.7739 17.8637 10.0301C17.8637 9.28624 18.4667 8.68324 19.2106 8.68324C19.9544 8.68324 20.5574 9.28624 20.5574 10.0301ZM11.1295 19.458C11.1295 20.2018 10.5265 20.8048 9.7827 20.8048C9.03886 20.8048 8.43586 20.2018 8.43586 19.458C8.43586 18.7141 9.03886 18.1111 9.7827 18.1111C10.5265 18.1111 11.1295 18.7141 11.1295 19.458Z" stroke="#B5F5A2" stroke-width="1.5" stroke-linecap="round" stroke-linejoin="round"></path></svg>