<svg xmlns="http://www.w3.org/2000/svg" width="67" height="68" viewBox="0 0 67 68" fill="none"><path d="M0 34C-8.20736e-07 15.2238 14.8747 0.000122873 33.2272 0.00012207C51.5797 0.000121268 66.4544 15.2207 66.4544 34" fill="#F5BC95"></path><path d="M0 67.9999C-8.20736e-07 49.2237 14.8747 34 33.2272 34C51.5797 34 66.4544 49.2206 66.4544 67.9999" fill="#3F120B"></path><path d="M51.7725 34C51.7725 44.2408 43.4709 52.5454 33.2271 52.5454C22.9832 52.5454 14.6816 44.2438 14.6816 34" fill="#ED824A"></path><path d="M14.6816 34C14.6816 23.7592 22.9832 15.4546 33.2271 15.4546C43.4709 15.4546 51.7725 23.7562 51.7725 34" fill="#FEF5EE"></path><path d="M41.7265 34C41.7265 29.3056 37.921 25.5 33.2265 25.5C28.5321 25.5 24.7266 29.3056 24.7266 34C24.7266 38.6944 28.5321 42.5 33.2265 42.5C37.921 42.5 41.7265 38.6944 41.7265 34Z" fill="#3F120B"></path></svg>