<svg xmlns="http://www.w3.org/2000/svg" width="30" height="30" viewBox="0 0 30 30" fill="none"><path d="M12 10.499H13.5V13.499H12C11.6022 13.499 11.2206 13.341 10.9393 13.0597C10.658 12.7784 10.5 12.3968 10.5 11.999C10.5 11.6012 10.658 11.2197 10.9393 10.9384C11.2206 10.6571 11.6022 10.499 12 10.499Z" fill="#B5F5A2"></path><path d="M16.5 19.499V16.499H18C18.3978 16.499 18.7794 16.6571 19.0607 16.9384C19.342 17.2197 19.5 17.6012 19.5 17.999C19.5 18.3968 19.342 18.7784 19.0607 19.0597C18.7794 19.341 18.3978 19.499 18 19.499H16.5Z" fill="#B5F5A2"></path><path fill-rule="evenodd" clip-rule="evenodd" d="M30 14.999C30 23.2833 23.2843 29.999 15 29.999C6.71573 29.999 0 23.2833 0 14.999C0 6.71475 6.71573 -0.000976562 15 -0.000976562C23.2843 -0.000976562 30 6.71475 30 14.999ZM16.5 4.49902H13.5V7.49902H12C10.8065 7.49902 9.66193 7.97313 8.81802 8.81704C7.97411 9.66096 7.5 10.8055 7.5 11.999C7.5 13.1925 7.97411 14.3371 8.81802 15.181C9.66193 16.0249 10.8065 16.499 12 16.499H13.5V19.499H7.5V22.499H13.5V25.499H16.5V22.499H18C19.1935 22.499 20.3381 22.0249 21.182 21.181C22.0259 20.3371 22.5 19.1925 22.5 17.999C22.5 16.8055 22.0259 15.661 21.182 14.817C20.3381 13.9731 19.1935 13.499 18 13.499H16.5V10.499H22.5V7.49902H16.5V4.49902Z" fill="#B5F5A2"></path></svg>