<svg xmlns="http://www.w3.org/2000/svg" width="104" height="90" viewBox="0 0 104 90" fill="none"><g clip-path="url(#clip0_732_5730)"><path d="M88.3602 61.6378C91.4632 61.6378 94.1914 63.3832 95.7619 66.0219C99.8983 66.0219 103.989 66.0219 103.989 71.3543C103.989 74.2954 101.799 76.6821 99.0922 76.6821H57.8145C55.1115 76.6821 52.918 74.2999 52.918 71.3543C52.918 68.4133 55.1073 66.0265 57.8145 66.0265H60.8459C62.4164 63.3878 65.1446 61.6424 68.2476 61.6424C69.0434 61.6424 69.8096 61.7569 70.5422 61.9722C72.1085 59.0907 74.9883 57.1621 78.2892 57.1621C81.59 57.1621 84.4741 59.0953 86.0403 61.9768C86.7813 61.7569 87.556 61.6378 88.3602 61.6378Z" fill="white"></path><path d="M28.5941 0C44.0347 0 56.567 12.2834 56.567 27.4175V90H0.621094V27.4175C0.621094 12.2834 13.1534 0 28.5941 0Z" fill="#AAADF0"></path><path d="M28.5942 49.8651C32.6244 49.8651 35.8915 46.598 35.8915 42.5678C35.8915 38.5376 32.6244 35.2705 28.5942 35.2705C24.564 35.2705 21.2969 38.5376 21.2969 42.5678C21.2969 46.598 24.564 49.8651 28.5942 49.8651Z" fill="#A2F5E0"></path><path d="M0.621516 49.8651C4.6517 49.8651 7.91881 46.598 7.91881 42.5678C7.91881 38.5376 4.6517 35.2705 0.621516 35.2705C-3.40867 35.2705 -6.67578 38.5376 -6.67578 42.5678C-6.67578 46.598 -3.40867 49.8651 0.621516 49.8651Z" fill="#A2F5E0"></path><path d="M56.5668 49.8651C60.597 49.8651 63.8641 46.598 63.8641 42.5678C63.8641 38.5376 60.597 35.2705 56.5668 35.2705C52.5366 35.2705 49.2695 38.5376 49.2695 42.5678C49.2695 46.598 52.5366 49.8651 56.5668 49.8651Z" fill="#A2F5E0"></path><path d="M84.5395 49.8651C88.5697 49.8651 91.8368 46.598 91.8368 42.5678C91.8368 38.5376 88.5697 35.2705 84.5395 35.2705C80.5093 35.2705 77.2422 38.5376 77.2422 42.5678C77.2422 46.598 80.5093 49.8651 84.5395 49.8651Z" fill="#A2F5E0"></path><path d="M22.5137 90.0003C22.5137 71.1965 37.2145 55.9463 55.3515 55.9463C73.4885 55.9463 88.1893 71.1916 88.1893 90.0003" fill="#80CAED"></path><path d="M40.7559 90.0453C40.7559 81.9598 47.2887 75.4053 55.3475 75.4053C63.4063 75.4053 69.9392 81.9598 69.9392 90.0453" fill="black"></path><path d="M65.4507 12.3321C68.997 12.3321 72.115 14.2956 73.9098 17.2642C78.6371 17.2642 83.312 17.2642 83.312 23.2631C83.312 26.5718 80.8098 29.2569 77.7159 29.2569H30.5414C27.4522 29.2569 24.9453 26.5769 24.9453 23.2631C24.9453 19.9544 27.4474 17.2693 30.5414 17.2693H34.0059C35.8006 14.3008 38.9187 12.3372 42.4649 12.3372C43.3744 12.3372 44.2501 12.4661 45.0873 12.7083C46.8773 9.46659 50.1686 7.29688 53.941 7.29688C57.7134 7.29688 61.0094 9.47175 62.7994 12.7134C63.6463 12.4661 64.5317 12.3321 65.4507 12.3321Z" fill="white"></path></g><defs><clipPath id="clip0_732_5730"><rect width="103.378" height="90" fill="white" transform="translate(0.621094)"></rect></clipPath></defs></svg>