<svg xmlns="http://www.w3.org/2000/svg" width="89" height="98" viewBox="0 0 89 98" fill="none"><path d="M0.144531 0H88.1445C88.1445 24.3017 68.4463 44 44.1445 44C19.8428 44 0.144531 24.295 0.144531 0Z" fill="#82CDF0"></path><path d="M0.144531 70H88.1445C88.1445 45.6983 68.4463 26 44.1445 26C19.8428 26 0.144531 45.705 0.144531 70Z" fill="#82CDF0"></path><path d="M17.4766 34.999C24.8756 29.353 34.1183 26 44.1446 26C54.171 26 63.4137 29.3542 70.8127 35.001C63.4137 40.647 54.171 44 44.1446 44C34.1183 44 24.8756 40.6458 17.4766 34.999Z" fill="#AAADF0"></path><path d="M44.1445 42C48.0105 42 51.1445 38.866 51.1445 35C51.1445 31.134 48.0105 28 44.1445 28C40.2785 28 37.1445 31.134 37.1445 35C37.1445 38.866 40.2785 42 44.1445 42Z" fill="black"></path><path d="M18.1445 0H70.1445C70.1445 14.3601 58.5046 26 44.1445 26C29.7844 26 18.1445 14.3561 18.1445 0Z" fill="#A2F5E0"></path><path d="M18.1445 70H70.1445C70.1445 55.6399 58.5046 44 44.1445 44C29.7844 44 18.1445 55.6439 18.1445 70Z" fill="#A2F5E0"></path><path d="M80.1072 82H8.18188C3.74297 82 0.144531 85.5809 0.144531 89.9981V90.0019C0.144531 94.4191 3.74297 98 8.18188 98H80.1072C84.5461 98 88.1445 94.4191 88.1445 90.0019V89.9981C88.1445 85.5809 84.5461 82 80.1072 82Z" fill="black"></path><path d="M18.1445 98C18.1445 83.6399 29.7844 72 44.1445 72C58.5046 72 70.1445 83.6399 70.1445 98" fill="#A2F5E0"></path></svg>