<svg xmlns="http://www.w3.org/2000/svg" width="65" height="72" viewBox="0 0 65 72" fill="none"><path d="M0 0H64.6531C64.6531 17.8543 50.1809 32.3265 32.3265 32.3265C14.4722 32.3265 0 17.8494 0 0Z" fill="#A65917"></path><path d="M0 51.4285H64.6531C64.6531 33.5741 50.1809 19.1019 32.3265 19.1019C14.4722 19.1019 0 33.5791 0 51.4285Z" fill="#A65917"></path><path d="M12.7344 25.7136C18.1704 21.5655 24.961 19.1021 32.3273 19.1021C39.6935 19.1021 46.4841 21.5663 51.9201 25.715C46.4841 29.8631 39.6935 32.3265 32.3272 32.3265C24.961 32.3265 18.1704 29.8623 12.7344 25.7136Z" fill="#FDFBED"></path><path d="M32.3265 30.8572C35.1668 30.8572 37.4693 28.5547 37.4693 25.7144C37.4693 22.8741 35.1668 20.5715 32.3265 20.5715C29.4861 20.5715 27.1836 22.8741 27.1836 25.7144C27.1836 28.5547 29.4861 30.8572 32.3265 30.8572Z" fill="#401E08"></path><path d="M13.2246 0H51.4287C51.4287 10.5503 42.8769 19.102 32.3266 19.102C21.7764 19.102 13.2246 10.5474 13.2246 0Z" fill="#EDD05C"></path><path d="M13.2246 51.4285H51.4287C51.4287 40.8782 42.8769 32.3264 32.3266 32.3264C21.7764 32.3264 13.2246 40.8811 13.2246 51.4285Z" fill="#EDD05C"></path><path d="M58.7481 60.2449H5.90499C2.64375 60.2449 0 62.8757 0 66.121V66.1238C0 69.3691 2.64375 72 5.90499 72H58.7481C62.0093 72 64.6531 69.3691 64.6531 66.1238V66.121C64.6531 62.8757 62.0093 60.2449 58.7481 60.2449Z" fill="#401E08"></path><path d="M13.2246 72C13.2246 61.4497 21.7764 52.8979 32.3267 52.8979C42.8769 52.8979 51.4287 61.4497 51.4287 72" fill="#EDD05C"></path></svg>