<svg xmlns="http://www.w3.org/2000/svg" width="24" height="24" viewBox="0 0 24 24" fill="none"><rect width="24" height="24" rx="12" fill="#EAF0F4"></rect><path fill-rule="evenodd" clip-rule="evenodd" d="M5.37072 8.46212C4.87643 10.7948 4.87643 13.2051 5.37072 15.5378C5.43566 15.7747 5.56115 15.9906 5.73483 16.1643C5.90852 16.3379 6.12442 16.4634 6.3613 16.5284C10.1563 17.1572 14.0289 17.1572 17.8238 16.5284C18.0607 16.4634 18.2766 16.3379 18.4503 16.1643C18.624 15.9906 18.7495 15.7747 18.8144 15.5378C19.3087 13.2051 19.3087 10.7948 18.8144 8.46212C18.7495 8.22523 18.624 8.00933 18.4503 7.83564C18.2766 7.66196 18.0607 7.53647 17.8238 7.47153C14.0288 6.84282 10.1563 6.84282 6.3613 7.47153C6.12442 7.53647 5.90852 7.66196 5.73483 7.83564C5.56115 8.00933 5.43566 8.22523 5.37072 8.46212ZM14.2154 12.0002L10.6776 14.1229V9.87747L14.2154 12.0002Z" fill="#1D2C34"></path></svg>