<svg xmlns="http://www.w3.org/2000/svg" width="24" height="24" viewBox="0 0 24 24" fill="none"><rect width="24" height="24" rx="12" fill="#EAF0F4"></rect><path d="M16.997 16L16.9995 15.9996V12.3322C16.9995 10.5381 16.6133 9.15604 14.5159 9.15604C13.5076 9.15604 12.8309 9.70935 12.5547 10.2339H12.5255V9.32353H10.5368V15.9996H12.6076V12.6938C12.6076 11.8235 12.7726 10.9818 13.8505 10.9818C14.9125 10.9818 14.9284 11.9751 14.9284 12.7497V16H16.997Z" fill="#1D2C34"></path><path d="M7.16499 9.32375H9.23826V15.9998H7.16499V9.32375Z" fill="#1D2C34"></path><path d="M8.2008 6C7.5379 6 7 6.5379 7 7.2008C7 7.86369 7.5379 8.41284 8.2008 8.41284C8.86369 8.41284 9.4016 7.86369 9.4016 7.2008C9.40118 6.5379 8.86328 6 8.2008 6Z" fill="#1D2C34"></path></svg>