<svg xmlns="http://www.w3.org/2000/svg" width="23" height="23" viewBox="0 0 23 23" fill="none"><rect x="0.5" y="0.5" width="22.5" height="22.5" rx="11.25" fill="#E3F1FB"></rect><path d="M9.95486 11.7476L11.155 12.9477L13.5552 10.5475M6.8647 9.71947C6.77712 9.32495 6.79057 8.91471 6.9038 8.52677C7.01703 8.13884 7.22638 7.78577 7.51244 7.50031C7.7985 7.21485 8.152 7.00624 8.54017 6.89382C8.92835 6.7814 9.33862 6.76882 9.73295 6.85722C9.95 6.51778 10.249 6.23843 10.6024 6.04493C10.9558 5.85143 11.3522 5.75 11.7551 5.75C12.158 5.75 12.5545 5.85143 12.9079 6.04493C13.2613 6.23843 13.5603 6.51778 13.7773 6.85722C14.1722 6.76843 14.5832 6.78096 14.972 6.89366C15.3608 7.00635 15.7148 7.21554 16.001 7.50177C16.2872 7.788 16.4964 8.14198 16.6091 8.53077C16.7218 8.91956 16.7343 9.33054 16.6456 9.72547C16.985 9.94252 17.2643 10.2415 17.4578 10.5949C17.6514 10.9483 17.7528 11.3447 17.7528 11.7476C17.7528 12.1506 17.6514 12.547 17.4578 12.9004C17.2643 13.2538 16.985 13.5528 16.6456 13.7698C16.734 14.1642 16.7214 14.5744 16.609 14.9626C16.4965 15.3508 16.2879 15.7043 16.0025 15.9903C15.717 16.2764 15.3639 16.4857 14.976 16.599C14.5881 16.7122 14.1778 16.7257 13.7833 16.6381C13.5665 16.9788 13.2673 17.2594 12.9133 17.4537C12.5593 17.6481 12.162 17.75 11.7581 17.75C11.3543 17.75 10.957 17.6481 10.603 17.4537C10.249 17.2594 9.94971 16.9788 9.73295 16.6381C9.33862 16.7265 8.92835 16.7139 8.54017 16.6015C8.152 16.4891 7.7985 16.2804 7.51244 15.995C7.22638 15.7095 7.01703 15.3565 6.9038 14.9685C6.79057 14.5806 6.77712 14.1703 6.8647 13.7758C6.52265 13.5594 6.2409 13.2599 6.04566 12.9053C5.85043 12.5507 5.74805 12.1524 5.74805 11.7476C5.74805 11.3428 5.85043 10.9446 6.04566 10.59C6.2409 10.2354 6.52265 9.93595 6.8647 9.71947Z" stroke="#2C434E" stroke-width="1.05" stroke-linecap="round" stroke-linejoin="round"></path></svg>