<svg xmlns="http://www.w3.org/2000/svg" width="30" height="30" viewBox="0 0 30 30" fill="none"><rect width="30" height="30" rx="15" fill="#D8FACD"></rect><path d="M22.4999 14.2876V15.0376C22.4923 16.5513 22.0269 18.0273 21.1647 19.2716C20.3025 20.5158 19.0841 21.4701 17.6694 22.0089C16.2548 22.5476 14.7102 22.6457 13.2388 22.2903C11.7674 21.9348 10.438 21.1424 9.4253 20.0172C8.41265 18.8921 7.76417 17.4868 7.56513 15.9862C7.36608 14.4856 7.62578 12.9598 8.31008 11.6096C8.99438 10.2593 10.0713 9.14775 11.3991 8.42097C12.727 7.69419 14.2437 7.38623 15.7499 7.53759M12 16.5373C12 16.5373 13.125 18.0373 15 18.0373C16.875 18.0373 18 16.5373 18 16.5373M12.75 12.7874H12.7575M17.25 12.7874H17.2575M18 9.78735H22.5M20.25 7.53735V12.0374" stroke="#2C434E" stroke-width="1.4" stroke-linecap="round" stroke-linejoin="round"></path></svg>