<svg xmlns="http://www.w3.org/2000/svg" width="23" height="23" viewBox="0 0 23 23" fill="none"><rect x="0.5" width="22.5" height="22.5" rx="11.25" fill="#E3F1FB"></rect><path d="M13.7195 13.4997L14.8446 14.6248L17.0948 12.3746M16.5322 10.1243V8.99918C16.532 8.80187 16.48 8.60809 16.3812 8.43728C16.2825 8.26646 16.1406 8.12461 15.9697 8.02596L12.0318 5.77574C11.8608 5.67699 11.6667 5.625 11.4692 5.625C11.2717 5.625 11.0777 5.67699 10.9067 5.77574L6.9688 8.02596C6.79794 8.12461 6.65601 8.26646 6.55727 8.43728C6.45854 8.60809 6.40645 8.80187 6.40625 8.99918V13.4996C6.40645 13.6969 6.45854 13.8907 6.55727 14.0615C6.65601 14.2323 6.79794 14.3742 6.9688 14.4728L10.9067 16.7231C11.0777 16.8218 11.2717 16.8738 11.4692 16.8738C11.6667 16.8738 11.8608 16.8218 12.0318 16.7231L13.1569 16.0817M8.93775 6.90064L14.0007 9.7978M6.56941 8.43668L11.4693 11.2495M11.4693 11.2495L16.3691 8.43668M11.4693 11.2495L11.4692 16.875" stroke="#2C434E" stroke-width="1.05" stroke-linecap="round" stroke-linejoin="round"></path></svg>