<svg xmlns="http://www.w3.org/2000/svg" width="30" height="30" viewBox="0 0 30 30" fill="none"><rect width="30" height="30" rx="15" fill="#D8FACD"></rect><path d="M11.8893 21.4C11.558 21.4 11.2893 21.6686 11.2893 22C11.2893 22.3314 11.558 22.6 11.8893 22.6V21.4ZM18.1115 22.6C18.4429 22.6 18.7115 22.3314 18.7115 22C18.7115 21.6686 18.4429 21.4 18.1115 21.4V22.6ZM8.77821 8.6H21.2227V7.4H8.77821V8.6ZM21.2227 8.6C21.7504 8.6 22.1782 9.02782 22.1782 9.55556H23.3782C23.3782 8.36508 22.4131 7.4 21.2227 7.4V8.6ZM22.1782 9.55556V17.3333H23.3782V9.55556H22.1782ZM22.1782 17.3333C22.1782 17.8611 21.7504 18.2889 21.2227 18.2889V19.4889C22.4131 19.4889 23.3782 18.5238 23.3782 17.3333H22.1782ZM21.2227 18.2889H8.77821V19.4889H21.2227V18.2889ZM8.77821 18.2889C8.25047 18.2889 7.82266 17.8611 7.82266 17.3333H6.62266C6.62266 18.5238 7.58773 19.4889 8.77821 19.4889V18.2889ZM7.82266 17.3333V9.55556H6.62266V17.3333H7.82266ZM7.82266 9.55556C7.82266 9.02782 8.25047 8.6 8.77821 8.6V7.4C7.58773 7.4 6.62266 8.36508 6.62266 9.55556H7.82266ZM14.4004 18.8889V22H15.6004V18.8889H14.4004ZM11.8893 22.6H18.1115V21.4H11.8893V22.6Z" fill="#2C434E"></path></svg>