<svg xmlns="http://www.w3.org/2000/svg" width="30" height="30" viewBox="0 0 30 30" fill="none"><rect width="30" height="30" rx="15" fill="#D8FACD"></rect><path d="M15 7.5V22.5M18.75 9.75H13.125C12.4288 9.75 11.7611 10.0266 11.2688 10.5188C10.7766 11.0111 10.5 11.6788 10.5 12.375C10.5 13.0712 10.7766 13.7389 11.2688 14.2312C11.7611 14.7234 12.4288 15 13.125 15H16.875C17.5712 15 18.2389 15.2766 18.7312 15.7688C19.2234 16.2611 19.5 16.9288 19.5 17.625C19.5 18.3212 19.2234 18.9889 18.7312 19.4812C18.2389 19.9734 17.5712 20.25 16.875 20.25H10.5" stroke="#2C434E" stroke-width="1.4" stroke-linecap="round" stroke-linejoin="round"></path></svg>