<svg xmlns="http://www.w3.org/2000/svg" width="32" height="32" viewBox="0 0 32 32" fill="none"><path d="M18.3333 15.455C18.3333 16.9841 17.0741 18.2434 15.545 18.2434C14.0159 18.2434 12.7566 16.9841 12.7566 15.455C12.7566 13.9259 14.0159 12.6667 15.545 12.6667C17.0741 12.6667 18.3333 13.9259 18.3333 15.455ZM19.8624 15.455C19.8624 13.0265 17.8836 11.1376 15.545 11.1376C13.1164 11.1376 11.2275 13.1164 11.2275 15.455C11.2275 17.8836 13.2063 19.7725 15.545 19.7725C17.8836 19.8624 19.8624 17.8836 19.8624 15.455ZM21.0317 10.9577C21.0317 10.418 20.582 9.96825 20.0423 9.96825C19.5026 9.96825 19.0529 10.418 19.0529 10.9577C19.0529 11.4974 19.5026 11.9471 20.0423 11.9471C20.582 11.9471 21.0317 11.4974 21.0317 10.9577ZM15.455 8.5291C16.7143 8.5291 19.3228 8.43915 20.4921 8.88889C20.8519 9.06878 21.1217 9.24868 21.4815 9.51852C21.7513 9.78836 21.9312 10.1481 22.1111 10.5079C22.5608 11.5873 22.4709 14.2857 22.4709 15.545C22.4709 16.8042 22.5608 19.4127 22.1111 20.582C21.9312 20.9418 21.7513 21.2116 21.4815 21.5714C21.2116 21.8413 20.8519 22.0212 20.4921 22.2011C19.4127 22.6508 16.7143 22.5608 15.455 22.5608C14.1958 22.5608 11.5873 22.6508 10.418 22.2011C10.0582 22.0212 9.78836 21.8413 9.42857 21.5714C9.15873 21.3016 8.97884 20.9418 8.79894 20.582C8.34921 19.5026 8.43915 16.8042 8.43915 15.545C8.43915 14.2857 8.34921 11.6772 8.79894 10.5079C8.97884 10.1481 9.15873 9.87831 9.42857 9.51852C9.69841 9.24868 10.0582 9.06878 10.418 8.88889C11.5873 8.43915 14.2857 8.5291 15.455 8.5291ZM24 15.455C24 14.2857 24 13.1164 23.9101 11.9471C23.8201 10.5979 23.5503 9.42857 22.5608 8.34921C21.5714 7.35979 20.4021 7.08995 18.963 7C17.7937 7 16.6243 7 15.455 7C14.2857 7 13.1164 7 11.9471 7.08995C10.5979 7.08995 9.42857 7.44974 8.43915 8.43915C7.44974 9.42857 7.08995 10.5979 7.08995 11.9471C7 13.1164 7 14.2857 7 15.455C7 16.6243 7 17.7937 7.08995 18.963C7.17989 20.3122 7.44974 21.4815 8.43915 22.5608C9.42857 23.5503 10.5979 23.8201 12.037 23.9101C13.2063 24 14.3757 24 15.545 24C16.7143 24 17.8836 24 19.0529 23.9101C20.4021 23.8201 21.5714 23.5503 22.6508 22.5608C23.6402 21.5714 23.9101 20.4021 24 18.963C24 17.7937 24 16.6243 24 15.455Z" fill="#C8DBE3"></path></svg>