<svg xmlns="http://www.w3.org/2000/svg" width="30" height="30" viewBox="0 0 30 30" fill="none"><rect width="30" height="30" rx="15" fill="#D8FACD"></rect><path d="M20.2 15V21.5H9.8V15M15 21.5V11.75M15 11.75H12.075C11.644 11.75 11.2307 11.5788 10.926 11.274C10.6212 10.9693 10.45 10.556 10.45 10.125C10.45 9.69402 10.6212 9.2807 10.926 8.97595C11.2307 8.6712 11.644 8.5 12.075 8.5C14.35 8.5 15 11.75 15 11.75ZM15 11.75H17.925C18.356 11.75 18.7693 11.5788 19.074 11.274C19.3788 10.9693 19.55 10.556 19.55 10.125C19.55 9.69402 19.3788 9.2807 19.074 8.97595C18.7693 8.6712 18.356 8.5 17.925 8.5C15.65 8.5 15 11.75 15 11.75ZM8.5 11.75H21.5V15H8.5V11.75Z" stroke="#2C434E" stroke-width="1.4" stroke-linecap="round" stroke-linejoin="round"></path></svg>