<svg xmlns="http://www.w3.org/2000/svg" width="32" height="32" viewBox="0 0 32 32" fill="none"><path d="M24.8703 24.8756L24.8748 24.8748V18.3192C24.8748 15.1121 24.1843 12.6416 20.435 12.6416C18.6326 12.6416 17.4231 13.6307 16.9293 14.5684H16.8772V12.941H13.3223V24.8748H17.0239V18.9656C17.0239 17.4098 17.3188 15.9053 19.2456 15.9053C21.1441 15.9053 21.1724 17.6809 21.1724 19.0654V24.8756H24.8703Z" fill="#C8DBE3"></path><path d="M7.29492 12.9414H11.001V24.8752H7.29492V12.9414Z" fill="#C8DBE3"></path><path d="M9.1465 7C7.96153 7 7 7.96153 7 9.1465C7 10.3315 7.96153 11.3131 9.1465 11.3131C10.3315 11.3131 11.293 10.3315 11.293 9.1465C11.2922 7.96153 10.3307 7 9.1465 7Z" fill="#C8DBE3"></path></svg>