<svg xmlns="http://www.w3.org/2000/svg" width="30" height="30" viewBox="0 0 30 30" fill="none"><rect width="30" height="30" rx="15" fill="#D8FACD"></rect><path d="M12.6052 14.9968L14.2053 16.5969L17.4056 13.3966M8.48497 12.2926C8.36819 11.7666 8.38612 11.2196 8.5371 10.7024C8.68808 10.1851 8.96721 9.71436 9.34862 9.33375C9.73003 8.95314 10.2014 8.67499 10.7189 8.5251C11.2365 8.37521 11.7835 8.35842 12.3093 8.4763C12.5987 8.0237 12.9974 7.65124 13.4686 7.39323C13.9398 7.13523 14.4683 7 15.0055 7C15.5427 7 16.0713 7.13523 16.5425 7.39323C17.0137 7.65124 17.4124 8.0237 17.7018 8.4763C18.2283 8.35791 18.7763 8.37462 19.2947 8.52487C19.8131 8.67513 20.2851 8.95405 20.6667 9.3357C21.0483 9.71734 21.3273 10.1893 21.4775 10.7077C21.6278 11.2261 21.6445 11.7741 21.5261 12.3006C21.9787 12.59 22.3512 12.9887 22.6092 13.4599C22.8672 13.9311 23.0024 14.4597 23.0024 14.9969C23.0024 15.5341 22.8672 16.0626 22.6092 16.5338C22.3512 17.005 21.9787 17.4037 21.5261 17.6931C21.644 18.2189 21.6272 18.7659 21.4773 19.2835C21.3274 19.801 21.0493 20.2724 20.6686 20.6538C20.288 21.0352 19.8173 21.3143 19.3 21.4653C18.7828 21.6163 18.2358 21.6342 17.7098 21.5174C17.4208 21.9718 17.0218 22.3458 16.5498 22.605C16.0778 22.8641 15.548 23 15.0095 23C14.4711 23 13.9413 22.8641 13.4693 22.605C12.9973 22.3458 12.5983 21.9718 12.3093 21.5174C11.7835 21.6353 11.2365 21.6185 10.7189 21.4686C10.2014 21.3187 9.73003 21.0406 9.34862 20.66C8.96721 20.2794 8.68808 19.8086 8.5371 19.2914C8.38612 18.7741 8.36819 18.2271 8.48497 17.7011C8.0289 17.4125 7.65323 17.0132 7.39291 16.5404C7.1326 16.0676 6.99609 15.5366 6.99609 14.9969C6.99609 14.4571 7.1326 13.9262 7.39291 13.4534C7.65323 12.9806 8.0289 12.5813 8.48497 12.2926Z" stroke="#2C434E" stroke-width="1.4" stroke-linecap="round" stroke-linejoin="round"></path></svg>