<svg xmlns="http://www.w3.org/2000/svg" width="30" height="30" viewBox="0 0 30 30" fill="none"><rect width="30" height="30" rx="15" fill="#E3F1FB"></rect><mask id="path-2-inside-1_1168_3971" fill="white"><path fill-rule="evenodd" clip-rule="evenodd" d="M10.9796 10.9983C8.10182 10.9983 5.75781 13.354 5.75781 16.2434C5.75781 19.1328 8.10182 21.5 10.9913 21.5H13.7298C13.2076 21.1635 12.7202 20.6993 12.2909 20.2584H10.9912C8.75162 20.2584 6.92982 18.4365 6.92982 16.1969C6.92982 13.9574 8.75166 12.1471 10.9912 12.1471C13.5516 12.2732 13.9907 13.6496 16.0042 15.5587C16.5657 16.0977 17.3492 15.3197 16.8397 14.7465C14.2633 12.0342 13.5996 11.14 10.9796 10.9983ZM24.243 14.9669C24.2084 9.10352 17.2998 6.50322 13.37 10.2441C13.7646 10.4065 14.1359 10.5922 14.484 10.8243C17.9738 8.10017 23.022 10.4725 23.071 14.9669C23.2041 19.2969 17.7799 22.2316 14.0315 18.7034L10.9332 15.6052C10.3802 15.0762 9.57541 15.8367 10.0977 16.4174L13.2076 19.5389C17.0969 23.3774 24.0243 21.1242 24.243 14.9669Z"></path></mask><path fill-rule="evenodd" clip-rule="evenodd" d="M10.9796 10.9983C8.10182 10.9983 5.75781 13.354 5.75781 16.2434C5.75781 19.1328 8.10182 21.5 10.9913 21.5H13.7298C13.2076 21.1635 12.7202 20.6993 12.2909 20.2584H10.9912C8.75162 20.2584 6.92982 18.4365 6.92982 16.1969C6.92982 13.9574 8.75166 12.1471 10.9912 12.1471C13.5516 12.2732 13.9907 13.6496 16.0042 15.5587C16.5657 16.0977 17.3492 15.3197 16.8397 14.7465C14.2633 12.0342 13.5996 11.14 10.9796 10.9983ZM24.243 14.9669C24.2084 9.10352 17.2998 6.50322 13.37 10.2441C13.7646 10.4065 14.1359 10.5922 14.484 10.8243C17.9738 8.10017 23.022 10.4725 23.071 14.9669C23.2041 19.2969 17.7799 22.2316 14.0315 18.7034L10.9332 15.6052C10.3802 15.0762 9.57541 15.8367 10.0977 16.4174L13.2076 19.5389C17.0969 23.3774 24.0243 21.1242 24.243 14.9669Z" fill="#2C434E"></path><path d="M10.9796 10.9983L11.1955 7.00418L11.0877 6.99835H10.9796V10.9983ZM13.7298 21.5V25.5H27.3207L15.8966 18.1377L13.7298 21.5ZM12.2909 20.2584L15.1566 17.4677L13.9789 16.2584H12.2909V20.2584ZM10.9912 12.1471L11.1879 8.15197L11.0896 8.14714H10.9912V12.1471ZM16.0042 15.5587L18.774 12.6729L18.7652 12.6645L18.7564 12.6561L16.0042 15.5587ZM16.8397 14.7465L19.8293 12.0891L19.7854 12.0396L19.7398 11.9916L16.8397 14.7465ZM24.243 14.9669L28.2405 15.1089L28.2434 15.0262L28.2429 14.9433L24.243 14.9669ZM13.37 10.2441L10.6121 7.3469L6.14806 11.5964L11.8471 13.9429L13.37 10.2441ZM14.484 10.8243L12.265 14.1524L14.6684 15.7548L16.9453 13.9774L14.484 10.8243ZM23.071 14.9669L19.0712 15.0106L19.0717 15.0502L19.0729 15.0898L23.071 14.9669ZM14.0315 18.7034L11.203 21.5319L11.2458 21.5747L11.2899 21.6161L14.0315 18.7034ZM10.9332 15.6052L13.7616 12.7767L13.7303 12.7454L13.6982 12.7147L10.9332 15.6052ZM10.0977 16.4174L7.12352 19.0922L7.19187 19.1682L7.26401 19.2406L10.0977 16.4174ZM13.2076 19.5389L10.3739 22.3621L10.3858 22.374L10.3978 22.3859L13.2076 19.5389ZM10.9796 6.99835C5.87537 6.99835 1.75781 11.1622 1.75781 16.2434H9.75781C9.75781 15.5458 10.3283 14.9983 10.9796 14.9983V6.99835ZM1.75781 16.2434C1.75781 21.3189 5.8697 25.5 10.9913 25.5V17.5C10.3339 17.5 9.75781 16.9467 9.75781 16.2434H1.75781ZM10.9913 25.5H13.7298V17.5H10.9913V25.5ZM15.8966 18.1377C15.7745 18.0591 15.5474 17.8691 15.1566 17.4677L9.42515 23.049C9.89304 23.5295 10.6407 24.2679 11.5629 24.8623L15.8966 18.1377ZM12.2909 16.2584H10.9912V24.2584H12.2909V16.2584ZM10.9912 16.2584C10.9831 16.2584 10.979 16.2576 10.9775 16.2573C10.9759 16.257 10.9743 16.2565 10.9722 16.2556C10.9675 16.2536 10.9587 16.2487 10.9491 16.2391C10.9396 16.2295 10.9346 16.2207 10.9326 16.216C10.9317 16.2139 10.9312 16.2123 10.9309 16.2106C10.9306 16.2092 10.9298 16.2051 10.9298 16.1969H2.92982C2.92982 20.6456 6.54243 24.2584 10.9912 24.2584V16.2584ZM10.9298 16.1969C10.9298 16.1888 10.9306 16.1852 10.9307 16.1847C10.9308 16.1839 10.931 16.1835 10.9313 16.1827C10.9322 16.1807 10.9355 16.1742 10.9435 16.1662C10.9516 16.1582 10.9596 16.1534 10.9652 16.151C10.9677 16.15 10.9702 16.1492 10.973 16.1486C10.9757 16.1481 10.9813 16.1471 10.9912 16.1471V8.14714C6.55745 8.14714 2.92982 11.7333 2.92982 16.1969H10.9298ZM10.7945 16.1423C11.076 16.1562 11.1242 16.1945 11.06 16.1683C10.9866 16.1384 10.9713 16.109 11.0633 16.1898C11.2057 16.3149 11.3754 16.4941 11.776 16.9333C12.1374 17.3296 12.6309 17.8725 13.2519 18.4613L18.7564 12.6561C18.3707 12.2904 18.0543 11.9453 17.687 11.5426C17.359 11.1829 16.8814 10.6522 16.3422 10.1787C14.9927 8.99356 13.3853 8.26015 11.1879 8.15197L10.7945 16.1423ZM13.2343 18.4446C14.1041 19.2794 15.3002 19.7916 16.612 19.7362C17.8483 19.684 18.8958 19.1411 19.6265 18.4234C21.1415 16.9353 21.6864 14.1783 19.8293 12.0891L13.85 17.4039C13.2959 16.7806 12.9418 15.8858 13.0136 14.9004C13.0801 13.9883 13.4927 13.2345 14.0206 12.716C14.549 12.197 15.3272 11.7834 16.2745 11.7434C17.2974 11.7002 18.185 12.1076 18.774 12.6729L13.2343 18.4446ZM19.7398 11.9916C18.6439 10.838 17.4678 9.51943 16.2452 8.64937C14.6622 7.52294 13.0542 7.10465 11.1955 7.00418L10.7637 14.9925C11.2097 15.0166 11.3939 15.0643 11.4528 15.0826C11.4807 15.0913 11.5111 15.0994 11.6068 15.1675C11.7421 15.2638 11.9631 15.4492 12.3711 15.8589C12.7923 16.2819 13.2491 16.7745 13.9395 17.5013L19.7398 11.9916ZM28.2429 14.9433C28.1868 5.42216 16.9693 1.29518 10.6121 7.3469L16.128 13.1413C17.6302 11.7113 20.2301 12.7849 20.2431 14.9905L28.2429 14.9433ZM11.8471 13.9429C12.0679 14.0337 12.1912 14.1032 12.265 14.1524L16.703 7.49624C16.0806 7.08128 15.4612 6.77932 14.8929 6.54533L11.8471 13.9429ZM16.9453 13.9774C17.8512 13.2702 19.0587 13.8613 19.0712 15.0106L27.0708 14.9233C26.9852 7.08363 18.0963 2.93011 12.0227 7.67125L16.9453 13.9774ZM19.0729 15.0898C19.0843 15.4599 18.8631 15.9045 18.3315 16.1497C18.0907 16.2608 17.8491 16.2926 17.6311 16.2603C17.4349 16.2312 17.1375 16.1338 16.773 15.7907L11.2899 21.6161C17.7248 27.673 27.3079 22.6116 27.0691 14.844L19.0729 15.0898ZM16.8599 15.875L13.7616 12.7767L8.10477 18.4336L11.203 21.5319L16.8599 15.875ZM13.6982 12.7147C11.6617 10.7666 8.87378 11.2409 7.34381 12.7079C6.60487 13.4165 6.03153 14.4458 5.94092 15.6777C5.84476 16.985 6.31734 18.1958 7.12352 19.0922L13.0719 13.7427C13.6169 14.3488 13.9942 15.2467 13.9194 16.2646C13.85 17.207 13.4145 17.9704 12.8806 18.4824C12.3476 18.9934 11.5801 19.3859 10.6608 19.4238C9.66585 19.4649 8.77599 19.0771 8.16816 18.4956L13.6982 12.7147ZM7.26401 19.2406L10.3739 22.3621L16.0413 16.7158L12.9314 13.5943L7.26401 19.2406ZM10.3978 22.3859C16.6229 28.5296 27.891 24.9468 28.2405 15.1089L20.2455 14.8249C20.1951 16.2445 19.4702 16.9623 18.681 17.2621C17.7995 17.5971 16.7741 17.4388 16.0174 16.692L10.3978 22.3859Z" fill="#2C434E" mask="url(#path-2-inside-1_1168_3971)"></path></svg>