<svg xmlns="http://www.w3.org/2000/svg" width="30" height="30" viewBox="0 0 30 30" fill="none"><rect width="30" height="30" rx="15" fill="#D8FACD"></rect><path fill-rule="evenodd" clip-rule="evenodd" d="M10.9796 10.9983C8.10182 10.9983 5.75781 13.354 5.75781 16.2434C5.75781 19.1328 8.10182 21.5 10.9913 21.5H13.7298C13.2076 21.1635 12.7202 20.6993 12.2909 20.2584H10.9912C8.75162 20.2584 6.92982 18.4365 6.92982 16.1969C6.92982 13.9574 8.75166 12.1471 10.9912 12.1471C13.5516 12.2732 13.9907 13.6496 16.0042 15.5587C16.5657 16.0977 17.3492 15.3197 16.8397 14.7465C14.2633 12.0342 13.5996 11.14 10.9796 10.9983ZM24.243 14.9669C24.2084 9.10352 17.2998 6.50322 13.37 10.2441C13.7646 10.4065 14.1359 10.5922 14.484 10.8243C17.9738 8.10017 23.022 10.4725 23.071 14.9669C23.2041 19.2969 17.7799 22.2316 14.0315 18.7034L10.9332 15.6052C10.3802 15.0762 9.57541 15.8367 10.0977 16.4174L13.2076 19.5389C17.0969 23.3774 24.0243 21.1242 24.243 14.9669Z" fill="#2C434E"></path></svg>