<svg xmlns="http://www.w3.org/2000/svg" width="30" height="30" viewBox="0 0 30 30" fill="none"><rect width="30" height="30" rx="15" fill="#D8FACD"></rect><path d="M15.0004 9.55556C16.1671 8.38889 17.1315 8 18.5004 8C19.635 8 20.723 8.45069 21.5253 9.25293C22.3275 10.0552 22.7782 11.1432 22.7782 12.2778C22.7782 14.0589 21.6038 15.42 20.4449 16.5556L15.0004 22L9.55599 16.5556C8.38932 15.4278 7.22266 14.0667 7.22266 12.2778C7.22266 11.1432 7.67335 10.0552 8.47559 9.25293C9.27783 8.45069 10.3659 8 11.5004 8C12.8693 8 13.8338 8.38889 15.0004 9.55556ZM15.0004 9.55556L12.6979 11.8578C12.5399 12.0147 12.4145 12.2013 12.3289 12.4068C12.2433 12.6124 12.1992 12.8329 12.1992 13.0556C12.1992 13.2782 12.2433 13.4987 12.3289 13.7043C12.4145 13.9098 12.5399 14.0965 12.6979 14.2533C13.3357 14.8911 14.3546 14.9144 15.0312 14.3078L16.6412 12.83C17.0448 12.4638 17.5702 12.261 18.1151 12.261C18.6601 12.261 19.1855 12.4638 19.589 12.83L21.8912 14.8989M19.6671 17.3333L18.1115 15.7778M17.3338 19.6667L15.7782 18.1111" stroke="#2C434E" stroke-width="1.4" stroke-linecap="round" stroke-linejoin="round"></path></svg>