<svg xmlns="http://www.w3.org/2000/svg" width="24" height="24" viewBox="0 0 24 24" fill="none"><rect width="24" height="24" rx="12" fill="#EAF0F4"></rect><path d="M14 11.9683C14 13.0476 13.1111 13.9365 12.0317 13.9365C10.9524 13.9365 10.0635 13.0476 10.0635 11.9683C10.0635 10.8889 10.9524 10 12.0317 10C13.1111 10 14 10.8889 14 11.9683ZM15.0794 11.9683C15.0794 10.254 13.6825 8.92063 12.0317 8.92063C10.3175 8.92063 8.98413 10.3175 8.98413 11.9683C8.98413 13.6825 10.381 15.0159 12.0317 15.0159C13.6825 15.0794 15.0794 13.6825 15.0794 11.9683ZM15.9048 8.79365C15.9048 8.4127 15.5873 8.09524 15.2063 8.09524C14.8254 8.09524 14.5079 8.4127 14.5079 8.79365C14.5079 9.1746 14.8254 9.49206 15.2063 9.49206C15.5873 9.49206 15.9048 9.1746 15.9048 8.79365ZM11.9683 7.07937C12.8571 7.07937 14.6984 7.01587 15.5238 7.33333C15.7778 7.46032 15.9683 7.5873 16.2222 7.77778C16.4127 7.96825 16.5397 8.22222 16.6667 8.47619C16.9841 9.2381 16.9206 11.1429 16.9206 12.0317C16.9206 12.9206 16.9841 14.7619 16.6667 15.5873C16.5397 15.8413 16.4127 16.0317 16.2222 16.2857C16.0317 16.4762 15.7778 16.6032 15.5238 16.7302C14.7619 17.0476 12.8571 16.9841 11.9683 16.9841C11.0794 16.9841 9.2381 17.0476 8.4127 16.7302C8.15873 16.6032 7.96825 16.4762 7.71429 16.2857C7.52381 16.0952 7.39683 15.8413 7.26984 15.5873C6.95238 14.8254 7.01587 12.9206 7.01587 12.0317C7.01587 11.1429 6.95238 9.30159 7.26984 8.47619C7.39683 8.22222 7.52381 8.03175 7.71429 7.77778C7.90476 7.5873 8.15873 7.46032 8.4127 7.33333C9.2381 7.01587 11.1429 7.07937 11.9683 7.07937ZM18 11.9683C18 11.1429 18 10.3175 17.9365 9.49206C17.873 8.53968 17.6825 7.71429 16.9841 6.95238C16.2857 6.25397 15.4603 6.06349 14.4444 6C13.619 6 12.7937 6 11.9683 6C11.1429 6 10.3175 6 9.49206 6.06349C8.53968 6.06349 7.71429 6.31746 7.01587 7.01587C6.31746 7.71429 6.06349 8.53968 6.06349 9.49206C6 10.3175 6 11.1429 6 11.9683C6 12.7937 6 13.619 6.06349 14.4444C6.12698 15.3968 6.31746 16.2222 7.01587 16.9841C7.71429 17.6825 8.53968 17.873 9.55556 17.9365C10.381 18 11.2063 18 12.0317 18C12.8571 18 13.6825 18 14.5079 17.9365C15.4603 17.873 16.2857 17.6825 17.0476 16.9841C17.746 16.2857 17.9365 15.4603 18 14.4444C18 13.619 18 12.7937 18 11.9683Z" fill="#1D2C34"></path></svg>