<svg xmlns="http://www.w3.org/2000/svg" width="32" height="32" viewBox="0 0 32 32" fill="none"><path fill-rule="evenodd" clip-rule="evenodd" d="M5.55607 10.1932C4.81464 13.6922 4.81464 17.3077 5.55607 20.8067C5.65349 21.162 5.84172 21.4859 6.10225 21.7464C6.36277 22.0069 6.68663 22.1951 7.04195 22.2926C12.7344 23.2358 18.5433 23.2358 24.2357 22.2926C24.5911 22.1951 24.9149 22.0069 25.1754 21.7464C25.436 21.4859 25.6242 21.162 25.7216 20.8067C26.463 17.3077 26.463 13.6922 25.7216 10.1932C25.6242 9.83785 25.436 9.514 25.1754 9.25347C24.9149 8.99294 24.5911 8.80471 24.2357 8.70729C18.5433 7.76424 12.7344 7.76424 7.04195 8.70729C6.68663 8.80471 6.36277 8.99294 6.10225 9.25347C5.84172 9.514 5.65349 9.83785 5.55607 10.1932ZM18.8232 15.5003L13.5164 18.6843V12.3162L18.8232 15.5003Z" fill="#C8DBE3"></path></svg>