<svg xmlns="http://www.w3.org/2000/svg" width="23" height="23" viewBox="0 0 23 23" fill="none"><rect x="0.5" width="22.5" height="22.5" rx="11.25" fill="#E3F1FB"></rect><path d="M11.7493 7.16667C12.6243 6.29167 13.3477 6 14.3743 6C15.2253 6 16.0413 6.33802 16.643 6.9397C17.2447 7.54138 17.5827 8.35743 17.5827 9.20833C17.5827 10.5442 16.7018 11.565 15.8327 12.4167L11.7493 16.5L7.66602 12.4167C6.79102 11.5708 5.91602 10.55 5.91602 9.20833C5.91602 8.35743 6.25404 7.54138 6.85571 6.9397C7.45739 6.33802 8.27345 6 9.12435 6C10.151 6 10.8743 6.29167 11.7493 7.16667ZM11.7493 7.16667L10.0225 8.89333C9.90394 9.01099 9.80987 9.15095 9.74568 9.30512C9.68149 9.4593 9.64844 9.62466 9.64844 9.79167C9.64844 9.95867 9.68149 10.124 9.74568 10.2782C9.80987 10.4324 9.90394 10.5723 10.0225 10.69C10.5008 11.1683 11.265 11.1858 11.7725 10.7308L12.98 9.6225C13.2826 9.34786 13.6767 9.19573 14.0854 9.19573C14.4941 9.19573 14.8881 9.34786 15.1908 9.6225L16.9175 11.1742M15.2493 13L14.0827 11.8333M13.4993 14.75L12.3327 13.5833" stroke="#2C434E" stroke-width="1.05" stroke-linecap="round" stroke-linejoin="round"></path></svg>