<svg xmlns="http://www.w3.org/2000/svg" width="30" height="30" viewBox="0 0 30 30" fill="none"><rect width="30" height="30" rx="15" fill="#D8FACD"></rect><path d="M17.626 17.9996L19.1261 19.4997L22.1264 16.4994M21.3763 13.499V11.9989C21.376 11.7358 21.3066 11.4775 21.175 11.2497C21.0433 11.0219 20.8541 10.8328 20.6262 10.7013L15.3757 7.70098C15.1477 7.56932 14.889 7.5 14.6257 7.5C14.3623 7.5 14.1036 7.56932 13.8756 7.70098L8.62507 10.7013C8.39725 10.8328 8.20802 11.0219 8.07637 11.2497C7.94471 11.4775 7.87527 11.7358 7.875 11.9989V17.9995C7.87527 18.2626 7.94471 18.5209 8.07637 18.7487C8.20802 18.9764 8.39725 19.1656 8.62507 19.2971L13.8756 22.2974C14.1036 22.4291 14.3623 22.4984 14.6257 22.4984C14.889 22.4984 15.1477 22.4291 15.3757 22.2974L16.8759 21.4423M11.2503 9.20085L18.001 13.0637M8.09255 11.2489L14.6257 14.9993M14.6257 14.9993L21.1588 11.2489M14.6257 14.9993L14.6257 22.5" stroke="#2C434E" stroke-width="1.4" stroke-linecap="round" stroke-linejoin="round"></path></svg>