<svg xmlns="http://www.w3.org/2000/svg" width="90" height="100" viewBox="0 0 90 100" fill="none"><path d="M13.9844 58L3.48438 71H24.4844L13.9844 58Z" fill="#AAADF0"></path><path d="M89.4823 56.377V99.8717H46.7578C51.8578 96.0592 55.5747 90.4142 57.6513 83.1147C58.7539 79.2479 61.7616 76.2297 65.6928 75.0441C72.3161 73.0449 78.133 69.585 82.9836 64.7613C85.5161 62.2429 87.694 59.4262 89.4823 56.377Z" fill="#AAADF0"></path><path d="M89.4852 69.9688V99.868H58.3711C60.6036 96.8033 62.3373 93.1497 63.5334 88.9575C64.6321 85.0869 67.6399 82.0687 71.5749 80.8831C78.1944 78.8839 84.0151 75.424 88.8618 70.6042C89.0722 70.3949 89.2826 70.1818 89.4852 69.9688Z" fill="#A2F5E0"></path><path d="M89.2658 31.666C89.0748 29.9574 88.7671 28.2836 88.3424 26.6563C88.0891 25.68 87.7891 24.7152 87.4502 23.7699C86.8463 22.0651 86.1177 20.4184 85.2723 18.8493C79.9424 8.93065 70.0308 1.81713 58.3464 0.302208C58.2412 0.290585 58.1321 0.275087 58.027 0.267338C56.601 0.0929872 55.1477 0 53.6672 0H13.4844V100H27.8206C43.7478 100 49.8724 89.8334 52.2257 81.5847C53.8581 75.8543 58.3231 71.4026 64.0542 69.6707C68.6282 68.2914 74.071 65.6877 78.9918 60.7904C81.497 58.2991 83.6398 55.432 85.3151 52.2859C86.145 50.74 86.8619 49.1205 87.4541 47.4429C87.7969 46.4742 88.1047 45.4824 88.3619 44.4789C88.7826 42.8516 89.0865 41.1778 89.2736 39.4692C89.4138 38.1984 89.4839 36.912 89.4839 35.6064C89.4839 34.3007 89.4099 32.9562 89.2658 31.6621V31.666Z" fill="#A2F5E0"></path><path d="M13.4844 57C20.6641 57 26.4844 51.1797 26.4844 44C26.4844 36.8203 20.6641 31 13.4844 31C6.30467 31 0.484375 36.8203 0.484375 44C0.484375 51.1797 6.30467 57 13.4844 57Z" fill="#AAADF0"></path><path d="M13.4844 50C16.7981 50 19.4844 47.3137 19.4844 44C19.4844 40.6863 16.7981 38 13.4844 38C10.1707 38 7.48438 40.6863 7.48438 44C7.48438 47.3137 10.1707 50 13.4844 50Z" fill="black"></path><path d="M65.9555 16.432C65.9555 12.7729 62.9726 9.80664 59.2932 9.80664C55.6137 9.80664 52.6309 12.7729 52.6309 16.432V54.7931C52.6309 58.4522 55.6137 61.4184 59.2932 61.4184C62.9726 61.4184 65.9555 58.4522 65.9555 54.7931V16.432Z" fill="black"></path><path d="M89.4839 35.6102C89.4839 36.9159 89.4138 38.2022 89.2735 39.4731H52.6348V31.666H89.2658C89.4099 32.9601 89.4839 34.2735 89.4839 35.6102Z" fill="#80CAED"></path><path d="M88.3424 26.6567H52.6348V18.8496H85.2762C86.1177 20.4188 86.8463 22.0693 87.4541 23.7702C87.793 24.7156 88.0891 25.6764 88.3463 26.6567H88.3424Z" fill="#AAADF0"></path><path d="M88.3618 44.4824C88.1047 45.4898 87.7969 46.4778 87.4541 47.4464C86.8619 49.1202 86.145 50.7397 85.3151 52.2895H52.6309V44.4824H88.3618Z" fill="#AAADF0"></path></svg>