<svg xmlns="http://www.w3.org/2000/svg" width="95" height="96" viewBox="0 0 95 96" fill="none"><path d="M0.644531 48C0.64453 21.4923 21.6441 1.13254e-06 47.5536 0C73.4632 -1.13254e-06 94.4627 21.488 94.4627 48" fill="#80CAED"></path><path d="M0.644531 96C0.64453 69.4923 21.6441 48 47.5536 48C73.4632 48 94.4627 69.488 94.4627 96" fill="black"></path><path d="M73.7347 47.999C73.7347 62.4567 62.0148 74.1809 47.5529 74.1809C33.091 74.1809 21.3711 62.4609 21.3711 47.999" fill="#AAADF0"></path><path d="M21.3711 47.9992C21.3711 33.5415 33.091 21.8174 47.5529 21.8174C62.0148 21.8174 73.7347 33.5373 73.7347 47.9992" fill="#A2F5E0"></path><path d="M59.5527 47.999C59.5527 41.3716 54.1802 35.999 47.5527 35.999C40.9253 35.999 35.5527 41.3716 35.5527 47.999C35.5527 54.6264 40.9253 59.999 47.5527 59.999C54.1802 59.999 59.5527 54.6264 59.5527 47.999Z" fill="black"></path></svg>