<svg xmlns="http://www.w3.org/2000/svg" width="20" height="20" viewBox="0 0 20 20" fill="none"><path d="M8.5588 18.8812C10.2852 19.1649 12.0569 18.938 13.6562 18.2284C15.2554 17.5188 16.6125 16.3575 17.5607 14.8871C18.5088 13.4167 19.0068 11.7014 18.9933 9.95186C18.9798 8.20232 18.4555 6.49485 17.4848 5.03926M11.3422 1.1029C9.62282 0.84034 7.8642 1.0828 6.28002 1.80083C4.69584 2.51886 3.3543 3.68155 2.41843 5.14761C1.48255 6.61366 0.992621 8.31998 1.00817 10.0592C1.02372 11.7985 1.54408 13.4957 2.50602 14.9448M12.6892 9.99203C12.6892 11.4797 11.4832 12.6857 9.99552 12.6857C8.50784 12.6857 7.30184 11.4797 7.30184 9.99203C7.30184 8.50435 8.50784 7.29835 9.99552 7.29835C11.4832 7.29835 12.6892 8.50435 12.6892 9.99203ZM18.0766 3.70678C18.0766 4.69856 17.2726 5.50257 16.2808 5.50257C15.289 5.50257 14.485 4.69856 14.485 3.70678C14.485 2.71499 15.289 1.91099 16.2808 1.91099C17.2726 1.91099 18.0766 2.71499 18.0766 3.70678ZM5.50605 16.2773C5.50605 17.2691 4.70205 18.0731 3.71026 18.0731C2.71848 18.0731 1.91447 17.2691 1.91447 16.2773C1.91447 15.2855 2.71848 14.4815 3.71026 14.4815C4.70205 14.4815 5.50605 15.2855 5.50605 16.2773Z" stroke="#A2F5E0" stroke-width="2" stroke-linecap="round" stroke-linejoin="round"></path></svg>