<svg xmlns="http://www.w3.org/2000/svg" width="1431" height="228" viewBox="0 0 1431 228" fill="none"><path d="M0 0V33.9633H38.2453V0H0Z" fill="white"></path><path d="M1.26579 51.1735V177.868H37.2491V51.1735H1.26579Z" fill="white"></path><path d="M66.6333 177.868V51.1728H101.593V69.4068C109.942 54.2167 123.894 47.3755 139.596 47.3755C156.564 47.3755 168.469 56.5056 175.821 69.4068C187.483 52.9509 201.92 47.3755 218.376 47.3755C241.943 47.3755 260.177 60.0341 260.177 93.2432V177.868H224.194V100.839C224.194 83.8704 216.329 77.0292 204.424 77.0292C181.612 77.0292 181.127 100.596 181.127 113.255V177.868H145.656V100.839C145.656 83.8704 137.791 77.0292 125.887 77.0292C103.074 77.0292 102.59 100.596 102.59 113.255V177.868H66.6333Z" fill="white"></path><path fill-rule="evenodd" clip-rule="evenodd" d="M281.508 145.426C281.517 109.966 319.005 99.5715 361.07 95.5321V90.7116C361.07 79.8304 354.74 73.2318 340.303 73.2318C323.821 73.2318 315.471 81.3388 312.428 93.2432L280 86.1593C282.02 66.3906 303.055 47.4024 340.034 47.4024C377.014 47.4024 396.541 63.1048 396.541 96.5559V142.908C396.541 149.238 397.295 150.504 404.136 150.504H415.286V177.868H387.68C373.486 177.868 366.133 170.785 364.867 159.365C358.026 170.003 343.832 181.908 321.531 181.908C299.235 181.908 281.515 167.72 281.508 145.426ZM361.07 125.94V117.833C337.772 120.607 318.003 125.186 318.003 141.912C318.003 150.261 323.578 155.594 334.459 155.594C348.384 155.594 361.07 146.464 361.07 125.94Z" fill="white"></path><path fill-rule="evenodd" clip-rule="evenodd" d="M456.307 227.291C429.454 227.291 418.303 217.407 418.303 201.193C418.303 190.042 425.899 180.912 433.251 176.117C425.899 171.054 421.346 164.213 421.346 152.82C421.346 140.161 430.962 130.788 441.358 125.213C433.009 118.372 427.676 106.979 427.676 94.8055C427.676 66.4176 450.731 47.4294 482.647 47.4294C505.46 47.4294 523.694 57.826 532.043 73.0161C532.797 56.2906 537.618 51.2268 554.587 51.2268H564.201V78.5915H550.277C542.413 78.5915 540.393 80.3689 538.884 93.2971L538.642 95.586C535.598 122.951 513.567 139.676 483.913 139.676C474.541 139.676 465.167 138.653 457.572 135.367C450.489 137.387 447.957 140.188 447.957 144.228C447.957 149.561 453.29 149.803 460.616 149.803H515.102C542.224 149.803 559.192 167.553 559.192 188.049C559.192 213.635 539.934 227.318 515.102 227.318H456.333L456.307 227.291ZM507.992 201.193C519.896 201.193 523.693 196.371 523.693 189.288C523.693 183.47 519.896 177.895 507.992 177.895H452.509C449.465 179.673 445.91 184.224 445.91 189.288C445.91 197.395 451.727 201.193 458.569 201.193H507.992ZM505.972 94.5359C505.972 81.3658 497.11 71.7234 483.671 71.7234C470.231 71.7234 461.37 81.3388 461.37 94.5359C461.37 107.733 470.231 116.083 483.671 116.083C497.11 116.083 505.972 107.464 505.972 94.5359Z" fill="white"></path><path fill-rule="evenodd" clip-rule="evenodd" d="M564.767 114.278C564.767 74.4976 592.131 47.4024 628.869 47.4024C671.423 47.4024 693.724 80.8535 690.196 123.166H600.75C601.773 145.467 613.678 154.598 629.137 154.598C645.351 154.598 653.216 144.471 658.522 132.566L690.708 144.982C683.624 161.196 667.652 181.962 629.137 181.962C590.623 181.962 564.794 155.863 564.794 114.305L564.767 114.278ZM654.724 97.8217C653.216 82.1193 644.086 73.2318 628.869 73.2318C613.651 73.2318 604.548 81.8504 602.016 97.8217H654.724Z" fill="white"></path><path d="M712.47 177.868V177.841H748.426V117.806C748.426 104.366 748.695 77.0022 773.771 77.0022C786.186 77.0022 794.051 84.0854 794.051 100.812V177.841H830.034V92.9736C830.034 65.3668 817.618 47.3755 788.233 47.3755C764.909 47.3755 752.762 62.0541 747.43 70.6726V51.1728H712.47V177.841H712.443L712.47 177.868Z" fill="white"></path><path fill-rule="evenodd" clip-rule="evenodd" d="M851.312 145.426C851.321 109.966 888.808 99.5715 930.873 95.5321V90.7116C930.873 79.8304 924.544 73.2318 910.107 73.2318C893.651 73.2318 885.275 81.3388 882.231 93.2432L849.804 86.1593C851.824 66.3906 872.859 47.4024 909.838 47.4024C946.818 47.4024 966.344 63.1048 966.344 96.5559V142.908C966.344 149.238 967.099 150.504 973.94 150.504H985.09V177.868H957.483C943.289 177.868 935.937 170.785 934.671 159.365C927.83 170.003 913.636 181.908 891.335 181.908C869.038 181.908 851.319 167.72 851.312 145.426ZM930.873 125.94V117.833C907.576 120.607 887.806 125.186 887.806 141.912C887.806 150.261 893.382 155.594 904.263 155.594C918.187 155.594 930.873 146.464 930.873 125.94Z" fill="white"></path><path d="M1042.08 177.868C1021.56 177.868 1009.9 164.429 1009.9 144.686V78.5646H983.286V51.2005H1009.9V11.4197H1045.88V51.2005H1078.82V78.5646H1045.88V138.115C1045.88 145.71 1049.16 149.265 1057.03 149.265H1084.39V177.895H1042.08V177.868Z" fill="white"></path><path d="M1100.88 33.9633V0H1139.12V33.9633H1100.88Z" fill="white"></path><path d="M1102.14 51.1735V177.868H1138.13V51.1735H1102.14Z" fill="white"></path><path fill-rule="evenodd" clip-rule="evenodd" d="M1225.52 47.3755C1186.77 47.3755 1158.89 73.9854 1158.89 114.52C1158.89 153.52 1186.77 181.908 1225.52 181.908C1264.28 181.908 1292.16 155.055 1292.16 114.52C1292.16 73.9854 1264.28 47.3755 1225.52 47.3755ZM1225.52 75.7634C1242.76 75.7634 1254.67 88.9336 1254.67 115.033C1254.67 141.104 1242.76 153.278 1225.52 153.278C1208.29 153.278 1196.38 141.131 1196.38 115.033C1196.38 88.9336 1208.29 75.7634 1225.52 75.7634Z" fill="white"></path><path d="M1313.44 177.841V177.868L1313.41 177.841H1313.44Z" fill="white"></path><path d="M1313.44 177.841V51.1728H1348.39V70.6726C1353.73 62.0541 1365.87 47.3755 1389.2 47.3755C1418.58 47.3755 1431 65.3668 1431 92.9736V177.841H1395.02V100.812C1395.02 84.0854 1387.15 77.0022 1374.74 77.0022C1349.66 77.0022 1349.39 104.366 1349.39 117.806V177.841H1313.44Z" fill="white"></path></svg>