<svg xmlns="http://www.w3.org/2000/svg" width="109" height="80" viewBox="0 0 109 80" fill="none"><g clip-path="url(#clip0_732_5724)"><path d="M78.3189 80.0002H0L30.5071 50.1172H108.826L78.3189 80.0002Z" fill="#A2F5E0"></path><path d="M39.3809 72.1574C44.9545 72.1574 49.4728 67.6391 49.4728 62.0655C49.4728 56.4919 44.9545 51.9736 39.3809 51.9736C33.8073 51.9736 29.2891 56.4919 29.2891 62.0655C29.2891 67.6391 33.8073 72.1574 39.3809 72.1574Z" fill="black"></path><path d="M78.3189 54.9437H0L30.5071 25.0557H108.826L78.3189 54.9437Z" fill="#AAADF0"></path><path d="M69.627 43.4992C75.2006 43.4992 79.7189 38.9809 79.7189 33.4073C79.7189 27.8337 75.2006 23.3154 69.627 23.3154C64.0534 23.3154 59.5352 27.8337 59.5352 33.4073C59.5352 38.9809 64.0534 43.4992 69.627 43.4992Z" fill="black"></path><path d="M78.3189 29.883H0L30.5071 0H108.826L78.3189 29.883Z" fill="#80CAED"></path><path d="M40.4288 22.7052C46.0024 22.7052 50.5206 18.1869 50.5206 12.6133C50.5206 7.03976 46.0024 2.52148 40.4288 2.52148C34.8552 2.52148 30.3369 7.03976 30.3369 12.6133C30.3369 18.1869 34.8552 22.7052 40.4288 22.7052Z" fill="black"></path></g><defs><clipPath id="clip0_732_5724"><rect width="108.826" height="80" fill="white"></rect></clipPath></defs></svg>