<svg xmlns="http://www.w3.org/2000/svg" width="103" height="17" viewBox="0 0 103 17" fill="none"><g style="mix-blend-mode:darken"><path d="M0 2.44109V0H2.74885V2.44109H0Z" fill="#052E2B"></path><path d="M0.0909805 12.7841V3.67805H2.67725V12.7841H0.0909805Z" fill="#052E2B"></path><path d="M4.78921 12.7841V3.67801H7.3019V4.98856C7.90202 3.89678 8.90476 3.40507 10.0334 3.40507C11.2529 3.40507 12.1085 4.06129 12.637 4.98856C13.4752 3.8058 14.5128 3.40507 15.6956 3.40507C17.3895 3.40507 18.7 4.3149 18.7 6.70178V12.7841H16.1137V7.24769C16.1137 6.02811 15.5485 5.53641 14.6928 5.53641C13.0532 5.53641 13.0184 7.23025 13.0184 8.14007V12.7841H10.4689V7.24769C10.4689 6.02811 9.90362 5.53641 9.04801 5.53641C7.40838 5.53641 7.37355 7.23025 7.37355 8.14007V12.7841H4.78921Z" fill="#052E2B"></path><path fill-rule="evenodd" clip-rule="evenodd" d="M25.9516 6.86629C22.9282 7.15662 20.2338 7.90372 20.2332 10.4524C20.2336 12.0547 21.5072 13.0745 23.1098 13.0745C24.7126 13.0745 25.7328 12.2189 26.2245 11.4542C26.3155 12.275 26.844 12.7841 27.8641 12.7841H29.8484V10.8173H29.0469C28.5552 10.8173 28.501 10.7263 28.501 10.2714V6.93988C28.501 4.53561 27.0976 3.40701 24.4397 3.40701C21.7818 3.40701 20.2699 4.77177 20.1248 6.19263L22.4555 6.70178C22.6742 5.84616 23.2743 5.26348 24.459 5.26348C25.4966 5.26348 25.9516 5.73774 25.9516 6.51982V6.86629ZM25.9516 8.46915V9.05184C25.9516 10.527 25.0398 11.1832 24.039 11.1832C23.2569 11.1832 22.8562 10.7999 22.8562 10.1998C22.8562 8.99763 24.2771 8.66855 25.9516 8.46915Z" fill="#052E2B"></path><path fill-rule="evenodd" clip-rule="evenodd" d="M32.7966 16.3363C30.8666 16.3363 30.0652 15.6259 30.0652 14.4605C30.0652 13.6591 30.6111 13.0029 31.1396 12.6583C30.6111 12.2943 30.2839 11.8027 30.2839 10.9838C30.2839 10.074 30.975 9.40029 31.7223 8.99956C31.1221 8.50791 30.7388 7.68906 30.7388 6.81407C30.7388 4.77371 32.3959 3.40895 34.6899 3.40895C36.3295 3.40895 37.6401 4.15619 38.2401 5.24797C38.2943 4.04584 38.6409 3.68188 39.8604 3.68188H40.5515V5.6487H39.5507C38.9855 5.6487 38.8403 5.77645 38.7318 6.70565L38.7144 6.87017C38.4957 8.83699 36.9122 10.0391 34.7809 10.0391C34.1072 10.0391 33.4335 9.96558 32.8876 9.72937C32.3785 9.87456 32.1965 10.0759 32.1965 10.3663C32.1965 10.7496 32.5798 10.767 33.1063 10.767H37.0225C38.9719 10.767 40.1915 12.0427 40.1915 13.5158C40.1915 15.3549 38.8073 16.3383 37.0225 16.3383H32.7986L32.7966 16.3363ZM36.5115 14.4605C37.3671 14.4605 37.64 14.114 37.64 13.6049C37.64 13.1868 37.3671 12.786 36.5115 12.786H32.5237C32.3049 12.9138 32.0494 13.241 32.0494 13.6049C32.0494 14.1876 32.4675 14.4605 32.9592 14.4605H36.5115ZM36.3663 6.79469C36.3663 5.8481 35.7294 5.15506 34.7634 5.15506C33.7975 5.15506 33.1606 5.84616 33.1606 6.79469C33.1606 7.74322 33.7975 8.34334 34.7634 8.34334C35.7294 8.34334 36.3663 7.72389 36.3663 6.79469Z" fill="#052E2B"></path><path fill-rule="evenodd" clip-rule="evenodd" d="M45.1994 3.40701C42.5589 3.40701 40.5921 5.35445 40.5921 8.21366L40.5941 8.2156C40.5941 11.2025 42.4505 13.0783 45.2187 13.0783C47.987 13.0783 49.1349 11.5858 49.644 10.4205L47.3307 9.52804C46.9494 10.3837 46.3841 11.1116 45.2187 11.1116C44.1076 11.1116 43.252 10.4553 43.1784 8.85244H49.6073C49.8609 5.81128 48.258 3.40701 45.1994 3.40701ZM45.1994 5.26348C46.2931 5.26348 46.9494 5.90226 47.0578 7.03085H43.2694C43.4513 5.88293 44.1056 5.26348 45.1994 5.26348Z" fill="#052E2B"></path><path d="M51.2082 12.7841V12.7822H53.7925V8.46722C53.7925 7.50124 53.8119 5.53447 55.6141 5.53447C56.5065 5.53447 57.0718 6.04357 57.0718 7.24575V12.7822H59.658V6.6824C59.658 4.69818 58.7656 3.40507 56.6536 3.40507C54.9772 3.40507 54.1042 4.46008 53.7209 5.07954V3.67801H51.2082V12.7822H51.2062L51.2082 12.7841Z" fill="#052E2B"></path><path fill-rule="evenodd" clip-rule="evenodd" d="M66.9057 6.86629C63.8824 7.15662 61.188 7.90372 61.1873 10.4524C61.1878 12.0547 62.4614 13.0745 64.0639 13.0745C65.6668 13.0745 66.687 12.2189 67.1787 11.4542C67.2697 12.275 67.7981 12.7841 68.8183 12.7841H70.8025V10.8173H70.0011C69.5094 10.8173 69.4552 10.7263 69.4552 10.2714V6.93988C69.4552 4.53561 68.0517 3.40701 65.3939 3.40701C62.736 3.40701 61.2241 4.77177 61.0789 6.19263L63.4096 6.70178C63.6284 5.84616 64.2304 5.26348 65.4132 5.26348C66.4508 5.26348 66.9057 5.73774 66.9057 6.51982V6.86629ZM66.9057 8.46915V9.05184C66.9057 10.527 65.9939 11.1832 64.9931 11.1832C64.2111 11.1832 63.8103 10.7999 63.8103 10.1998C63.8103 8.99763 65.2312 8.66855 66.9057 8.46915Z" fill="#052E2B"></path><path d="M74.8987 12.7841C73.4236 12.7841 72.5854 11.8182 72.5854 10.3992V5.64676H70.6728V3.67999H72.5854V0.820785H75.1717V3.67999H77.5392V5.64676H75.1717V9.92688C75.1717 10.4728 75.4078 10.7283 75.9731 10.7283H77.9399V12.7861H74.8987V12.7841Z" fill="#052E2B"></path><path d="M79.1246 0V2.44109H81.8734V0H79.1246Z" fill="#052E2B"></path><path d="M79.2156 3.67805V12.7841H81.8018V3.67805H79.2156Z" fill="#052E2B"></path><path fill-rule="evenodd" clip-rule="evenodd" d="M83.2943 8.23105C83.2943 5.31764 85.2979 3.40507 88.0836 3.40507C90.8692 3.40507 92.8728 5.31764 92.8728 8.23105C92.8728 11.1445 90.8692 13.0745 88.0836 13.0745C85.2979 13.0745 83.2943 11.0341 83.2943 8.23105ZM90.1781 8.26787C90.1781 6.39202 89.3225 5.44543 88.0836 5.44543C86.8447 5.44543 85.989 6.39202 85.989 8.26787C85.989 10.1437 86.8447 11.0167 88.0836 11.0167C89.3225 11.0167 90.1781 10.1417 90.1781 8.26787Z" fill="#052E2B"></path><path d="M94.402 12.7822V12.7841L94.4001 12.7822H94.402Z" fill="#052E2B"></path><path d="M94.402 12.7822H96.9864V8.46722C96.9864 7.50124 97.0057 5.53447 98.808 5.53447C99.7004 5.53447 100.266 6.04357 100.266 7.24575V12.7822H102.852V6.6824C102.852 4.69818 101.959 3.40507 99.8475 3.40507C98.1711 3.40507 97.298 4.46008 96.9147 5.07954V3.67801H94.402V12.7822Z" fill="#052E2B"></path></g></svg>