<svg xmlns="http://www.w3.org/2000/svg" width="170" height="30" viewBox="0 0 170 30" fill="none"><path d="M11.6511 0C16.2222 0 19.9364 3.65222 20.0448 8.19754H3.25737C3.36575 3.65222 7.07997 0 11.6511 0Z" fill="white"></path><path d="M0 25.2611H5.02537L9.66617 9.72294H9.28159L0 25.2611Z" fill="white"></path><path d="M9.1371 25.2611L11.4575 9.72294H11.8447L14.1651 25.2611H9.1371Z" fill="white"></path><path d="M18.2767 25.2611H23.3021L14.0231 9.72294H13.6359L18.2767 25.2611Z" fill="white"></path><path d="M32.163 11.4704V8.21563H35.8281V11.4704H32.163Z" fill="white"></path><path d="M32.2843 25.2612V13.1197H35.7327V25.2612H32.2843Z" fill="white"></path><path d="M38.5486 25.2611V13.1196H41.8988V14.867C42.699 13.4113 44.036 12.7557 45.5408 12.7557C47.1668 12.7557 48.3077 13.6307 49.0123 14.867C50.1299 13.29 51.5134 12.7557 53.0905 12.7557C55.3489 12.7557 57.0963 13.9688 57.0963 17.1513V25.2611H53.648V17.8792C53.648 16.2531 52.8943 15.5975 51.7534 15.5975C49.5673 15.5975 49.5208 17.856 49.5208 19.0691V25.2611H46.1215V17.8792C46.1215 16.2531 45.3678 15.5975 44.227 15.5975C42.0408 15.5975 41.9944 17.856 41.9944 19.0691V25.2611H38.5486Z" fill="white"></path><path fill-rule="evenodd" clip-rule="evenodd" d="M66.7651 17.3707C62.7339 17.7578 59.1414 18.7539 59.1405 22.1521C59.1412 24.2886 60.8393 25.6483 62.976 25.6483C65.1132 25.6483 66.4734 24.5074 67.129 23.4879C67.2503 24.5823 67.9549 25.2611 69.3152 25.2611H71.9608V22.6387H70.8923C70.2366 22.6387 70.1644 22.5174 70.1644 21.9108V17.4688C70.1644 14.2631 68.2931 12.7583 64.7493 12.7583C61.2054 12.7583 59.1896 14.578 58.996 16.4725L62.1036 17.1513C62.3953 16.0105 63.1954 15.2336 64.775 15.2336C66.1585 15.2336 66.7651 15.866 66.7651 16.9087V17.3707ZM66.7651 19.5078V20.2847C66.7651 22.2516 65.5494 23.1265 64.2149 23.1265C63.1722 23.1265 62.6379 22.6155 62.6379 21.8154C62.6379 20.2125 64.5324 19.7737 66.7651 19.5078Z" fill="white"></path><path fill-rule="evenodd" clip-rule="evenodd" d="M75.8919 29.9974C73.3185 29.9974 72.2499 29.0502 72.2499 27.4964C72.2499 26.4277 72.9778 25.5528 73.6824 25.0933C72.9778 24.6081 72.5415 23.9525 72.5415 22.8607C72.5415 21.6476 73.463 20.7494 74.4593 20.215C73.6592 19.5595 73.1481 18.4677 73.1481 17.3011C73.1481 14.5806 75.3576 12.7609 78.4162 12.7609C80.6023 12.7609 82.3497 13.7572 83.1498 15.2129C83.2221 13.6101 83.6842 13.1248 85.3102 13.1248H86.2317V15.7472H84.8972C84.1436 15.7472 83.95 15.9176 83.8055 17.1565L83.7822 17.3759C83.4906 19.9983 81.3793 21.6011 78.5375 21.6011C77.6393 21.6011 76.741 21.5031 76.0132 21.1881C75.3343 21.3817 75.0917 21.6502 75.0917 22.0373C75.0917 22.5484 75.6027 22.5716 76.3048 22.5716H81.5263C84.1255 22.5716 85.7516 24.2726 85.7516 26.2368C85.7516 28.6888 83.9061 30 81.5263 30H75.8944L75.8919 29.9974ZM80.845 27.4964C81.9858 27.4964 82.3497 27.0343 82.3497 26.3555C82.3497 25.798 81.9858 25.2637 80.845 25.2637H75.5279C75.2362 25.4341 74.8955 25.8703 74.8955 26.3555C74.8955 27.1324 75.453 27.4964 76.1086 27.4964H80.845ZM80.6514 17.2752C80.6514 16.0131 79.8022 15.089 78.5142 15.089C77.2263 15.089 76.3771 16.0105 76.3771 17.2752C76.3771 18.5399 77.2263 19.3401 78.5142 19.3401C79.8022 19.3401 80.6514 18.5142 80.6514 17.2752Z" fill="white"></path><path fill-rule="evenodd" clip-rule="evenodd" d="M92.4288 12.7583C88.9082 12.7583 86.2858 15.3549 86.2858 19.1672L86.2884 19.1698C86.2884 23.1524 88.7637 25.6534 92.4546 25.6534C96.1456 25.6534 97.6762 23.6634 98.355 22.1096L95.2706 20.9197C94.7622 22.0606 94.0084 23.0311 92.4546 23.0311C90.9731 23.0311 89.8323 22.156 89.7342 20.0189H98.306C98.6441 15.964 96.507 12.7583 92.4288 12.7583ZM92.4288 15.2336C93.8871 15.2336 94.7622 16.0853 94.9067 17.5901H89.8555C90.0981 16.0595 90.9705 15.2336 92.4288 15.2336Z" fill="white"></path><path d="M100.441 25.2611V25.2585H103.886V19.5052C103.886 18.2173 103.912 15.5949 106.315 15.5949C107.505 15.5949 108.259 16.2737 108.259 17.8766V25.2585H111.707V17.1255C111.707 14.4799 110.517 12.7557 107.701 12.7557C105.466 12.7557 104.302 14.1624 103.791 14.9883V13.1196H100.441V25.2585H100.438L100.441 25.2611Z" fill="white"></path><path fill-rule="evenodd" clip-rule="evenodd" d="M121.371 17.3707C117.339 17.7578 113.747 18.7539 113.746 22.1521C113.747 24.2886 115.445 25.6483 117.582 25.6483C119.719 25.6483 121.079 24.5074 121.735 23.4879C121.856 24.5823 122.56 25.2611 123.921 25.2611H126.566V22.6387H125.498C124.842 22.6387 124.77 22.5174 124.77 21.9108V17.4688C124.77 14.2631 122.899 12.7583 119.355 12.7583C115.811 12.7583 113.795 14.578 113.602 16.4725L116.709 17.1513C117.001 16.0105 117.804 15.2336 119.381 15.2336C120.764 15.2336 121.371 15.866 121.371 16.9087V17.3707ZM121.371 19.5078V20.2847C121.371 22.2516 120.155 23.1265 118.82 23.1265C117.778 23.1265 117.243 22.6155 117.243 21.8154C117.243 20.2125 119.138 19.7737 121.371 19.5078Z" fill="white"></path><path d="M132.028 25.2612C130.061 25.2612 128.944 23.9732 128.944 22.0812V15.7446H126.393V13.1223H128.944V9.31001H132.392V13.1223H135.549V15.7446H132.392V21.4515C132.392 22.1793 132.707 22.52 133.46 22.52H136.083V25.2637H132.028V25.2612Z" fill="white"></path><path d="M137.662 8.21563V11.4704H141.328V8.21563H137.662Z" fill="white"></path><path d="M137.784 13.1197V25.2612H141.232V13.1197H137.784Z" fill="white"></path><path fill-rule="evenodd" clip-rule="evenodd" d="M143.222 19.1904C143.222 15.3058 145.894 12.7557 149.608 12.7557C153.322 12.7557 155.993 15.3058 155.993 19.1904C155.993 23.0749 153.322 25.6483 149.608 25.6483C145.894 25.6483 143.222 22.9278 143.222 19.1904ZM152.4 19.2395C152.4 16.7383 151.26 15.4762 149.608 15.4762C147.956 15.4762 146.815 16.7383 146.815 19.2395C146.815 21.7405 147.956 22.9046 149.608 22.9046C151.26 22.9046 152.4 21.7379 152.4 19.2395Z" fill="white"></path><path d="M158.032 25.2585V25.2611L158.03 25.2585H158.032Z" fill="white"></path><path d="M158.032 25.2585H161.478V19.5052C161.478 18.2173 161.504 15.5949 163.907 15.5949C165.097 15.5949 165.851 16.2737 165.851 17.8766V25.2585H169.299V17.1255C169.299 14.4799 168.109 12.7557 165.293 12.7557C163.058 12.7557 161.894 14.1624 161.383 14.9883V13.1196H158.032V25.2585Z" fill="white"></path></svg>