<svg xmlns="http://www.w3.org/2000/svg" width="82" height="60" viewBox="0 0 82 60" fill="none"><g clip-path="url(#clip0_732_5950)"><path d="M58.7392 60.0003H0L22.8804 37.588H81.6196L58.7392 60.0003Z" fill="#82CDF0"></path><path d="M29.5357 54.1185C33.7159 54.1185 37.1046 50.7298 37.1046 46.5496C37.1046 42.3694 33.7159 38.9807 29.5357 38.9807C25.3555 38.9807 21.9668 42.3694 21.9668 46.5496C21.9668 50.7298 25.3555 54.1185 29.5357 54.1185Z" fill="#0E2E43"></path><path d="M58.7392 41.2081H0L22.8804 18.7921H81.6196L58.7392 41.2081Z" fill="#219FD6"></path><path d="M52.2212 32.6238C56.4014 32.6238 59.7902 29.2351 59.7902 25.0549C59.7902 20.8747 56.4014 17.486 52.2212 17.486C48.0411 17.486 44.6523 20.8747 44.6523 25.0549C44.6523 29.2351 48.0411 32.6238 52.2212 32.6238Z" fill="#0E2E43"></path><path d="M58.7392 22.4123H0L22.8804 0H81.6196L58.7392 22.4123Z" fill="#82CDF0"></path><path d="M30.3209 17.0292C34.501 17.0292 37.8898 13.6404 37.8898 9.46026C37.8898 5.28007 34.501 1.89136 30.3209 1.89136C26.1407 1.89136 22.752 5.28007 22.752 9.46026C22.752 13.6404 26.1407 17.0292 30.3209 17.0292Z" fill="#0E2E43"></path></g><defs><clipPath id="clip0_732_5950"><rect width="81.6196" height="60.0001" fill="white"></rect></clipPath></defs></svg>