<svg xmlns="http://www.w3.org/2000/svg" width="57" height="64" viewBox="0 0 57 64" fill="none"><path d="M8.63989 37.1199L1.91992 45.4398H15.3599L8.63989 37.1199Z" fill="#AAADF0"></path><path d="M56.9588 36.0815V63.9181H29.6152C32.8792 61.4781 35.258 57.8653 36.587 53.1936C37.2927 50.7189 39.2176 48.7873 41.7336 48.0285C45.9725 46.749 49.6953 44.5347 52.7996 41.4475C54.4204 39.8357 55.8143 38.033 56.9588 36.0815Z" fill="#AAADF0"></path><path d="M56.9598 44.78V63.9155H37.0469C38.4756 61.9541 39.5852 59.6158 40.3507 56.9328C41.0539 54.4556 42.9789 52.524 45.4973 51.7652C49.7337 50.4857 53.459 48.2714 56.5609 45.1867C56.6955 45.0528 56.8302 44.9164 56.9598 44.78Z" fill="#705AD1"></path><path d="M56.8202 20.2663C56.698 19.1728 56.501 18.1016 56.2292 17.0601C56.0672 16.4352 55.8752 15.8178 55.6582 15.2128C55.2717 14.1217 54.8055 13.0679 54.2644 12.0636C50.8533 5.71571 44.5099 1.16308 37.0319 0.193535C36.9646 0.186096 36.8948 0.176177 36.8274 0.171218C35.9148 0.0596336 34.9848 0.00012207 34.0372 0.00012207H8.32031V63.9999H17.4955C27.6888 63.9999 31.6086 57.4933 33.1146 52.2141C34.1594 48.5467 37.0169 45.6976 40.6849 44.5892C43.6122 43.7064 47.0956 42.0401 50.2449 38.9058C51.8482 37.3114 53.2196 35.4765 54.2918 33.463C54.8229 32.4736 55.2817 31.4371 55.6607 30.3634C55.8801 29.7435 56.0771 29.1087 56.2417 28.4665C56.511 27.425 56.7055 26.3538 56.8252 25.2603C56.9149 24.447 56.9598 23.6237 56.9598 22.7881C56.9598 21.9525 56.9125 21.092 56.8202 20.2638V20.2663Z" fill="#705AD1"></path><path d="M8.31997 36.4799C12.915 36.4799 16.6399 32.7549 16.6399 28.1599C16.6399 23.5649 12.915 19.84 8.31997 19.84C3.72498 19.84 0 23.5649 0 28.1599C0 32.7549 3.72498 36.4799 8.31997 36.4799Z" fill="#AAADF0"></path><path d="M8.32045 31.9999C10.4412 31.9999 12.1604 30.2807 12.1604 28.1599C12.1604 26.0392 10.4412 24.3199 8.32045 24.3199C6.19969 24.3199 4.48047 26.0392 4.48047 28.1599C4.48047 30.2807 6.19969 31.9999 8.32045 31.9999Z" fill="#282145"></path><path d="M41.9008 10.5163C41.9008 8.17453 39.9918 6.27612 37.6369 6.27612C35.282 6.27612 33.373 8.17453 33.373 10.5163V35.0673C33.373 37.4091 35.282 39.3075 37.6369 39.3075C39.9918 39.3075 41.9008 37.4091 41.9008 35.0673V10.5163Z" fill="#282145"></path><path d="M56.9603 22.7905C56.9603 23.6262 56.9154 24.4494 56.8257 25.2627H33.377V20.2662H56.8207C56.9129 21.0944 56.9603 21.935 56.9603 22.7905Z" fill="#CED1F7"></path><path d="M56.2297 17.0601H33.377V12.0636H54.2674C54.8059 13.0679 55.2722 14.1242 55.6612 15.2128C55.8781 15.8178 56.0677 16.4327 56.2322 17.0601H56.2297Z" fill="#AAADF0"></path><path d="M56.2408 28.469C56.0762 29.1137 55.8792 29.746 55.6598 30.3659C55.2808 31.4371 54.822 32.4736 54.2909 33.4655H33.373V28.469H56.2408Z" fill="#AAADF0"></path></svg>