<svg xmlns="http://www.w3.org/2000/svg" width="67" height="80" viewBox="0 0 67 80" fill="none"><path d="M21.5371 25.0518H45.7973V77.0006C45.7973 78.3206 44.3573 79.1359 43.2254 78.4568L34.5409 73.2462C34.0031 72.9235 33.3313 72.9235 32.7935 73.2462L24.109 78.4568C22.9771 79.1359 21.5371 78.3206 21.5371 77.0006V25.0518Z" fill="#0A2C07"></path><path d="M31.4531 1.2875C32.3655 -0.429168 34.8254 -0.429168 35.7377 1.2875L36.4946 2.71175C37.2517 4.13625 39.1623 4.43886 40.3225 3.31802L41.4825 2.19737C42.8807 0.846637 45.2202 1.60679 45.5574 3.52135L45.8371 5.10979C46.1169 6.69849 47.8406 7.57672 49.2904 6.86925L50.7399 6.1619C52.487 5.30932 54.4771 6.75521 54.2062 8.68026L53.9814 10.2774C53.7565 11.8748 55.1244 13.2427 56.7218 13.0178L58.319 12.793C60.2441 12.522 61.69 14.5121 60.8374 16.2592L60.1301 17.7087C59.4226 19.1585 60.3008 20.8821 61.8896 21.1619L63.478 21.4416C65.3926 21.7788 66.1528 24.1183 64.802 25.5164L63.6814 26.6763C62.5605 27.8365 62.8631 29.7472 64.2876 30.5042L65.7119 31.2611C67.4286 32.1734 67.4286 34.6333 65.7119 35.5456L64.2876 36.3025C62.8631 37.0595 62.5605 38.9701 63.6814 40.1303L64.802 41.2903C66.1528 42.6884 65.3926 45.0279 63.478 45.3651L61.8896 45.6448C60.3008 45.9246 59.4226 47.6482 60.1301 49.0979L60.8374 50.5474C61.69 52.2945 60.2441 54.2846 58.319 54.0136L56.7218 53.7888C55.1244 53.564 53.7565 54.9318 53.9814 56.5293L54.2062 58.1264C54.4771 60.0514 52.487 61.4973 50.7399 60.6447L49.2904 59.9374C47.8406 59.2299 46.1169 60.1081 45.8371 61.6969L45.5574 63.2853C45.2202 65.1999 42.8807 65.96 41.4825 64.6093L40.3225 63.4886C39.1623 62.3678 37.2517 62.6704 36.4946 64.0949L35.7377 65.5191C34.8254 67.2358 32.3655 67.2358 31.4531 65.5191L30.6962 64.0949C29.9392 62.6704 28.0285 62.3678 26.8683 63.4886L25.7083 64.6093C24.3102 65.96 21.9706 65.1999 21.6334 63.2853L21.3537 61.6969C21.0739 60.1081 19.3503 59.2299 17.9005 59.9374L16.451 60.6447C14.7038 61.4973 12.7137 60.0514 12.9847 58.1264L13.2095 56.5293C13.4344 54.9318 12.0665 53.564 10.469 53.7888L8.87185 54.0136C6.94675 54.2846 5.50084 52.2945 6.35344 50.5474L7.0608 49.0979C7.76829 47.6482 6.89004 45.9246 5.3013 45.6448L3.71283 45.3651C1.79823 45.0279 1.03806 42.6884 2.38883 41.2903L3.5095 40.1303C4.63036 38.9701 4.32774 37.0595 2.90321 36.3025L1.47894 35.5456C-0.237771 34.6333 -0.237771 32.1734 1.47894 31.2611L2.90321 30.5042C4.32774 29.7472 4.63036 27.8365 3.5095 26.6763L2.38883 25.5164C1.03806 24.1183 1.79823 21.7788 3.71284 21.4416L5.3013 21.1619C6.89004 20.8821 7.76829 19.1585 7.0608 17.7087L6.35344 16.2592C5.50084 14.5121 6.94675 12.522 8.87185 12.793L10.469 13.0178C12.0665 13.2427 13.4344 11.8748 13.2095 10.2774L12.9847 8.68026C12.7137 6.75521 14.7038 5.30932 16.451 6.1619L17.9005 6.86925C19.3503 7.57672 21.0739 6.69849 21.3537 5.10979L21.6334 3.52135C21.9706 1.60679 24.3102 0.846638 25.7083 2.19737L26.8683 3.31802C28.0285 4.43886 29.9392 4.13625 30.6962 2.71175L31.4531 1.2875Z" fill="#61E7CA"></path><path d="M52.2207 31.1466C52.2963 31.7919 52.3392 32.4472 52.3478 33.1107L51.3774 33.1232C51.3784 33.2013 51.3789 33.2795 51.3789 33.3579C51.3789 33.4362 51.3784 33.5145 51.3774 33.5926L52.3478 33.6051C52.3392 34.2686 52.2963 34.9238 52.2207 35.5691L51.2569 35.4562C51.2387 35.611 51.2186 35.7653 51.1965 35.9189L52.1571 36.0569C52.0629 36.7119 51.935 37.356 51.7751 37.9874L50.8344 37.7492C50.7961 37.9004 50.7559 38.0508 50.7137 38.2005L51.6478 38.4634C51.4689 39.0989 51.2575 39.7208 51.0153 40.3271L50.1141 39.9672C50.0564 40.1117 49.9969 40.2554 49.9355 40.398L50.8269 40.7815C50.5665 41.3868 50.2752 41.9757 49.955 42.5462L49.1088 42.0712C49.0326 42.207 48.9546 42.3417 48.875 42.4752L49.7085 42.9722C49.3717 43.5372 49.006 44.083 48.6136 44.6076L47.8365 44.0264C47.7433 44.1511 47.6484 44.2746 47.5519 44.3968L48.3136 44.998C47.9066 45.5136 47.4731 46.0074 47.0153 46.4773L46.3203 45.8001C46.2116 45.9116 46.1016 46.0216 45.9901 46.1303L46.6672 46.8253C46.1973 47.2831 45.7036 47.7166 45.188 48.1236L44.5867 47.3619C44.4646 47.4583 44.3411 47.5532 44.2164 47.6465L44.7976 48.4236C44.2729 48.816 43.7271 49.1816 43.1621 49.5184L42.6652 48.6849C42.5316 48.7645 42.3969 48.8425 42.2612 48.9187L42.7361 49.7649C42.1656 50.0851 41.5767 50.3763 40.9714 50.6367L40.5879 49.7453C40.4452 49.8067 40.3016 49.8663 40.1571 49.924L40.5169 50.8252C39.9106 51.0673 39.2888 51.2787 38.6533 51.4576L38.3903 50.5235C38.2407 50.5657 38.0903 50.6059 37.9391 50.6442L38.1772 51.5849C37.5459 51.7447 36.9018 51.8727 36.2468 51.9668L36.1087 51.0063C35.9551 51.0284 35.8009 51.0485 35.646 51.0666L35.7589 52.0305C35.1137 52.106 34.4584 52.149 33.7949 52.1575L33.7824 51.1872C33.7043 51.1882 33.6261 51.1887 33.5477 51.1887C33.4694 51.1887 33.3911 51.1882 33.313 51.1872L33.3005 52.1575C32.637 52.149 31.9818 52.106 31.3365 52.0305L31.4494 51.0666C31.2945 51.0485 31.1403 51.0284 30.9867 51.0063L30.8486 51.9668C30.1936 51.8727 29.5496 51.7447 28.9182 51.5849L29.1564 50.6442C29.0052 50.6059 28.8547 50.5657 28.7051 50.5235L28.4422 51.4576C27.8067 51.2787 27.1848 51.0673 26.5785 50.8252L26.9384 49.924C26.7938 49.8663 26.6502 49.8067 26.5075 49.7453L26.1241 50.6367C25.5188 50.3763 24.9299 50.0851 24.3594 49.7649L24.8343 48.9187C24.6985 48.8425 24.5638 48.7645 24.4303 48.6849L23.9333 49.5184C23.3684 49.1816 22.8225 48.816 22.2979 48.4236L22.8791 47.6465C22.7544 47.5532 22.6309 47.4583 22.5087 47.3619L21.9075 48.1236C21.3919 47.7166 20.8981 47.2831 20.4282 46.8253L21.1054 46.1303C20.9939 46.0216 20.8838 45.9116 20.7752 45.8001L20.0801 46.4773C19.6223 46.0074 19.1889 45.5136 18.7818 44.998L19.5435 44.3968C19.4471 44.2746 19.3522 44.1511 19.2589 44.0264L18.4818 44.6076C18.0894 44.083 17.7238 43.5372 17.3869 42.9722L18.2204 42.4752C18.1408 42.3417 18.0629 42.207 17.9867 42.0712L17.1404 42.5462C16.8203 41.9757 16.529 41.3868 16.2686 40.7815L17.16 40.398C17.0986 40.2554 17.039 40.1117 16.9813 39.9672L16.0801 40.3271C15.838 39.7208 15.6265 39.0989 15.4476 38.4634L16.3817 38.2005C16.3396 38.0508 16.2993 37.9004 16.2611 37.7492L15.3204 37.9874C15.1605 37.356 15.0326 36.7119 14.9384 36.0569L15.8989 35.9189C15.8768 35.7653 15.8567 35.611 15.8386 35.4562L14.8748 35.5691C14.7992 34.9238 14.7562 34.2686 14.7477 33.6051L15.718 33.5926C15.717 33.5145 15.7165 33.4362 15.7165 33.3579C15.7165 33.2795 15.717 33.2013 15.718 33.1232L14.7477 33.1107C14.7562 32.4472 14.7992 31.7919 14.8748 31.1466L15.8386 31.2596C15.8567 31.1047 15.8768 30.9505 15.8989 30.7969L14.9384 30.6588C15.0326 30.0038 15.1605 29.3597 15.3204 28.7284L16.2611 28.9666C16.2994 28.8153 16.3396 28.6649 16.3817 28.5153L15.4476 28.2523C15.6265 27.6168 15.838 26.995 16.0801 26.3887L16.9813 26.7486C17.039 26.604 17.0986 26.4604 17.16 26.3177L16.2686 25.9342C16.529 25.3289 16.8203 24.7401 17.1404 24.1696L17.9867 24.6445C18.0629 24.5087 18.1408 24.3741 18.2204 24.2405L17.3869 23.7436C17.7238 23.1786 18.0894 22.6328 18.4818 22.1081L19.2589 22.6893C19.3522 22.5646 19.4471 22.4412 19.5435 22.319L18.7818 21.7177C19.1889 21.2021 19.6223 20.7084 20.0801 20.2385L20.7752 20.9157C20.8838 20.8042 20.9939 20.6941 21.1054 20.5855L20.4282 19.8904C20.8981 19.4326 21.3919 18.9992 21.9075 18.5922L22.5087 19.3539C22.6309 19.2574 22.7544 19.1626 22.8791 19.0693L22.2979 18.2922C22.8225 17.8998 23.3684 17.5342 23.9333 17.1973L24.4303 18.0308C24.5638 17.9512 24.6985 17.8733 24.8343 17.7971L24.3594 16.9508C24.9299 16.6307 25.5188 16.3394 26.1241 16.079L26.5075 16.9704C26.6502 16.9091 26.7938 16.8495 26.9384 16.7918L26.5785 15.8906C27.1848 15.6485 27.8067 15.437 28.4422 15.2581L28.7051 16.1922C28.8547 16.1501 29.0052 16.1099 29.1564 16.0716L28.9182 15.1309C29.5496 14.971 30.1936 14.8431 30.8486 14.7489L30.9867 15.7094C31.1403 15.6874 31.2945 15.6672 31.4494 15.6491L31.3365 14.6853C31.9818 14.6097 32.637 14.5668 33.3005 14.5582L33.313 15.5285C33.3911 15.5275 33.4694 15.527 33.5477 15.527C33.6261 15.527 33.7043 15.5275 33.7824 15.5285L33.7949 14.5582C34.4584 14.5668 35.1137 14.6097 35.759 14.6853L35.646 15.6491C35.8009 15.6672 35.9551 15.6874 36.1087 15.7094L36.2468 14.7489C36.9018 14.8431 37.5459 14.971 38.1772 15.1309L37.9391 16.0716C38.0903 16.1099 38.2407 16.1501 38.3903 16.1922L38.6533 15.2581C39.2888 15.437 39.9106 15.6485 40.5169 15.8906L40.1571 16.7918C40.3016 16.8495 40.4452 16.9091 40.5879 16.9704L40.9714 16.079C41.5767 16.3394 42.1656 16.6307 42.7361 16.9508L42.2612 17.7971C42.3969 17.8733 42.5316 17.9512 42.6652 18.0308L43.1621 17.1973C43.7271 17.5342 44.2729 17.8998 44.7976 18.2922L44.2164 19.0693C44.3411 19.1625 44.4646 19.2574 44.5867 19.3539L45.188 18.5922C45.7036 18.9992 46.1973 19.4326 46.6672 19.8904L45.9901 20.5855C46.1016 20.6941 46.2116 20.8042 46.3203 20.9157L47.0153 20.2385C47.4731 20.7084 47.9066 21.2021 48.3136 21.7177L47.5519 22.319C47.6484 22.4412 47.7433 22.5646 47.8365 22.6893L48.6136 22.1081C49.006 22.6328 49.3717 23.1786 49.7085 23.7436L48.875 24.2405C48.9546 24.3741 49.0326 24.5087 49.1088 24.6445L49.955 24.1696C50.2752 24.7401 50.5665 25.3289 50.8269 25.9342L49.9355 26.3177C49.9969 26.4604 50.0564 26.604 50.1141 26.7486L51.0153 26.3887C51.2575 26.995 51.4689 27.6168 51.6478 28.2523L50.7137 28.5153C50.7559 28.6649 50.7961 28.8153 50.8344 28.9666L51.7751 28.7284C51.935 29.3597 52.0629 30.0038 52.1571 30.6588L51.1965 30.7969C51.2186 30.9505 51.2387 31.1047 51.2569 31.2596L52.2207 31.1466Z" stroke="#0A2C07" stroke-width="1.94079" stroke-dasharray="0.49 1.94"></path><path d="M58.7035 33.4043C58.7035 47.2715 47.4617 58.513 33.5943 58.513C19.7268 58.513 8.48499 47.2715 8.48499 33.4043C8.48499 19.5371 19.7268 8.29554 33.5943 8.29554C47.4617 8.29554 58.7035 19.5371 58.7035 33.4043Z" stroke="#0A2C07" stroke-width="0.727797"></path><path d="M33.5489 25.958C36.2616 25.958 38.4657 28.1326 38.5301 30.839H28.5678C28.6321 28.1326 30.8363 25.958 33.5489 25.958Z" fill="#0A2C07"></path><path d="M26.6348 40.999H29.617L32.371 31.7473H32.1428L26.6348 40.999Z" fill="#0A2C07"></path><path d="M32.057 40.999L33.4341 31.7473H33.6638L35.0408 40.999H32.057Z" fill="#0A2C07"></path><path d="M37.4808 40.999H40.4631L34.9566 31.7473H34.7268L37.4808 40.999Z" fill="#0A2C07"></path></svg>