<svg xmlns="http://www.w3.org/2000/svg" width="93" height="65" viewBox="0 0 93 65" fill="none"><path d="M39.4061 31.1395C33.8954 31.1395 28.2424 31.3495 22.8527 32.5641C21.0055 32.9804 15.3719 33.9108 15.1723 36.6056C14.8723 40.6549 19.904 42.1782 23.085 42.4589C31.0252 43.1595 39.2067 38.1426 41.7753 30.5046C45.1913 20.3465 30.7933 24.6618 26.1046 26.6489C18.2122 29.9936 11.7054 35.5911 5.98972 41.886C4.17255 43.8873 0.345021 47.7859 1.0965 51.0066C2.53549 57.1736 10.9388 53.9803 14.3825 52.3537C28.9091 45.4924 42.4877 35.7701 55.4639 26.4011C64.878 19.604 73.8898 12.3374 82.7018 4.78421C84.0636 3.61697 89.9039 -1.38038 84.2038 3.04991C74.7414 10.4044 65.4967 18.0352 56.0368 25.3946C41.5374 36.6744 26.8177 47.6816 12.0288 58.5787C10.7695 59.5066 7.13891 62.1678 5.46324 63.317C4.44076 64.0183 3.41039 64.6698 5.15354 62.9609C11.5975 56.6433 18.5969 50.755 25.7484 45.2617C30.7339 41.4321 35.935 37.7646 41.6049 35.0107C41.7143 34.9576 45.3312 33.0668 45.4142 33.7719C45.4844 34.3683 42.7001 38.2675 44.0515 37.8599C45.2199 37.5075 49.3673 33.8893 50.4932 34.5461C51.0536 34.873 50.825 35.1395 51.8869 34.8249C52.991 34.4977 54.176 34.4525 55.4484 33.9577C67.9476 29.0969 79.9902 22.9695 92.0856 17.2031" stroke="#052E2B" stroke-width="0.75" stroke-linecap="round"></path></svg>