<svg xmlns="http://www.w3.org/2000/svg" width="101" height="100" viewBox="0 0 101 100" fill="none"><path d="M45.8842 100H54.7453L54.7453 0L45.8842 0L45.8842 100Z" fill="#AAADF0"></path><path d="M14.7865 85.4549L21.5745 91.1507L85.8533 14.5463L79.0653 8.85044L14.7865 85.4549Z" fill="#AAADF0"></path><path d="M0.304688 54.3224L1.84341 63.049L100.324 45.6841L98.7855 36.9576L0.304688 54.3224Z" fill="#AAADF0"></path><path d="M9.22693 21.167L4.79637 28.841L91.3989 78.841L95.8295 71.1671L9.22693 21.167Z" fill="#AAADF0"></path><path d="M37.3758 1.50057L29.049 4.53125L63.2511 98.5005L71.5778 95.4699L37.3758 1.50057Z" fill="#AAADF0"></path><path d="M71.578 4.53493L63.2513 1.50424L29.0493 95.4735L37.376 98.5042L71.578 4.53493Z" fill="#AAADF0"></path><path d="M95.8294 28.8377L91.3988 21.1637L4.79626 71.1637L9.22682 78.8377L95.8294 28.8377Z" fill="#AAADF0"></path><path d="M98.7881 63.0469L100.327 54.3204L1.84605 36.9555L0.30733 45.682L98.7881 63.0469Z" fill="#AAADF0"></path><path d="M79.0619 91.1545L85.8499 85.4587L21.5712 8.85419L14.7831 14.55L79.0619 91.1545Z" fill="#AAADF0"></path><path d="M50.3072 77.505C65.4964 77.505 77.8097 65.1917 77.8097 50.0025C77.8097 34.8133 65.4964 22.5 50.3072 22.5C35.118 22.5 22.8047 34.8133 22.8047 50.0025C22.8047 65.1917 35.118 77.505 50.3072 77.505Z" fill="#A2F5E0"></path><path d="M50.3047 63.75C57.8986 63.75 64.0547 57.5939 64.0547 50C64.0547 42.4061 57.8986 36.25 50.3047 36.25C42.7108 36.25 36.5547 42.4061 36.5547 50C36.5547 57.5939 42.7108 63.75 50.3047 63.75Z" fill="black"></path></svg>