<svg xmlns="http://www.w3.org/2000/svg" width="85" height="92" viewBox="0 0 85 92" fill="none"><path d="M21.9844 0C10.3864 0 0.984375 9.40203 0.984375 21C0.984375 32.598 10.3864 42 21.9844 42H63.9844C75.5824 42 84.9844 32.598 84.9844 21C84.9844 9.40203 75.5824 0 63.9844 0H21.9844Z" fill="#A2F5E0"></path><path d="M21.9844 42C33.5823 42 42.9844 32.598 42.9844 21C42.9844 9.40202 33.5823 0 21.9844 0C10.3864 0 0.984375 9.40202 0.984375 21C0.984375 32.598 10.3864 42 21.9844 42Z" fill="#A2F5E0"></path><path d="M21.9844 29C26.4027 29 29.9844 25.4183 29.9844 21C29.9844 16.5817 26.4027 13 21.9844 13C17.5661 13 13.9844 16.5817 13.9844 21C13.9844 25.4183 17.5661 29 21.9844 29Z" fill="black"></path><path d="M63.9844 42C75.5823 42 84.9844 32.598 84.9844 21C84.9844 9.40202 75.5823 0 63.9844 0C52.3864 0 42.9844 9.40202 42.9844 21C42.9844 32.598 52.3864 42 63.9844 42Z" fill="#AAADF0"></path><path d="M63.9844 29C68.4027 29 71.9844 25.4183 71.9844 21C71.9844 16.5817 68.4027 13 63.9844 13C59.5661 13 55.9844 16.5817 55.9844 21C55.9844 25.4183 59.5661 29 63.9844 29Z" fill="black"></path><path d="M21.9844 50C10.3864 50 0.984375 59.402 0.984375 71C0.984375 82.598 10.3864 92 21.9844 92H63.9844C75.5824 92 84.9844 82.598 84.9844 71C84.9844 59.402 75.5824 50 63.9844 50H21.9844Z" fill="black"></path><path d="M21.9844 92C33.5823 92 42.9844 82.598 42.9844 71C42.9844 59.402 33.5823 50 21.9844 50C10.3864 50 0.984375 59.402 0.984375 71C0.984375 82.598 10.3864 92 21.9844 92Z" fill="#80CAED"></path><path d="M21.9844 79C26.4027 79 29.9844 75.4183 29.9844 71C29.9844 66.5817 26.4027 63 21.9844 63C17.5661 63 13.9844 66.5817 13.9844 71C13.9844 75.4183 17.5661 79 21.9844 79Z" fill="black"></path><path d="M63.9844 92C75.5823 92 84.9844 82.598 84.9844 71C84.9844 59.402 75.5823 50 63.9844 50C52.3864 50 42.9844 59.402 42.9844 71C42.9844 82.598 52.3864 92 63.9844 92Z" fill="black"></path><path d="M63.9844 79C68.4027 79 71.9844 75.4183 71.9844 71C71.9844 66.5817 68.4027 63 63.9844 63C59.5661 63 55.9844 66.5817 55.9844 71C55.9844 75.4183 59.5661 79 63.9844 79Z" fill="#A2F5E0"></path></svg>